<svg id="Layer_1" data-name="Layer 1" xmlns="http://www.w3.org/2000/svg" viewBox="0 0 133.27 120.53"><defs><style>.cls-1{fill:#fff;}</style></defs><title>logo</title><path class="cls-1" d="M128.62,61.65l-0.17-3.13-3.13-.17a52.62,52.62,0,0,0-55.46,55.46L70,116.94l3.13,0.17q1.45,0.08,2.89.08A52.61,52.61,0,0,0,128.62,61.65ZM108.34,96.83a45.69,45.69,0,0,1-27,13c2.9-3.27,6.55-7.44,10.19-11.64l5.78-6.68c1.83-2.15,3.55-4.14,5-5.88s2.66-3.18,3.49-4.2l1.31-1.6-1.6,1.31c-1,.83-2.48,2-4.2,3.49s-3.73,3.16-5.88,5l-6.68,5.78c-4.23,3.65-8.41,7.33-11.69,10.23a45.6,45.6,0,0,1,44.61-40.4A45.71,45.71,0,0,1,108.34,96.83Z"/><path class="cls-1" d="M8.17,58.35L5,58.52,4.86,61.65a52.61,52.61,0,0,0,52.57,55.54q1.44,0,2.89-.08l3.13-.17,0.17-3.13A52.62,52.62,0,0,0,8.17,58.35Zm17,38.48A45.71,45.71,0,0,1,11.79,65.27a45.59,45.59,0,0,1,44.58,40.21l-4.89-4.35c-2.1-1.88-4.37-3.85-6.64-5.83l-6.66-5.8C36,87.68,34,86,32.29,84.53c-3.49-2.88-5.91-4.7-5.91-4.7s1.82,2.42,4.7,5.91c1.43,1.75,3.15,3.74,5,5.9l5.8,6.66c2,2.27,3.95,4.54,5.83,6.64l4.39,4.94a45.68,45.68,0,0,1-26.93-13h0Z"/><path class="cls-1" d="M86.11,44.73A52.72,52.72,0,0,0,68.58,5.51L66.24,3.42,63.91,5.51a52.62,52.62,0,0,0,0,78.43L66.24,86l2.34-2.09A52.72,52.72,0,0,0,86.11,44.73Zm-32.74,0A45.7,45.7,0,0,1,66.24,13a45.59,45.59,0,0,1,3,60c-0.27-4.36-.61-10-1-15.44l-0.63-8.81C67.4,46,67.22,43.33,67,41.08s-0.38-4.12-.52-5.44l-0.21-2.06-0.21,2.07c-0.14,1.31-.32,3.2-0.52,5.45s-0.4,4.91-.63,7.72-0.42,5.88-.63,8.88c-0.4,5.47-.74,11-1,15.38A45.69,45.69,0,0,1,53.37,44.73Z"/></svg>