<svg xmlns="http://www.w3.org/2000/svg" viewBox="0 0 100 100"><defs><style>.cls-1{isolation:isolate;}.cls-2{fill:#aa7244;}.cls-3{opacity:0.2;mix-blend-mode:soft-light;}.cls-4{fill:none;stroke:#000;stroke-miterlimit:10;stroke-width:2.02px;}.cls-5{fill:#fff;}.cls-6{fill:#d88835;}.cls-7{fill:#3d3126;}</style></defs><title>groenten</title><g class="cls-1"><g id="Objects"><rect class="cls-2" width="100" height="100"/><g class="cls-3"><path class="cls-4" d="M8.22,16.71c7,0,7,6.92,14,6.92s7-6.92,14-6.92,7,6.92,14,6.92,7-6.92,14-6.92,7,6.92,14,6.92,7-6.92,14-6.92"/><path class="cls-4" d="M8.22,36.87c7,0,7,6.92,14,6.92s7-6.92,14-6.92,7,6.92,14,6.92,7-6.92,14-6.92,7,6.92,14,6.92,7-6.92,14-6.92"/><path class="cls-4" d="M8.22,57c7,0,7,6.92,14,6.92s7-6.92,14-6.92,7,6.92,14,6.92,7-6.92,14-6.92,7,6.92,14,6.92,7-6.92,14-6.92"/><path class="cls-4" d="M8.22,77.21c7,0,7,6.92,14,6.92s7-6.92,14-6.92,7,6.92,14,6.92,7-6.92,14-6.92,7,6.92,14,6.92,7-6.92,14-6.92"/></g><path class="cls-5" d="M51.72,76.14s-24,1.43-30-14.66S27.77,32.69,39.92,29.3s3.93-15,3.93-15l6.79,3,4.65-1.25,1.43,10.73s17.52,5.9,23.42,18.77S74.78,75.24,51.72,76.14Z"/><path class="cls-6" d="M21.37,56.11c-0.06-.32-0.09-0.64-0.13-1C21.28,55.47,21.31,55.79,21.37,56.11Z"/><path class="cls-6" d="M21.19,54.74q-0.06-.69-0.06-1.39Q21.13,54.06,21.19,54.74Z"/><path class="cls-6" d="M36.53,34.13l0.08-.06Z"/><path class="cls-6" d="M21.67,57.45c-0.08-.3-0.14-0.6-0.2-0.9C21.53,56.85,21.59,57.15,21.67,57.45Z"/><path class="cls-6" d="M38.13,32.85l0.25-.19Z"/><path class="cls-6" d="M22.6,60c-0.13-.29-0.24-0.58-0.36-0.87C22.35,59.47,22.47,59.76,22.6,60Z"/><path class="cls-6" d="M24.77,63.67c-0.2-.27-0.39-0.54-0.58-0.81C24.38,63.14,24.57,63.41,24.77,63.67Z"/><path class="cls-6" d="M23.95,62.51c-0.18-.28-0.35-0.56-0.51-0.84C23.6,61.95,23.77,62.23,23.95,62.51Z"/><path class="cls-6" d="M22.08,58.76c-0.1-.29-0.19-0.59-0.28-0.88C21.89,58.18,22,58.47,22.08,58.76Z"/><path class="cls-6" d="M23.22,61.3c-0.16-.28-0.3-0.57-0.44-0.86C22.93,60.72,23.07,61,23.22,61.3Z"/><path class="cls-6" d="M32.42,69.74L32.75,70Z"/><path class="cls-6" d="M32.32,70.16c0.52,0.3,1,.59,1.59.86C33.36,70.75,32.84,70.46,32.32,70.16Z"/><path class="cls-6" d="M29.47,66.54l0.07,0.09a19.91,19.91,0,0,1-4.22-12.38c0-5.32,2.4-10.84,7-16,0.41-.46.84-0.92,1.28-1.37A30.72,30.72,0,0,0,30.77,39C25.38,43.5,22.3,49.36,22.3,55.06a16.55,16.55,0,0,0,2.52,8.67,25.14,25.14,0,0,0,7.39,6.36A22.39,22.39,0,0,1,29.47,66.54Z"/><path class="cls-6" d="M30.35,67.61l0.28,0.31Z"/><path class="cls-6" d="M31.66,69l-0.34-.34Z"/><path class="cls-6" d="M29.1,55.88c0-.22,0-0.44,0-0.66C29.07,55.44,29.08,55.66,29.1,55.88Z"/><path class="cls-6" d="M29,55.07q0-.41,0-0.82Q29,54.67,29,55.07Z"/><path class="cls-6" d="M41.21,38.18h0c-7,5.35-11.44,12.16-11.44,18.52a16.68,16.68,0,0,0,.38,3.58,15.82,15.82,0,0,1-.67-2.09c1.59,6.52,7,10.68,11.94,13.21A22.87,22.87,0,0,1,36.3,59.94C35.16,52.12,38,44.28,41.21,38.18Z"/><path class="cls-6" d="M29.19,56.66c0-.22-0.05-0.43-0.08-0.65C29.14,56.23,29.16,56.44,29.19,56.66Z"/><path class="cls-6" d="M41.95,36.84v0Z"/><path class="cls-6" d="M42.69,35.57l0,0Z"/><path class="cls-6" d="M29.32,57.42c0-.22-0.08-0.45-0.11-0.68C29.24,57,29.28,57.2,29.32,57.42Z"/><path class="cls-6" d="M43.43,34.36l0-.06Z"/><path class="cls-6" d="M29.48,58.17q-0.08-.35-0.15-0.7Q29.4,57.82,29.48,58.17Z"/><path class="cls-6" d="M40.49,61.84c-0.05-.18-0.1-0.37-0.15-0.55C40.39,61.48,40.44,61.66,40.49,61.84Z"/><path class="cls-6" d="M40.23,60.78c0-.14-0.06-0.28-0.09-0.42C40.16,60.51,40.2,60.64,40.23,60.78Z"/><path class="cls-6" d="M40.43,60.8a19.16,19.16,0,0,0,1.85,5.54c-0.16-.26-0.52-0.53-0.66-0.8A21.63,21.63,0,0,0,48,73.1V35.84C44,41.66,39.06,51.46,40.43,60.8Z"/><path class="cls-6" d="M41.15,63.76q-0.14-.35-0.27-0.7C41,63.29,41.05,63.53,41.15,63.76Z"/><path class="cls-6" d="M42,65.52q-0.2-.39-0.39-0.78Q41.75,65.13,42,65.52Z"/><path class="cls-6" d="M41.53,64.66q-0.17-.37-0.33-0.75C41.31,64.16,41.42,64.41,41.53,64.66Z"/><path class="cls-6" d="M40.8,62.83c-0.07-.21-0.14-0.43-0.21-0.64C40.66,62.4,40.73,62.62,40.8,62.83Z"/><path class="cls-6" d="M53.75,19.11c0-.41.07-0.83,0.14-1.26C53.82,18.28,53.77,18.7,53.75,19.11Z"/><path class="cls-6" d="M45.6,26.44l1.16-.13Z"/><path class="cls-6" d="M53.71,20.29c0-.25,0-0.5,0-0.75C53.72,19.8,53.71,20,53.71,20.29Z"/><path class="cls-6" d="M53.77,21.41q0-.3,0-0.61C53.74,21,53.75,21.21,53.77,21.41Z"/><path class="cls-6" d="M55.43,26.57c0-.13-0.33-0.4-0.36-0.53l0.21,0.41a12.92,12.92,0,0,1-1.45-4.52c0,0.06,0,.12,0,0.17a6.68,6.68,0,0,0-.61.9,2,2,0,0,1-3.44,0,7.22,7.22,0,0,0-1.72-2,14.49,14.49,0,0,1-.24,5.35c0.82-.06,2.51.07,2.52,0.07s0.08,0.17.09-.07C50.44,26.29,55.47,26.57,55.43,26.57Z"/><path class="cls-6" d="M78.58,55.06c0-5.7-3.09-11.56-8.47-16.08a30.73,30.73,0,0,0-2.78-2.08c0.44,0.45.87,0.9,1.28,1.37,4.55,5.14,7,10.66,7,16,0,6.57-3,12.3-8.6,16.77a26,26,0,0,0,9.09-7.29A16.55,16.55,0,0,0,78.58,55.06Z"/><path class="cls-6" d="M62.5,32.66l0.25,0.19Z"/><path class="cls-6" d="M78.42,46.8l0.14,0.37Z"/><path class="cls-6" d="M77.53,44.87v0Z"/><path class="cls-6" d="M76.86,43.69a26.22,26.22,0,0,0-5.58-6.42,31.49,31.49,0,0,0-10.37-5.76,31.49,31.49,0,0,1,10.37,5.76A26.22,26.22,0,0,1,76.86,43.69Z"/><path class="cls-6" d="M79.69,54.74c0-.46.06-0.92,0.06-1.39Q79.75,54.06,79.69,54.74Z"/><path class="cls-6" d="M64.27,34.07l0.07,0.06Z"/><path class="cls-6" d="M76.93,62.51c0.18-.28.35-0.56,0.51-0.84C77.27,61.95,77.11,62.23,76.93,62.51Z"/><path class="cls-6" d="M77.65,61.3c0.16-.29.3-0.58,0.44-0.87C78,60.72,77.81,61,77.65,61.3Z"/><path class="cls-6" d="M79.51,56.11c0.06-.32.09-0.64,0.13-1C79.6,55.47,79.56,55.79,79.51,56.11Z"/><path class="cls-6" d="M76.1,63.67c0.2-.27.39-0.54,0.58-0.81C76.5,63.14,76.31,63.41,76.1,63.67Z"/><path class="cls-6" d="M79.21,57.45c0.08-.3.14-0.6,0.2-0.91C79.35,56.85,79.29,57.15,79.21,57.45Z"/><path class="cls-6" d="M78.8,58.76c0.1-.29.19-0.59,0.28-0.89C79,58.17,78.9,58.47,78.8,58.76Z"/><path class="cls-6" d="M78.64,59.17c-0.11.29-.23,0.59-0.36,0.88C78.41,59.76,78.52,59.46,78.64,59.17Z"/><path class="cls-6" d="M71.24,50C69.5,43.91,64.16,37.75,56.7,33.2h0C64.16,37.75,69.5,43.91,71.24,50Z"/><path class="cls-6" d="M57.43,34.34h0Z"/><path class="cls-6" d="M70.72,60.28a16.69,16.69,0,0,0,.38-3.58c0-6.36-4.39-13.17-11.44-18.52,3.26,6.1,6,13.94,4.91,21.76a22.87,22.87,0,0,1-5.15,11.48c0.6-.3,1.2-0.63,1.8-1,5.87-3.42,9.32-7.77,10.32-13A15.85,15.85,0,0,1,70.72,60.28Z"/><path class="cls-6" d="M71.6,57.17c0-.26.08-0.51,0.12-0.77Q71.66,56.79,71.6,57.17Z"/><path class="cls-6" d="M71.79,55.66q0-.17,0-0.34Q71.8,55.49,71.79,55.66Z"/><path class="cls-6" d="M58.18,35.55h0Z"/><path class="cls-6" d="M60.29,62.19c-0.06.21-.13,0.42-0.2,0.63C60.15,62.6,60.22,62.4,60.29,62.19Z"/><path class="cls-6" d="M59.74,63.74c0.09-.23.18-0.45,0.26-0.68C59.92,63.29,59.83,63.52,59.74,63.74Z"/><path class="cls-6" d="M60,60.8c1.36-9.34-4-19.14-8-25V73.1a19.75,19.75,0,0,0,6.24-6.76A19,19,0,0,0,60,60.8Z"/><path class="cls-6" d="M59.35,64.64c0.11-.24.22-0.48,0.32-0.72Q59.52,64.28,59.35,64.64Z"/><path class="cls-6" d="M60.72,58.48C61.69,48.8,56,38.81,52,33.37h0C56,38.83,61.68,48.82,60.72,58.48Z"/><path class="cls-6" d="M60.9,59.41h0c0-.25.06-0.49,0.09-0.74C61,58.91,60.94,59.16,60.9,59.41Z"/><path class="cls-6" d="M58.93,65.5q0.19-.37.37-0.75Q59.12,65.13,58.93,65.5Z"/><path class="cls-6" d="M60.54,61.29c0,0.18-.1.37-0.15,0.55C60.44,61.65,60.49,61.47,60.54,61.29Z"/><path class="cls-6" d="M60.74,60.36c0,0.14-.06.27-0.09,0.41C60.68,60.63,60.71,60.5,60.74,60.36Z"/><path class="cls-6" d="M58.47,66.33q0.22-.38.42-0.76Q58.69,65.95,58.47,66.33Z"/><path class="cls-7" d="M73.23,34.43a35.28,35.28,0,0,0-12.55-6.74c-1.2-.88-5.78-4.89-2.6-12.73a1.86,1.86,0,0,0-2.16-2.5A13.21,13.21,0,0,0,50,16a13.21,13.21,0,0,0-5.93-3.54A1.86,1.86,0,0,0,41.91,15c3.18,7.85-1.4,11.85-2.6,12.73a35.28,35.28,0,0,0-12.54,6.74C20.55,39.66,17,46.56,17,53.36s3.51,13.18,9.87,17.93A37.54,37.54,0,0,0,45.17,78.2a12.66,12.66,0,0,1-3.82,3.18,1.86,1.86,0,0,0,1.7,3.3,16.59,16.59,0,0,0,5.09-4.27v5.33a1.86,1.86,0,0,0,3.71,0V80.41a16.58,16.58,0,0,0,5.09,4.27,1.86,1.86,0,0,0,1.7-3.3,12.65,12.65,0,0,1-3.82-3.18,37.54,37.54,0,0,0,18.32-6.92C79.52,66.54,83,60.17,83,53.36S79.45,39.66,73.23,34.43ZM35.86,59.94A22.87,22.87,0,0,0,41,71.4c-5.9-3-12.41-8.32-12.41-17.15,0-7.42,6-15.45,15.16-21.05C39.54,39.57,34.38,49.78,35.86,59.94ZM48.14,33.38V73.1c-4.94-3.77-7.83-8.36-8.61-13.69C38.08,49.47,44.16,39,48.14,33.38Zm-19,3.89a31.49,31.49,0,0,1,10.37-5.76,42.52,42.52,0,0,0-7.69,6.76c-4.55,5.14-7,10.66-7,16,0,6.57,3,12.3,8.6,16.77-7.71-3.86-12.78-10.34-12.78-17.66C20.69,47.66,23.77,41.79,29.16,37.27ZM50,26.12h0a37.43,37.43,0,0,0-4.81.31,13.39,13.39,0,0,0,1.39-8.59,7.21,7.21,0,0,1,1.72,2,2,2,0,0,0,3.44,0,7.21,7.21,0,0,1,1.72-2,13.4,13.4,0,0,0,1.39,8.59,37.39,37.39,0,0,0-4.8-.31h0Zm1.85,7.25c4,5.61,10.06,16.07,8.61,26-0.77,5.33-3.67,9.93-8.61,13.7V33.37Zm4.4-.17c9.19,5.6,15.16,13.64,15.16,21.05,0,6.64-3.58,12.09-10.63,16.2-0.6.35-1.2,0.67-1.8,1a22.87,22.87,0,0,0,5.15-11.48C65.62,49.78,60.46,39.57,56.26,33.2ZM66.53,71c5.64-4.47,8.6-10.2,8.6-16.77,0-5.32-2.4-10.84-7-16a42.52,42.52,0,0,0-7.69-6.76,31.49,31.49,0,0,1,10.37,5.76c5.38,4.52,8.47,10.38,8.47,16.08C79.31,60.68,74.24,67.16,66.53,71Z"/></g></g></svg>