<?xml version="1.0" encoding="utf-8"?>
<!-- Generator: Adobe Illustrator 19.2.1, SVG Export Plug-In . SVG Version: 6.00 Build 0)  -->
<svg version="1.1" id="Layer_1" xmlns="http://www.w3.org/2000/svg" xmlns:xlink="http://www.w3.org/1999/xlink" x="0px" y="0px"
	 viewBox="0 0 100 100" style="enable-background:new 0 0 100 100;" xml:space="preserve">
<style type="text/css">
	.st0{fill:#AA7244;}
	.st1{opacity:0.2;}
	.st2{fill:none;stroke:#000000;stroke-width:2.02;stroke-miterlimit:10;}
	.st3{fill:#FFFFFF;}
	.st4{fill:#97BD95;}
	.st5{fill:#B65942;}
	.st6{fill:#A443B5;}
	.st7{fill:#3D3126;}
</style>
<title>auberghine</title>
<g>
	<g id="Objects">
		<rect class="st0" width="100" height="100"/>
		<g class="st1">
			<path class="st2" d="M8.2,16.7c7,0,7,6.9,14,6.9s7-6.9,14-6.9s7,6.9,14,6.9s7-6.9,14-6.9s7,6.9,14,6.9s7-6.9,14-6.9"/>
			<path class="st2" d="M8.2,36.9c7,0,7,6.9,14,6.9s7-6.9,14-6.9s7,6.9,14,6.9s7-6.9,14-6.9s7,6.9,14,6.9s7-6.9,14-6.9"/>
			<path class="st2" d="M8.2,57c7,0,7,6.9,14,6.9s7-6.9,14-6.9s7,6.9,14,6.9s7-6.9,14-6.9s7,6.9,14,6.9s7-6.9,14-6.9"/>
			<path class="st2" d="M8.2,77.2c7,0,7,6.9,14,6.9s7-6.9,14-6.9s7,6.9,14,6.9s7-6.9,14-6.9s7,6.9,14,6.9s7-6.9,14-6.9"/>
		</g>
		<path class="st3" d="M48.4,21c0,0,11.3,1,11.3,9s-7.1,25.2-7.1,25.2l4,21.8l-1.3,10c0,0-18,5.9-22.9-14.1l1.9-15.8l6.5-15.5
			l-0.6-10.9l-0.1-3C40.1,27.7,43.3,21,48.4,21z"/>
		<path class="st4" d="M50.5,19.8v-5.8h-1.1v5.8H50.5z"/>
		<path class="st5" d="M50.7,86c-0.3,0-0.7,0-1.1,0C50,86.1,50.3,86,50.7,86z"/>
		<path class="st6" d="M61.3,48.9c-2.2-5.4-3.5-9.2-2.7-16.9c-1.7-1-3.4-1.8-5.2-2.5l-2.7,3.3c-0.1,0.1-0.3,0.2-0.4,0.1
			c0,0,0,0-0.1,0l-0.3-0.1l-0.8,0.7l0.1-0.7c0,0-0.3,0.5-0.6,0.2l-1.8-2.8l-0.1,0.6c-0.7,0.4-1.8,1-2.6,1.5
			c0.8,7.7-1.3,12.8-3.5,18.2s-4.4,10.8-4.4,19.4c0,9,5.8,16.3,14.2,16.8c8.4-0.5,17-7.1,17-16.1C67.5,61.8,63.5,54.2,61.3,48.9z
			 M47.6,81.9c-0.2,0.8-1,1.3-1.8,1.1c0,0,0,0,0,0c-2-0.6-3.8-1.7-5.3-3.2c-2.2-2.2-4.7-6.4-3.8-13.6c0.2-0.8,0.9-1.3,1.7-1.2
			c0.7,0.1,1.2,0.8,1.2,1.5c-1.5,11.3,6.5,13.5,6.9,13.6C47.3,80.4,47.8,81.2,47.6,81.9z"/>
		<path class="st4" d="M53,23.5l0.2,0.1L53,23.5z"/>
		<path class="st4" d="M53.7,23.8L53.7,23.8L53.7,23.8z"/>
		<path class="st4" d="M52.4,23.2L52.4,23.2L52.4,23.2z"/>
		<path class="st4" d="M54.8,24.6L54.8,24.6L54.8,24.6z"/>
		<path class="st4" d="M56,25.7l-0.1-0.1L56,25.7z"/>
		<path class="st4" d="M54.2,24.1l0.2,0.1L54.2,24.1z"/>
		<path class="st4" d="M55.3,25l0.2,0.1L55.3,25z"/>
		<path class="st4" d="M51.6,23h0.2H51.6z"/>
		<path class="st4" d="M43.1,28.3l0.6-0.3L43.1,28.3z"/>
		<path class="st4" d="M51,22.8L51,22.8z"/>
		<path class="st4" d="M56.1,26.1c-0.4-0.2-0.7-0.4-1-0.6c-3.4-1.7-7.5-0.9-9.9,2.1L44.7,28c0.4-0.1,1.2,0.5,1.5,0
			c0.3-0.4,0.8-0.5,1.2-0.3c0,0,0.1,0,0.1,0.1l2.5,3.4l2-1.7c0.3-0.5,0.7-0.8,1.2-1c1.5,0.1,4.8,0.5,6.5,1.5
			C58.9,28.3,57.7,27,56.1,26.1z"/>
		<path class="st4" d="M44.3,27.8L43.9,28L44.3,27.8z"/>
		<path class="st4" d="M44.9,27.6l-0.4,0.1L44.9,27.6z"/>
		<path class="st4" d="M41.8,29l0.4-0.2L41.8,29z"/>
		<path class="st4" d="M50.2,22.7L50.2,22.7z"/>
		<path class="st4" d="M41.1,29.4l0.6-0.3L41.1,29.4z"/>
		<path class="st4" d="M42.5,28.6l0.5-0.2L42.5,28.6z"/>
		<path class="st7" d="M46.9,80.2c-0.3-0.1-8.4-2.3-6.9-13.6c0.1-0.8-0.6-1.5-1.4-1.6c-0.7-0.1-1.4,0.5-1.5,1.2
			c-1,7.2,1.5,11.4,3.8,13.6c1.5,1.5,3.3,2.6,5.3,3.2c0.8,0.2,1.6-0.3,1.8-1.1C48.1,81.1,47.7,80.4,46.9,80.2z"/>
		<path class="st7" d="M63.8,49.3c-2-4.9-3.8-9.3-3.4-15.5c0.8,0.1,1.5-0.5,1.6-1.3c0-0.1,0-0.1,0-0.2c0-3.2-1.3-6.4-3.5-8.8
			c-1.4-1.5-3.1-2.6-5-3.3v-7.9c0-0.8-0.6-1.5-1.5-1.5c0,0-0.1,0-0.1,0h-4c-0.8,0-1.5,0.7-1.5,1.5v0v7.9c-1.9,0.7-3.6,1.8-5,3.3
			C39.3,26,38,29.1,38,32.4c0,0.8,0.6,1.5,1.5,1.5c0.1,0,0.1,0,0.2,0c0.4,6.2-1.4,10.5-3.4,15.5c-2.2,5.3-4.6,11.3-4.6,20.6
			C31.5,75,33.4,80,37,83.7c3.4,3.4,8.1,5.4,13,5.3l0,0c4.9,0,9.6-1.9,13-5.3c3.6-3.7,5.5-8.7,5.4-13.8C68.4,60.6,66,54.6,63.8,49.3
			z M50,86.1L50,86.1c-9,0-15.5-6.8-15.5-16.2c0-8.7,2.2-14.2,4.4-19.4s4.3-10.5,3.5-18.2c1.2-0.8,2.5-1.4,3.8-1.9l2.7,3
			c0.3,0.3,0.7,0.5,1.1,0.5l0,0c0.4,0,0.8-0.2,1.1-0.5l2.7-3c1.3,0.5,2.6,1.1,3.8,1.9c-0.8,7.7,1.3,12.8,3.5,18.2s4.4,10.8,4.4,19.4
			C65.5,79.2,59,86.1,50,86.1L50,86.1L50,86.1z M50,22.7c3.8,0,7.3,2.9,8.5,6.7c-1.6-1-3.4-1.8-5.2-2.1c-0.5,0-0.9,0.1-1.2,0.5
			L50,30.2l-2.1-2.4c-0.3-0.3-0.8-0.5-1.2-0.5c-1.9,0.4-3.6,1.1-5.2,2.1C42.7,25.6,46.2,22.7,50,22.7z M49.5,13.9h1.1v5.8h-1.1
			C49.5,19.8,49.5,13.9,49.5,13.9z"/>
	</g>
</g>
</svg>
