<svg xmlns="http://www.w3.org/2000/svg" viewBox="0 0 100 100"><defs><style>.cls-1{isolation:isolate;}.cls-2{fill:#aa7244;}.cls-3{opacity:0.2;mix-blend-mode:soft-light;}.cls-4{fill:none;stroke:#000;stroke-miterlimit:10;stroke-width:2.02px;}.cls-5{fill:#fff;}.cls-6{fill:#97bd95;}.cls-7{fill:#b65942;}.cls-8{fill:#a443b5;}.cls-9{fill:#3d3126;}</style></defs><title>auberghine</title><g class="cls-1"><g id="Objects"><rect class="cls-2" width="100" height="100"/><g class="cls-3"><path class="cls-4" d="M8.22,16.71c7,0,7,6.92,14,6.92s7-6.92,14-6.92,7,6.92,14,6.92,7-6.92,14-6.92,7,6.92,14,6.92,7-6.92,14-6.92"/><path class="cls-4" d="M8.22,36.87c7,0,7,6.92,14,6.92s7-6.92,14-6.92,7,6.92,14,6.92,7-6.92,14-6.92,7,6.92,14,6.92,7-6.92,14-6.92"/><path class="cls-4" d="M8.22,57c7,0,7,6.92,14,6.92s7-6.92,14-6.92,7,6.92,14,6.92,7-6.92,14-6.92,7,6.92,14,6.92,7-6.92,14-6.92"/><path class="cls-4" d="M8.22,77.21c7,0,7,6.92,14,6.92s7-6.92,14-6.92,7,6.92,14,6.92,7-6.92,14-6.92,7,6.92,14,6.92,7-6.92,14-6.92"/></g><path class="cls-5" d="M48.38,21s11.31,1,11.31,9-7.1,25.22-7.1,25.22L56.64,77l-1.3,10s-18,5.94-22.9-14.06l1.88-15.8,6.52-15.51L40.27,30.72l-0.14-3S43.31,21,48.38,21Z"/><path class="cls-6" d="M50.55,19.79V13.95h-1.1v5.84h1.1Z"/><path class="cls-7" d="M50.69,86c-0.35,0-.7,0-1.06,0C50,86.05,50.34,86,50.69,86Z"/><path class="cls-8" d="M61.32,48.87c-2.23-5.42-3.52-9.2-2.71-16.86a35.28,35.28,0,0,0-5.23-2.55l-2.74,3.31a0.31,0.31,0,0,1-.48.08l-0.32-.08-0.76.68,0.12-.68s-0.31.49-.6,0.16l-1.76-2.76-0.06.6c-0.71.35-1.85,1-2.58,1.46C45,39.89,42.9,45,40.67,50.44s-4.42,10.75-4.42,19.44c0,9,5.82,16.26,14.25,16.77,8.42-.51,17-7.12,17-16.12C67.51,61.85,63.49,54.15,61.32,48.87ZM47.58,81.93A1.46,1.46,0,0,1,45.81,83a12.47,12.47,0,0,1-5.29-3.18c-2.24-2.24-4.71-6.42-3.76-13.64a1.47,1.47,0,0,1,2.91.38c-1.49,11.3,6.52,13.51,6.86,13.6A1.47,1.47,0,0,1,47.58,81.93Z"/><path class="cls-6" d="M53,23.46l0.16,0.08Z"/><path class="cls-6" d="M53.66,23.81l0.08,0.05Z"/><path class="cls-6" d="M52.38,23.21l0.05,0Z"/><path class="cls-6" d="M54.84,24.61l0.1,0.09Z"/><path class="cls-6" d="M56,25.71l-0.1-.12Z"/><path class="cls-6" d="M54.19,24.15l0.16,0.11Z"/><path class="cls-6" d="M55.32,25l0.16,0.15Z"/><path class="cls-6" d="M51.64,23l0.16,0Z"/><path class="cls-6" d="M43.08,28.33l0.58-.27Z"/><path class="cls-6" d="M51,22.84h0Z"/><path class="cls-6" d="M56.11,26.06c-0.36-.23-0.71-0.44-1-0.62a8.09,8.09,0,0,0-9.94,2.08L44.73,28c0.42-.12,1.24.51,1.47,0a0.89,0.89,0,0,1,1.31-.21L50,31.2l2-1.74a2.07,2.07,0,0,1,1.2-1C54.69,28.6,58,29,59.69,30A8.67,8.67,0,0,0,56.11,26.06Z"/><path class="cls-6" d="M44.27,27.82L43.89,28Z"/><path class="cls-6" d="M44.91,27.59l-0.4.13Z"/><path class="cls-6" d="M41.83,29l0.42-.23Z"/><path class="cls-6" d="M50.25,22.74h0Z"/><path class="cls-6" d="M41.07,29.4l0.57-.33Z"/><path class="cls-6" d="M42.46,28.64l0.47-.24Z"/><path class="cls-9" d="M46.91,80.15c-0.34-.09-8.35-2.3-6.86-13.6a1.47,1.47,0,0,0-2.91-.38c-1,7.22,1.52,11.4,3.76,13.64A12.47,12.47,0,0,0,46.19,83,1.47,1.47,0,0,0,46.91,80.15Z"/><path class="cls-9" d="M63.79,49.32c-2-4.93-3.81-9.26-3.44-15.45A1.46,1.46,0,0,0,62,32.41a13.12,13.12,0,0,0-3.46-8.76,12,12,0,0,0-5-3.31V12.48A1.47,1.47,0,0,0,52,11H48a1.47,1.47,0,0,0-1.47,1.47v7.86a12,12,0,0,0-5,3.31A13.12,13.12,0,0,0,38,32.41a1.46,1.46,0,0,0,1.61,1.46C40,40.07,38.24,44.4,36.21,49.32,34,54.62,31.56,60.61,31.56,69.89A19.36,19.36,0,0,0,37,83.68,18.17,18.17,0,0,0,50,89h0a18.17,18.17,0,0,0,13-5.3,19.36,19.36,0,0,0,5.39-13.8C68.44,60.61,66,54.62,63.79,49.32ZM50,86.06h0c-9,0-15.49-6.8-15.49-16.17,0-8.69,2.25-14.16,4.43-19.44s4.34-10.55,3.54-18.21a19.2,19.2,0,0,1,3.79-1.87l2.65,3a1.46,1.46,0,0,0,1.1.5h0a1.37,1.37,0,0,0,1.1-.5l2.65-3a18.77,18.77,0,0,1,3.79,1.87C56.74,39.89,58.85,45,61.08,50.44s4.43,10.75,4.43,19.44C65.51,79.25,59,86.05,50,86.05h0Zm0-63.35c3.84,0,7.3,2.9,8.54,6.7a14.43,14.43,0,0,0-5.22-2.11,1.46,1.46,0,0,0-1.22.5L50,30.19l-2.1-2.4a1.47,1.47,0,0,0-1.22-.5,14.42,14.42,0,0,0-5.22,2.11C42.7,25.6,46.16,22.71,50,22.71Zm-0.55-8.76h1.1v5.84h-1.1V13.95Z"/></g></g></svg>