<svg xmlns="http://www.w3.org/2000/svg" viewBox="0 0 100 100"><defs><style>.cls-1{isolation:isolate;}.cls-2{fill:#aa7244;}.cls-3{opacity:0.2;mix-blend-mode:soft-light;}.cls-4{fill:none;stroke:#000;stroke-miterlimit:10;stroke-width:2.02px;}.cls-5{fill:#fff;}.cls-6{fill:#3d3126;}.cls-7{fill:#97bd95;}</style></defs><title>groenten</title><g class="cls-1"><g id="Objects"><rect class="cls-2" width="100" height="100"/><g class="cls-3"><path class="cls-4" d="M8.22,16.71c7,0,7,6.92,14,6.92s7-6.92,14-6.92,7,6.92,14,6.92,7-6.92,14-6.92,7,6.92,14,6.92,7-6.92,14-6.92"/><path class="cls-4" d="M8.22,36.87c7,0,7,6.92,14,6.92s7-6.92,14-6.92,7,6.92,14,6.92,7-6.92,14-6.92,7,6.92,14,6.92,7-6.92,14-6.92"/><path class="cls-4" d="M8.22,57c7,0,7,6.92,14,6.92s7-6.92,14-6.92,7,6.92,14,6.92,7-6.92,14-6.92,7,6.92,14,6.92,7-6.92,14-6.92"/><path class="cls-4" d="M8.22,77.21c7,0,7,6.92,14,6.92s7-6.92,14-6.92,7,6.92,14,6.92,7-6.92,14-6.92,7,6.92,14,6.92,7-6.92,14-6.92"/></g><path class="cls-5" d="M20.5,56.29s-6-6.32-4.37-12.79,8.58-8.42,8.58-8.42l3.08-3.24,3.08-2.92L34.59,27l1.78-4.37,3.89-.32,2.43-1.78,1.94-3.24,5.67-.81s4-1,5.18,4.21-14.41,22-14.41,22Z"/><path class="cls-6" d="M47.41,42a1.54,1.54,0,0,0-1.54,1.54v6.79a10.72,10.72,0,0,0-1.65.38,10.59,10.59,0,0,0-4.72,3,19.27,19.27,0,0,0-4.26-3.36,1.54,1.54,0,0,0-1.4,2.74c0.06,0,6.13,3.3,12.2,15.32a1.54,1.54,0,0,0,2.91-.69V43.5A1.54,1.54,0,0,0,47.41,42ZM45.14,53.61c0.24-.08.48-0.13,0.73-0.19v8.41A48.82,48.82,0,0,0,41.6,56,7.52,7.52,0,0,1,45.14,53.61Z"/><path class="cls-7" d="M20.37,53.47l0.17,0.17Z"/><path class="cls-7" d="M17.69,48.54l-0.05-.25Z"/><path class="cls-7" d="M17.49,47.23c0-.07,0-0.14,0-0.21S17.48,47.16,17.49,47.23Z"/><path class="cls-7" d="M50.19,18a5.58,5.58,0,0,1,.61.21A5.6,5.6,0,0,0,50.19,18Z"/><path class="cls-7" d="M17.57,47.91c0-.08,0-0.16,0-0.24C17.54,47.75,17.56,47.83,17.57,47.91Z"/><path class="cls-7" d="M49.51,17.9a5.56,5.56,0,0,1,.65.13A5.58,5.58,0,0,0,49.51,17.9Z"/><path class="cls-7" d="M53.11,20a5.62,5.62,0,0,0-1-1A5.62,5.62,0,0,1,53.11,20Z"/><path class="cls-7" d="M53.14,20a5.6,5.6,0,0,1,.4.59A5.56,5.56,0,0,0,53.14,20Z"/><path class="cls-7" d="M51.52,18.61a5.61,5.61,0,0,1,.55.37A5.63,5.63,0,0,0,51.52,18.61Z"/><path class="cls-7" d="M50.91,18.3a5.61,5.61,0,0,1,.6.3A5.62,5.62,0,0,0,50.91,18.3Z"/><path class="cls-7" d="M48.68,17.84a5.58,5.58,0,0,1,.67,0A5.6,5.6,0,0,0,48.68,17.84Z"/><path class="cls-7" d="M21.51,54.47h0Z"/><path class="cls-7" d="M19.69,52.71l-0.16-.2Z"/><path class="cls-7" d="M20.1,53.19L19.93,53Z"/><path class="cls-7" d="M80.46,51.59a1.54,1.54,0,0,1,0-2.38,5.6,5.6,0,0,0-3.53-10,5.64,5.64,0,0,0-1,.09,1.54,1.54,0,0,1-1.81-1.55V37.72a2.54,2.54,0,0,0-2.54-2.54,2.51,2.51,0,0,0-1.19.3,1.54,1.54,0,0,1-2.25-1.57,9.56,9.56,0,0,0,.09-1.29,9.45,9.45,0,0,0-12.14-9.06,1.54,1.54,0,0,1-1.95-1.19,5.55,5.55,0,0,0-.65-1.73,5.6,5.6,0,0,0-8.35,4.15A1.54,1.54,0,0,1,43.06,26a3.7,3.7,0,0,0-5.12,3.42c0,0.08,0,.18,0,0.3a1.54,1.54,0,0,1-.42,1.17,1.51,1.51,0,0,1-1.15.48H36.35a7.49,7.49,0,0,0-7.29,5.93,1.54,1.54,0,0,1-1.24,1.2,10.08,10.08,0,0,0-6.31,16,10.13,10.13,0,0,0,1.14.74,1.54,1.54,0,0,1,.79,1.22,5.6,5.6,0,0,0,9,4,34,34,0,0,0-2.74-2.23,1.54,1.54,0,0,1,1.82-2.49,35.83,35.83,0,0,1,13,18.6A29.42,29.42,0,0,1,46,83H56.31c2.57-18,13.49-21.91,14-22.08a1.45,1.45,0,0,1,2,.74,1.43,1.43,0,0,1-.94,1.85,8.08,8.08,0,0,0-1.78.89,4.44,4.44,0,0,0,2.68.8,5.12,5.12,0,0,0,4.73-7,1.54,1.54,0,0,1,1.61-2.11l0.3,0A2.54,2.54,0,0,0,80.46,51.59ZM49,67.71a1.56,1.56,0,0,1-1.21,1.5,1.66,1.66,0,0,1-.37,0A1.55,1.55,0,0,1,46,68.41C40,56.39,33.9,53.12,33.84,53.09a1.54,1.54,0,0,1,1.4-2.74,19.27,19.27,0,0,1,4.26,3.36,10.8,10.8,0,0,1,4.79-3A5.44,5.44,0,0,1,46,50.29V43.5a1.5,1.5,0,1,1,3,0V67.71Zm17.66-9.5a28.53,28.53,0,0,0-11.49,14.5,1.54,1.54,0,0,1-1.48,1.11l-0.39,0c-0.76-.11-0.62-1-0.62-1.81L52.59,48.65c0-.85.37-1.78,1.22-1.78s0.78,1,.78,1.84l0,4.16c2,0.25,6.75,2.24,8.56,4.75,0.65-.48,1.32-1.57,2-2a1.46,1.46,0,0,1,2.05.49A1.56,1.56,0,0,1,66.66,58.21Z"/><path class="cls-7" d="M19.3,52.2L19.16,52Z"/><path class="cls-7" d="M21,54.07l-0.16-.14Z"/><path class="cls-7" d="M18.27,50.35l-0.08-.19Z"/><path class="cls-7" d="M18.94,51.64l-0.1-.17Z"/><path class="cls-7" d="M18,49.77L18,49.54Z"/><path class="cls-7" d="M17.85,49.16l-0.07-.24Z"/><path class="cls-7" d="M18.53,50.92h0Z"/><path class="cls-6" d="M85.63,44.86A8.69,8.69,0,0,0,77,36.18a5.63,5.63,0,0,0-5.41-4.08H71.34A12.53,12.53,0,0,0,56.76,20.26a8.68,8.68,0,0,0-16.3.4,6.79,6.79,0,0,0-7.57,5.69,10.6,10.6,0,0,0-8.65,7.29A13.16,13.16,0,0,0,20.48,57.5a8.68,8.68,0,0,0,14.18,5.07,31.53,31.53,0,0,1,6.86,12.07,29.82,29.82,0,0,1,1.43,9,1.54,1.54,0,0,0,1.54,1.61H57.66a1.54,1.54,0,0,0,1.53-1.36C60,77,62.35,71.26,66,67.32c0.34-.37.68-0.7,1-1a7.81,7.81,0,0,0,5.2,2A8.18,8.18,0,0,0,80.3,59a5.62,5.62,0,0,0,3.25-8.48A8.64,8.64,0,0,0,85.63,44.86Zm-5.17,6.73a2.54,2.54,0,0,1-1.62,4.5l-0.3,0a1.54,1.54,0,0,0-1.61,2.1,5.1,5.1,0,0,1-4.73,7,4.49,4.49,0,0,1-2.68-.83,10.54,10.54,0,0,1,1.78-.94,1.54,1.54,0,0,0-1-2.91c-0.48.17-11.39,4.17-14,21.66H46a35.41,35.41,0,0,0-14.47-26.5,1.54,1.54,0,0,0-1.82,2.49,34,34,0,0,1,2.74,2.23,5.6,5.6,0,0,1-9-4,1.54,1.54,0,0,0-.79-1.22,10.08,10.08,0,0,1,3.11-18.75A1.54,1.54,0,0,0,27,35.26a7.49,7.49,0,0,1,7.29-5.93h0.05a1.51,1.51,0,0,0,1.15-.48,1.54,1.54,0,0,0,.42-1.17c0-.12,0-0.21,0-0.3A3.7,3.7,0,0,1,41,24a1.54,1.54,0,0,0,2.12-1.23,5.6,5.6,0,0,1,11.05-.36,1.54,1.54,0,0,0,1.95,1.19,9.44,9.44,0,0,1,12,10.35,1.54,1.54,0,0,0,2.25,1.57,2.51,2.51,0,0,1,1.19-.3,2.54,2.54,0,0,1,2.54,2.54V37.8A1.54,1.54,0,0,0,76,39.35a5.6,5.6,0,0,1,4.51,9.86A1.54,1.54,0,0,0,80.46,51.59Z"/><path class="cls-6" d="M65,55.61c-0.72.45-1.39,0.92-2,1.4a10.56,10.56,0,0,0-7.75-4.35V48.41a1.54,1.54,0,1,0-3.08,0V72.28a1.54,1.54,0,0,0,1.32,1.52l0.22,0a1.54,1.54,0,0,0,1.48-1.11,28.53,28.53,0,0,1,11.49-14.5A1.54,1.54,0,0,0,65,55.61Zm-9.79,9.88V55.75A7.5,7.5,0,0,1,60.6,59,31.74,31.74,0,0,0,55.23,65.48Z"/></g></g></svg>