<?xml version="1.0" encoding="utf-8"?>
<!-- Generator: Adobe Illustrator 19.2.1, SVG Export Plug-In . SVG Version: 6.00 Build 0)  -->
<svg version="1.1" id="Layer_1" xmlns="http://www.w3.org/2000/svg" xmlns:xlink="http://www.w3.org/1999/xlink" x="0px" y="0px"
	 viewBox="0 0 100 100" style="enable-background:new 0 0 100 100;" xml:space="preserve">
<style type="text/css">
	.st0{fill:#AA7244;}
	.st1{opacity:0.2;}
	.st2{fill:none;stroke:#000000;stroke-width:2.02;stroke-miterlimit:10;}
	.st3{fill:#FFFFFF;}
	.st4{fill:#97BD95;}
	.st5{fill:#B65942;}
	.st6{fill:#EDE8BC;}
	.st7{fill:#3D3126;}
</style>
<title>groenten</title>
<g>
	<g id="Objects">
		<rect class="st0" width="100" height="100"/>
		<g class="st1">
			<path class="st2" d="M7.9,16.7c7,0,7,6.9,14,6.9s7-6.9,14-6.9s7,6.9,14,6.9s7-6.9,14-6.9s7,6.9,14,6.9s7-6.9,14-6.9"/>
			<path class="st2" d="M7.9,36.9c7,0,7,6.9,14,6.9s7-6.9,14-6.9s7,6.9,14,6.9s7-6.9,14-6.9s7,6.9,14,6.9s7-6.9,14-6.9"/>
			<path class="st2" d="M7.9,57c7,0,7,6.9,14,6.9S29,57,36,57s7,7,14,7s7-7,14-7s7,7,14,7s7-6.9,14-6.9"/>
			<path class="st2" d="M7.9,77.2c7,0,7,6.9,14,6.9s7-6.9,14-6.9s7,6.9,14,6.9s7-6.9,14-6.9s7,6.9,14,6.9s7-6.9,14-6.9"/>
		</g>
		<path class="st3" d="M49.7,84.2c0,0-18.5-19.4-14.7-27.8s14.1-9,14.1-9L49.5,36l-3.2,1.9L44.4,38h-2.7l-3-6.7c0,0-5.9,0.6-6.6-4.7
			s-0.4-4.6-2-6.4s-2.3-8.1,3.8-8.2s11.9,9.4,11.9,9.4l4.6,10.7c0,0,1.3-12.4,8.8-16.9s11.5-3.5,11.9,1s-3.7,6.3-3.7,6.3
			s1.7,5.3-2.3,8.2l-4,2.9c0,0-2.1,6.6-10.6,3.2L50.4,46l11.5,5.8L50.2,62.4L49.7,84.2z"/>
		<path class="st4" d="M31.3,19.8l-0.1-0.1L31.3,19.8z"/>
		<path class="st4" d="M31.9,20.1L31.7,20L31.9,20.1z"/>
		<path class="st4" d="M34.5,28.2l0.1,0.1L34.5,28.2z"/>
		<path class="st4" d="M35,23L35,23L35,23z"/>
		<path class="st4" d="M35.2,22.4L35.2,22.4z"/>
		<path class="st4" d="M34.9,28.6L34.9,28.6L34.9,28.6z"/>
		<path class="st4" d="M35.1,22.7L35.1,22.7z"/>
		<path class="st4" d="M39.9,16.9l0.3,0.3L39.9,16.9z"/>
		<path class="st4" d="M30.5,18.9L30.5,18.9z"/>
		<path class="st4" d="M39.2,16.3l0.3,0.2L39.2,16.3z"/>
		<path class="st4" d="M30.8,19.3l0.1,0.1L30.8,19.3z"/>
		<path class="st4" d="M30.2,18.4l-0.1-0.1L30.2,18.4z"/>
		<path class="st4" d="M41,17.9l-0.3-0.3L41,17.9z"/>
		<path class="st4" d="M41.8,35.2l0.1,0.1L41.8,35.2z"/>
		<path class="st4" d="M41.5,34.7L41.5,34.7L41.5,34.7z"/>
		<path class="st4" d="M42.3,35.7L42.3,35.7L42.3,35.7z"/>
		<path class="st4" d="M41.2,34.2l0.1,0.1L41.2,34.2z"/>
		<path class="st4" d="M42.9,36h-0.1H42.9z"/>
		<path class="st4" d="M48.1,32.2c-1.5-6.1-3.9-10.9-7-14.1c-0.3-0.3-0.7-0.5-1-0.8c-1.7-1.3-3.8-2-5.9-2.3c-1.9,0.5-3,2.4-2.6,4.2
			c0.1,0.4,0.2,0.7,0.4,1c0.5,0.2,1.1,0.4,1.6,0.4c0.9,0,1.6,0.7,1.6,1.5c0.9,0,1.6,0.7,1.6,1.6c0,0.4-0.2,0.9-0.5,1.2
			c-0.9,0.9-1.3,2.1-1,3.4c0.1,0.4,0.2,0.7,0.4,1c0.5,0.2,1,0.4,1.5,0.4c0.2,0,0.5-0.1,0.7-0.2c0.4-0.1,0.8-0.2,1.2-0.4
			c0.7-0.5,1.7-0.3,2.2,0.5c0.2,0.2,0.2,0.5,0.3,0.8l0,0c0.9,0,1.6,0.7,1.6,1.6c0,0.3-0.1,0.5-0.2,0.8c-0.4,0.8-0.6,1.7-0.4,2.5
			c0.1,0.3,0.2,0.7,0.4,1c0.5,0.2,1,0.4,1.5,0.4c0.3,0,0.5,0,0.8-0.1c1-0.2,1.8-0.8,2.4-1.7C48.2,34,48.3,33.1,48.1,32.2z"/>
		<path class="st4" d="M41.6,30.4L41.6,30.4z"/>
		<path class="st4" d="M34.2,27.8L34.2,27.8L34.2,27.8z"/>
		<path class="st4" d="M35.6,29.1L35.4,29L35.6,29.1z"/>
		<path class="st4" d="M41.5,30.9c0,0.1-0.1,0.2-0.1,0.2C41.5,31,41.5,31,41.5,30.9z"/>
		<path class="st4" d="M33.9,27.3l-0.1-0.1L33.9,27.3z"/>
		<path class="st4" d="M41.6,30.7L41.6,30.7L41.6,30.7z"/>
		<path class="st4" d="M59,17.6l-0.3,0.4L59,17.6z"/>
		<path class="st4" d="M59.4,17.2l0.3-0.3L59.4,17.2z"/>
		<path class="st4" d="M61.2,15.5c1.7-1.3,3.7-2.2,5.9-2.5l0,0C64.9,13.4,62.9,14.2,61.2,15.5l-0.1,0.1L61.2,15.5z"/>
		<path class="st4" d="M56.9,36h-0.1H56.9z"/>
		<path class="st4" d="M58.4,34.3v-0.1V34.3z"/>
		<path class="st4" d="M57.4,35.6L57.4,35.6L57.4,35.6z"/>
		<path class="st4" d="M57.7,35.3L57.7,35.3L57.7,35.3z"/>
		<path class="st4" d="M68.8,14.5L68.8,14.5L68.8,14.5z"/>
		<path class="st4" d="M69.2,15L69.2,15L69.2,15z"/>
		<path class="st4" d="M69.4,15.4l0.1,0.2L69.4,15.4z"/>
		<path class="st4" d="M69.8,17c0-0.4-0.1-0.9-0.2-1.3C69.7,16.1,69.8,16.6,69.8,17z"/>
		<path class="st4" d="M68.2,14L68.2,14L68.2,14z"/>
		<path class="st4" d="M69.3,15.1l0.1,0.2L69.3,15.1z"/>
		<path class="st4" d="M67.7,13.7L67.7,13.7L67.7,13.7z"/>
		<path class="st4" d="M58.1,34.8L58.1,34.8z"/>
		<path class="st4" d="M60.2,16.5l0.3-0.2L60.2,16.5z"/>
		<path class="st4" d="M68.5,19.7l-0.3,0.2L68.5,19.7z"/>
		<path class="st4" d="M67.8,20.2L68,20L67.8,20.2z"/>
		<path class="st4" d="M68.1,19.2c0.4-1.9-0.8-3.7-2.6-4.2c-2.1,0.2-4.2,1-5.9,2.3c-0.3,0.2-0.7,0.5-1,0.8c-3.1,3.3-5.5,8.1-7,14.1
			c-0.2,0.9-0.1,1.8,0.4,2.5c0.5,0.9,1.4,1.5,2.4,1.7c0.2,0.1,0.5,0.1,0.8,0.1c0.5,0,1.1-0.1,1.5-0.4c0.2-0.3,0.3-0.6,0.4-1
			c0.2-0.9,0-1.7-0.4-2.5c-0.4-0.8-0.1-1.8,0.6-2.2c0.2-0.1,0.5-0.2,0.7-0.2l0,0c0.1-0.9,0.8-1.6,1.7-1.5c0.3,0,0.5,0.1,0.8,0.3
			c0.6,0.4,1.2,0.6,1.9,0.6c0.5,0,1.1-0.1,1.5-0.4c0.8-1.4,0.5-3.2-0.7-4.3c-0.6-0.6-0.6-1.6,0-2.3c0.3-0.3,0.7-0.5,1.2-0.5
			c0-0.9,0.8-1.5,1.6-1.5c0.6,0,1.1-0.1,1.6-0.4C67.9,19.9,68,19.6,68.1,19.2z"/>
		<path class="st4" d="M65.5,27.8L65.5,27.8z"/>
		<path class="st4" d="M69.2,18.9L69.2,18.9L69.2,18.9z"/>
		<path class="st4" d="M65.7,27.3v-0.1V27.3z"/>
		<path class="st4" d="M69.5,18.4l0.1-0.1L69.5,18.4z"/>
		<path class="st4" d="M68.8,19.4l0.2-0.2L68.8,19.4z"/>
		<path class="st4" d="M58.2,31l-0.1-0.1L58.2,31z"/>
		<path class="st4" d="M64.7,28.7L64.7,28.7L64.7,28.7z"/>
		<path class="st4" d="M58.1,30.7L58.1,30.7L58.1,30.7z"/>
		<path class="st4" d="M65.1,28.4l0.1-0.1L65.1,28.4z"/>
		<path class="st4" d="M64.2,29l-0.1,0.1L64.2,29z"/>
		<path class="st4" d="M64.7,23.1L64.7,23.1L64.7,23.1z"/>
		<path class="st5" d="M50.9,48.7c-0.3,0-0.7,0-1,0C50.2,48.7,50.5,48.7,50.9,48.7z"/>
		<path class="st5" d="M51.1,48.7l1,0.1L51.1,48.7z"/>
		<path class="st5" d="M53.2,49l-0.9-0.2L53.2,49z"/>
		<path class="st6" d="M57.3,50.5c0.3,0.2,0.6,0.3,0.8,0.5c-2-0.7-4-1-6.1-0.9c-5.2,0-9.8,2-12.1,6h3.3c0.8,0,1.5,0.7,1.5,1.5
			S44,59,43.2,59h-4.7c-0.2,0-0.2,2.3-0.2,2.7c0,1,0.4,1.3,0.7,3.3h5.9c0.9,0,1.6,0.1,1.6,1s-0.7,1-1.6,1H39h1.5l2.9,5h4.3
			c0.8,0,1.5,0.7,1.5,1.5S48.5,75,47.7,75h-2.2l4.4,7l12-16.7l0,0l0,0c1.1-1.6,1.7-3.5,1.7-5.4C63.6,55.9,61.1,52.5,57.3,50.5z"/>
		<path class="st5" d="M55.3,49.6c-0.3-0.1-0.6-0.2-0.9-0.3C54.7,49.4,55,49.5,55.3,49.6z"/>
		<path class="st5" d="M56.2,50c-0.3-0.1-0.6-0.2-0.9-0.3C55.7,49.7,56,49.9,56.2,50z"/>
		<path class="st5" d="M54.2,49.2c-0.3-0.1-0.6-0.2-1-0.2C53.5,49.1,53.9,49.2,54.2,49.2z"/>
		<path class="st5" d="M57.2,50.4c-0.3-0.1-0.6-0.3-0.9-0.4C56.6,50.1,56.9,50.3,57.2,50.4z"/>
		<path class="st7" d="M72.1,13.6c-1-1.5-2.5-2.6-4.3-3c-0.1,0-0.2,0-0.3,0c-0.5,0-11.5,0.2-17.4,16.5
			c-5.9-16.3-16.9-16.5-17.4-16.5c-0.1,0-0.2,0-0.3,0c-3.7,0.8-6,4.4-5.3,8.1c0.5,2.2,2,4.1,4.1,4.9c-1.5,3.5,0.2,7.5,3.7,8.9
			c0.8,0.3,1.7,0.5,2.6,0.5h0.5c-0.1,3.8,2.9,6.9,6.7,7c0.5,0,1.1,0,1.6-0.2c0.8-0.2,1.5-0.5,2.2-0.9v6.9C39.8,46.6,33,52.8,33,60.2
			c0,2.6,0.8,5.1,2.3,7.3l0,0l0,0l13,18.2v2c0,0.9,0.7,1.6,1.6,1.6s1.6-0.7,1.6-1.6v-2l13-18.2l0,0l0,0c1.5-2.1,2.4-4.6,2.5-7.3
			c0-7.5-6.8-13.6-15.4-14.3V39c3.2,2,7.4,1.1,9.4-2.1c0.4-0.7,0.7-1.4,0.9-2.2c0.1-0.5,0.2-1,0.2-1.6h0.5c3.8,0,6.8-3.1,6.8-6.8
			c0-0.9-0.2-1.8-0.5-2.6c2.1-0.8,3.6-2.7,4.1-4.9C73.4,17,73,15.2,72.1,13.6z M66.2,21c-0.9,0-1.6,0.7-1.6,1.6
			c0,0.4,0.2,0.9,0.5,1.2c1.4,1.4,1.5,3.7,0.1,5.1c-1.2,1.2-3.1,1.4-4.5,0.5c-0.8-0.5-1.7-0.2-2.2,0.5c-0.3,0.5-0.3,1.1,0,1.6
			c1,1.7,0.3,3.9-1.4,4.9c-0.8,0.4-1.7,0.6-2.5,0.4c-1-0.2-1.8-0.8-2.4-1.7c-0.5-0.8-0.6-1.7-0.4-2.6c1.9-7.7,5.3-13.4,9.7-16.4
			c1.7-1.3,3.8-2.1,5.9-2.3c1.9,0.5,3.1,2.5,2.6,4.4C69.4,19.9,67.9,21.1,66.2,21z M62.1,65.7L62.1,65.7L62.1,65.7L50,82.5l-5-7h2.8
			c0.9,0,1.6-0.7,1.6-1.6s-0.7-1.6-1.6-1.6l0,0h-5.1l-3.5-4.9h5.8c0.9,0,1.6-0.7,1.6-1.6s-0.7-1.6-1.6-1.6l0,0h-7.9
			c-0.6-1.2-0.9-2.5-0.9-3.9c0-0.4,0-0.7,0.1-1.1h7.1c0.9,0,1.6-0.7,1.6-1.6s-0.7-1.6-1.6-1.6h-6.1c2.1-4,7-6.9,12.8-6.9
			c7.6,0,13.8,5,13.8,11.2C63.8,62.1,63.2,64.1,62.1,65.7z M44.8,36.9c-2,0-3.6-1.6-3.6-3.6c0-0.6,0.2-1.2,0.5-1.7
			c0.4-0.8,0.1-1.8-0.6-2.2c-0.5-0.3-1.1-0.3-1.6,0c-0.4,0.2-0.8,0.4-1.2,0.5c-1.9,0.4-3.9-0.8-4.3-2.8c0,0,0,0,0,0
			c-0.3-1.2,0.1-2.5,1-3.4c0.6-0.6,0.6-1.7-0.1-2.3c-0.3-0.3-0.7-0.4-1.1-0.4c-2,0-3.6-1.6-3.7-3.6c0-1.6,1.1-3.1,2.7-3.5
			c2.1,0.2,4.2,1,5.9,2.3c4.4,3,7.7,8.7,9.7,16.4c0.2,0.9,0.1,1.8-0.4,2.6c-0.5,0.8-1.4,1.4-2.4,1.7C45.3,36.9,45,36.9,44.8,36.9z"
			/>
	</g>
</g>
</svg>
