<svg xmlns="http://www.w3.org/2000/svg" viewBox="0 0 100 100"><defs><style>.cls-1{isolation:isolate;}.cls-2{fill:#aa7244;}.cls-3{opacity:0.2;mix-blend-mode:soft-light;}.cls-4{fill:none;stroke:#000;stroke-miterlimit:10;stroke-width:2.02px;}.cls-5{fill:#fff;}.cls-6{fill:#97bd95;}.cls-7{fill:#f3d457;}.cls-8{fill:#b65942;}.cls-9{fill:#3d3126;}</style></defs><title>groenten</title><g class="cls-1"><g id="Objects"><rect class="cls-2" width="100" height="100"/><g class="cls-3"><path class="cls-4" d="M8.22,16.71c7,0,7,6.92,14,6.92s7-6.92,14-6.92,7,6.92,14,6.92,7-6.92,14-6.92,7,6.92,14,6.92,7-6.92,14-6.92"/><path class="cls-4" d="M8.22,36.87c7,0,7,6.92,14,6.92s7-6.92,14-6.92,7,6.92,14,6.92,7-6.92,14-6.92,7,6.92,14,6.92,7-6.92,14-6.92"/><path class="cls-4" d="M8.22,57c7,0,7,6.92,14,6.92s7-6.92,14-6.92,7,6.92,14,6.92,7-6.92,14-6.92,7,6.92,14,6.92,7-6.92,14-6.92"/><path class="cls-4" d="M8.22,77.21c7,0,7,6.92,14,6.92s7-6.92,14-6.92,7,6.92,14,6.92,7-6.92,14-6.92,7,6.92,14,6.92,7-6.92,14-6.92"/></g><path class="cls-5" d="M46.85,30.79S49,17.9,43,20.19l-0.14-5.44s7.16-3,9.17,2.44,1,13.61,1,13.61l7.31,2.58s10-2.72,15.76,4.3S72.21,64.6,72.21,64.6L68.05,78.06l-2.86,4.15L61,86.08l-7.59-1.29-8.17-.57-5.3.14s-5.59,1.72-10.46-13.18-10.6-26.36-5.3-33.52,16.62-5,16.62-5Z"/><path class="cls-6" d="M45.86,15.9a5.47,5.47,0,0,1,.67,0A5.47,5.47,0,0,0,45.86,15.9Z"/><path class="cls-6" d="M48.71,16.71L49.13,17Z"/><path class="cls-6" d="M50.24,18.12q0.16,0.22.3,0.45Q50.4,18.34,50.24,18.12Z"/><path class="cls-6" d="M49.74,17.52a5.5,5.5,0,0,0-.49-0.43A5.5,5.5,0,0,1,49.74,17.52Z"/><path class="cls-6" d="M48,16.34a5.42,5.42,0,0,1,.56.28A5.4,5.4,0,0,0,48,16.34Z"/><path class="cls-6" d="M49.74,17.52a5.5,5.5,0,0,1,.42.48A5.46,5.46,0,0,0,49.74,17.52Z"/><path class="cls-6" d="M44.63,18.33h0Z"/><path class="cls-6" d="M47.38,16.12a5.43,5.43,0,0,1,.61.21A5.4,5.4,0,0,0,47.38,16.12Z"/><path class="cls-6" d="M50.43,18.63a5.4,5.4,0,0,0-2.7-.72,8.47,8.47,0,0,0-1.72.28V18h0.07a2.75,2.75,0,0,1,1,.63c2,1.28,2,4.34,2,4.94v5.86s0.53,0,.92,0,1.08,0,1.08,0V21.35A5.31,5.31,0,0,0,50.43,18.63Z"/><path class="cls-6" d="M45.15,18.31h0Z"/><path class="cls-6" d="M46.73,16l0.48,0.1Z"/><path class="cls-7" d="M32.32,73.31L31.91,72.2Z"/><path class="cls-7" d="M32.79,74.58l-0.42-1.12Z"/><path class="cls-7" d="M34.22,78Q34,77.54,33.8,77.06,34,77.54,34.22,78Z"/><path class="cls-7" d="M33.3,75.87L32.88,74.8Z"/><path class="cls-7" d="M33.74,76.91L33.34,76Z"/><path class="cls-7" d="M31.84,72l-0.44-1.25Z"/><path class="cls-7" d="M36.74,82c0.16,0.17.32,0.34,0.49,0.49C37.06,82.39,36.9,82.22,36.74,82Z"/><path class="cls-7" d="M35.47,35.36c-0.2.28-.39,0.57-0.57,0.87C35.08,35.93,35.27,35.64,35.47,35.36Z"/><path class="cls-7" d="M31.29,70.46l-0.46-1.32Z"/><path class="cls-7" d="M38.35,83.34A5.38,5.38,0,0,1,37.82,83,5.38,5.38,0,0,0,38.35,83.34Z"/><path class="cls-7" d="M39,83.64a4.93,4.93,0,0,1-.56-0.25A4.93,4.93,0,0,0,39,83.64Z"/><path class="cls-8" d="M39.8,75.52c-0.43-1.59-.83-3.29-1.26-5.09-0.84-3.53-1.79-7.52-3.14-11.54-3.08-9.22-3.47-16.4-1.16-21.4-0.15.32-.28,0.64-0.41,1a9.08,9.08,0,0,0-5.1,3.85c-2.44,4.11-1.65,11.33,2.35,21.44,1.15,2.91,2.11,5.66,3,8.32,1.8,5.18,3.23,9.08,4.88,11.58a5.51,5.51,0,0,0,2.64.26h0a7.35,7.35,0,0,0,1.41-.32A26.47,26.47,0,0,1,39.8,75.52Z"/><path class="cls-7" d="M37.74,83a6.25,6.25,0,0,1-.49-0.4A6.25,6.25,0,0,0,37.74,83Z"/><path class="cls-7" d="M35.15,79.8q-0.44-.76-0.86-1.66Q34.72,79,35.15,79.8Z"/><path class="cls-7" d="M34.38,37.19q0.17-.35.36-0.68Q34.56,36.84,34.38,37.19Z"/><path class="cls-7" d="M36.66,82c-0.16-.18-0.31-0.36-0.46-0.56C36.34,81.59,36.5,81.78,36.66,82Z"/><path class="cls-7" d="M35.66,80.64c-0.15-.22-0.29-0.46-0.43-0.71C35.37,80.18,35.51,80.42,35.66,80.64Z"/><path class="cls-7" d="M36.15,81.34q-0.22-.29-0.43-0.61Q35.93,81,36.15,81.34Z"/><path class="cls-7" d="M69.14,69.22l-0.42,1.2Z"/><path class="cls-7" d="M66.71,75.86l0.41-1Z"/><path class="cls-7" d="M68.17,72l0.43-1.22Z"/><path class="cls-7" d="M67.69,73.28l0.39-1.07Z"/><path class="cls-7" d="M67.21,74.56l0.41-1.09Z"/><path class="cls-7" d="M64.55,35.39c0.19,0.27.38,0.55,0.55,0.84C64.92,35.94,64.74,35.66,64.55,35.39Z"/><path class="cls-7" d="M64.54,34.48c3.8,0.48,8,1.43,10,4.89a8.71,8.71,0,0,1,.76,1.69,8.72,8.72,0,0,0-.76-1.69c-2.05-3.47-6.21-4.42-10-4.89h0Z"/><path class="cls-8" d="M65.88,72.06c0.93-2.66,1.88-5.41,3-8.32,4-10.11,4.78-17.32,2.35-21.44a9.08,9.08,0,0,0-5.1-3.85c-0.12-.33-0.26-0.65-0.41-1,2.31,5,1.92,12.18-1.16,21.4-1.35,4-2.3,8-3.14,11.54C60.36,75.05,59.41,79,57.88,82a13.89,13.89,0,0,1-.94,1.57,7.34,7.34,0,0,0,1.41.32h0A5.51,5.51,0,0,0,61,83.64C62.65,81.14,64.08,77.24,65.88,72.06Z"/><path class="cls-7" d="M65.61,37.18q-0.17-.34-0.35-0.67Q65.44,36.84,65.61,37.18Z"/><path class="cls-7" d="M66.28,76.87L66.65,76Z"/><path class="cls-7" d="M64.86,79.77c0.14-.24.28-0.49,0.41-0.76C65.14,79.28,65,79.53,64.86,79.77Z"/><path class="cls-7" d="M64.35,80.63c0.14-.21.28-0.44,0.41-0.67C64.63,80.19,64.49,80.41,64.35,80.63Z"/><path class="cls-7" d="M63.87,81.31q0.2-.26.39-0.55Q64.07,81,63.87,81.31Z"/><path class="cls-7" d="M63.35,81.94c0.15-.17.3-0.35,0.45-0.54C63.65,81.6,63.51,81.77,63.35,81.94Z"/><path class="cls-7" d="M65.31,79c0.13-.25.26-0.52,0.39-0.79C65.57,78.44,65.44,78.7,65.31,79Z"/><path class="cls-7" d="M66.19,77.08l-0.4.88Z"/><path class="cls-7" d="M61.56,83.39a5,5,0,0,1-.55.25A4.93,4.93,0,0,0,61.56,83.39Z"/><path class="cls-7" d="M62.17,83a5.39,5.39,0,0,1-.51.32A5.37,5.37,0,0,0,62.17,83Z"/><path class="cls-7" d="M62.73,82.57c-0.15.14-.31,0.26-0.47,0.38C62.42,82.83,62.58,82.71,62.73,82.57Z"/><path class="cls-7" d="M62.78,82.53c0.16-.15.32-0.3,0.47-0.47C63.09,82.23,62.94,82.39,62.78,82.53Z"/><path class="cls-7" d="M37.08,39.05c0.09-.2.19-0.39,0.28-0.58C37.27,38.66,37.17,38.85,37.08,39.05Z"/><path class="cls-7" d="M37.55,38.11c0.13-.22.27-0.43,0.41-0.64C37.82,37.67,37.68,37.88,37.55,38.11Z"/><path class="cls-7" d="M36.38,41.23c0.06-.26.12-0.5,0.19-0.75Q36.47,40.85,36.38,41.23Z"/><path class="cls-7" d="M36.69,40.09c0.07-.22.15-0.43,0.24-0.65C36.84,39.66,36.76,39.87,36.69,40.09Z"/><path class="cls-8" d="M63.95,46.92a12.05,12.05,0,0,0-2-6.13c-2.2-3.06-6.2-4.61-11.9-4.61s-9.7,1.55-11.9,4.61a12.05,12.05,0,0,0-2,6.13A23.42,23.42,0,0,1,36,44q-0.29,5.58,2.47,13.83c1.39,4.16,2.36,8.23,3.22,11.82,0.42,1.78.82,3.46,1.24,5,1.87,7,3.72,9.42,7.07,9.42,4.66,0,6.05-4.95,8.31-14.42,0.86-3.59,1.55-7.76,3.22-11.82A34.94,34.94,0,0,0,63.95,46.92Z"/><path class="cls-7" d="M36,43.93q0-.6.1-1.16Q36,43.34,36,43.93Z"/><path class="cls-7" d="M36.15,42.49q0.06-.46.15-0.9C36.24,41.88,36.19,42.18,36.15,42.49Z"/><path class="cls-9" d="M77.34,37.73c-2.78-4.7-8.09-5.92-12.4-6.46a17.64,17.64,0,0,0-5.43,0,18.48,18.48,0,0,0-5-1.49V21.35a8.69,8.69,0,0,0-12.8-7.65,1.62,1.62,0,0,0-.85,1.43v5.62a1.62,1.62,0,0,0,2.4,1.42c1.25-.69,1.83-0.65,1.94-0.58a2.68,2.68,0,0,1,.38,1.79s0,0.09,0,.14v6.22a18.62,18.62,0,0,0-5.12,1.51,17.63,17.63,0,0,0-5.43,0c-4.31.54-9.61,1.76-12.4,6.46-3,5.09-2.32,13,2.12,24.28,1.13,2.85,2.07,5.57,3,8.2C29.49,75.14,31,79.4,33,82.42c2.1,3.2,4.67,4.77,7.81,4.77A10.3,10.3,0,0,0,42,87.11h0a10.54,10.54,0,0,0,3.46-1.06,8.5,8.5,0,0,0,9,0A10.54,10.54,0,0,0,58,87.11h0a10.31,10.31,0,0,0,1.28.08c3.15,0,5.71-1.57,7.81-4.77,2-3,3.47-7.28,5.18-12.22,0.92-2.63,1.86-5.35,3-8.2C79.66,50.76,80.35,42.82,77.34,37.73ZM69.17,69.14C65.64,79.29,63.55,84.55,58.36,83.9h0a7.34,7.34,0,0,1-1.41-.32A13.89,13.89,0,0,0,57.88,82c1.52-3,2.48-7,3.58-11.58,0.84-3.52,1.79-7.52,3.14-11.54,3.55-10.61,3.53-18.53-.07-23.53-0.24-.34-0.5-0.66-0.78-1l0.78,0.09c3.8,0.48,8,1.43,10,4.89C77,43.49,76.2,50.71,72.2,60.82,71.05,63.73,70.1,66.48,69.17,69.14ZM41.64,83.9h0c-5.2.65-7.28-4.61-10.81-14.76-0.93-2.66-1.88-5.41-3-8.32-4-10.11-4.78-17.32-2.35-21.44,2.05-3.47,6.21-4.42,10-4.89l0.78-.09c-0.27.31-.53,0.63-0.78,1-3.6,5-3.62,12.91-.07,23.53,1.35,4,2.3,8,3.14,11.54,0.43,1.8.84,3.5,1.26,5.09a26.47,26.47,0,0,0,3.25,8.06A7.35,7.35,0,0,1,41.64,83.9Zm1.28-9.22c-0.42-1.54-.82-3.22-1.24-5-0.86-3.59-1.83-7.66-3.22-11.82-3.2-9.57-3.33-16.5-.37-20.61,2.2-3.06,6.2-4.61,11.9-4.61s9.7,1.55,11.9,4.61c3,4.1,2.83,11-.37,20.61-1.39,4.16-2.36,8.23-3.22,11.82C56.05,79.15,54.66,84.1,50,84.1,46.65,84.1,44.8,81.63,42.93,74.68Zm1.21-58.5a5.45,5.45,0,0,1,7.17,5.17v8.09l-1.31,0-1.15,0V23.57c0-.6.12-3.43-1.85-4.7a3.76,3.76,0,0,0-2.87-.47V16.18Z"/></g></g></svg>