<svg xmlns="http://www.w3.org/2000/svg" viewBox="0 0 100 100"><defs><style>.cls-1{isolation:isolate;}.cls-2{fill:#aa7244;}.cls-3{opacity:0.2;mix-blend-mode:soft-light;}.cls-4{fill:none;stroke:#000;stroke-miterlimit:10;stroke-width:2.02px;}.cls-5{fill:#fff;}.cls-6{fill:#97bd95;}.cls-7{fill:#3d3126;}</style></defs><title>groenten</title><g class="cls-1"><g id="Objects"><rect class="cls-2" width="100" height="100"/><g class="cls-3"><path class="cls-4" d="M8.22,16.71c7,0,7,6.92,14,6.92s7-6.92,14-6.92,7,6.92,14,6.92,7-6.92,14-6.92,7,6.92,14,6.92,7-6.92,14-6.92"/><path class="cls-4" d="M8.22,36.87c7,0,7,6.92,14,6.92s7-6.92,14-6.92,7,6.92,14,6.92,7-6.92,14-6.92,7,6.92,14,6.92,7-6.92,14-6.92"/><path class="cls-4" d="M8.22,57c7,0,7,6.92,14,6.92s7-6.92,14-6.92,7,6.92,14,6.92,7-6.92,14-6.92,7,6.92,14,6.92,7-6.92,14-6.92"/><path class="cls-4" d="M8.22,77.21c7,0,7,6.92,14,6.92s7-6.92,14-6.92,7,6.92,14,6.92,7-6.92,14-6.92,7,6.92,14,6.92,7-6.92,14-6.92"/></g><path class="cls-5" d="M53.94,22.72s7.48-.2,13,4.72a10,10,0,0,1,6.69,3.35c3.15,3.35,5.31,5.31,5.31,15.55l-0.2,1.57s3.54,0,2.16,5.12S59.05,72.51,59.05,72.51L38,76.25S24,71.72,20.28,57s-1.38-16.14-1.38-16.14L25,36.3l1.18-4.92L36,27.44S44.69,19.38,53.94,22.72Z"/><path class="cls-6" d="M79.38,52.31a14.67,14.67,0,0,0-4.26-.58,16.93,16.93,0,0,0-14.25,7.69h0c1.59,3,3.9,8.87,1.42,15.34A26,26,0,0,0,66.53,73a29.5,29.5,0,0,0,3.72-9.71,5,5,0,0,1-2.19-.67A6.09,6.09,0,0,1,65.33,58a1.53,1.53,0,1,1,3-.5,3.25,3.25,0,0,0,1.25,2.41,2.13,2.13,0,0,0,1.1.26,32.73,32.73,0,0,0,.1-5.6,1.53,1.53,0,1,1,3.06-.21A35.51,35.51,0,0,1,71.8,69.08C76.93,64,78.77,57.31,79.38,52.31Z"/><path class="cls-6" d="M79.39,52.27c0-.32.07-0.62,0.1-0.93C79.46,51.65,79.43,52,79.39,52.27Z"/><path class="cls-6" d="M79.51,51.18c0-.35.06-0.7,0.08-1C79.57,50.48,79.54,50.82,79.51,51.18Z"/><path class="cls-6" d="M57.22,59A19.22,19.22,0,0,0,50,52.37a1.53,1.53,0,0,1-.82-1.1A19.71,19.71,0,0,0,43,40.67c0.33,0.3.65,0.6,1,.92a16.26,16.26,0,0,0-2.05-1.24c-4.16-2.11-8.82-2-13.48.22a49.25,49.25,0,0,1-5.56,2.75C23,56,25.6,65,30.81,70.73l0.5,0.57a22.56,22.56,0,0,0,5.34,2.91,31.25,31.25,0,0,1-3.06-5.06,22.09,22.09,0,0,1-2.25-11.78,12.35,12.35,0,0,1-2.42-3,9.8,9.8,0,0,1,0-9.79A1.53,1.53,0,1,1,31.65,46a6.91,6.91,0,0,0,.43,7.63,22.4,22.4,0,0,1,2.77-5.87,1.53,1.53,0,0,1,2.57,1.68,17.33,17.33,0,0,0-2.62,14c1.78-.87,4.75-3.15,5.33-8.71a1.53,1.53,0,0,1,3.05.32c-0.78,7.37-5,10.27-7.45,11.33,0.19,0.48.4,1,.63,1.45a29.37,29.37,0,0,0,5.58,7.86,48.76,48.76,0,0,0,8.92.72,40.58,40.58,0,0,0,7.57-.67l0.06-.12C63.15,67.42,57.23,59,57.22,59Z"/><path class="cls-6" d="M31,71.11l-0.29-.23Z"/><path class="cls-6" d="M41.69,39.62c-0.26-.19-0.54-0.38-0.82-0.56C41.15,39.24,41.43,39.43,41.69,39.62Z"/><path class="cls-6" d="M42.82,40.52q-0.4-.35-0.83-0.68Q42.41,40.17,42.82,40.52Z"/><path class="cls-6" d="M40.56,38.86c-0.38-.23-0.77-0.46-1.17-0.66C39.8,38.4,40.18,38.63,40.56,38.86Z"/><path class="cls-6" d="M77.1,39.79c0,0.16,0,.31.07,0.47C77.14,40.1,77.12,39.95,77.1,39.79Z"/><path class="cls-6" d="M77.21,40.7c0,0.17,0,.34.05,0.51C77.25,41,77.23,40.87,77.21,40.7Z"/><path class="cls-6" d="M77,38.91c0,0.15.05,0.29,0.08,0.45C77,39.2,77,39.06,77,38.91Z"/><path class="cls-6" d="M77.35,42.49q0,0.68,0,1.4Q77.38,43.17,77.35,42.49Z"/><path class="cls-6" d="M77.38,44.84c0-.21,0-0.43,0-0.64C77.39,44.41,77.38,44.62,77.38,44.84Z"/><path class="cls-6" d="M77.3,41.63c0,0.18,0,.37,0,0.56C77.32,42,77.31,41.81,77.3,41.63Z"/><path class="cls-6" d="M76.58,37.26l0.1,0.39Z"/><path class="cls-6" d="M76.78,38.07l0.09,0.42Z"/><path class="cls-6" d="M74.77,33.28l0.13,0.19Z"/><path class="cls-6" d="M75.14,33.84l0.14,0.24Z"/><path class="cls-6" d="M76.35,36.5l0.12,0.37Z"/><path class="cls-6" d="M47.12,40.55c-0.32-.38-0.65-0.75-1-1.11C46.47,39.8,46.8,40.17,47.12,40.55Z"/><path class="cls-6" d="M74.37,35a7.66,7.66,0,0,0-5.12-2.71c-1.36,1.54-1.64,2.7-2.17,5-0.11.46-.22,1-0.36,1.48a1.53,1.53,0,0,1-2.12,1A18.25,18.25,0,0,0,57,38.13a17.06,17.06,0,0,0-9.69,2.65l0,0A23,23,0,0,1,52,50a20.1,20.1,0,0,1,6.31,5.47,20.11,20.11,0,0,1,16.78-9,19.57,19.57,0,0,1,2.19.12c0-.46,0-0.91.06-1.35C77.23,40.66,76.21,37.17,74.37,35Z"/><path class="cls-6" d="M75.49,34.44l0.14,0.28Z"/><path class="cls-6" d="M76.09,35.77l0.13,0.34Z"/><path class="cls-6" d="M75.8,35.09l0.14,0.31Z"/><path class="cls-6" d="M42.36,26.55l-0.22,0Z"/><path class="cls-6" d="M65.8,29.56a25.46,25.46,0,0,0-14.1-4,26.37,26.37,0,0,0-8.21,1.3h0a10.94,10.94,0,0,1,7.62,6.75A22.89,22.89,0,0,1,57,32.84a21.3,21.3,0,0,1,7.13,1.22,13.67,13.67,0,0,1,1.74-4.64Z"/><path class="cls-6" d="M66,29.22c0.13-.19.26-0.38,0.42-0.58C66.29,28.84,66.15,29,66,29.22Z"/><path class="cls-6" d="M43,29.9L43.2,30Z"/><path class="cls-6" d="M39.81,29.27l0.26,0Z"/><path class="cls-6" d="M43.53,30.1l0.25,0.1Z"/><path class="cls-6" d="M42.39,29.73l0.18,0.05Z"/><path class="cls-6" d="M40.39,29.33l0.26,0Z"/><path class="cls-6" d="M41.6,29.54l0.22,0Z"/><path class="cls-6" d="M41,29.42l0.25,0Z"/><path class="cls-6" d="M44.08,30.34l0.25,0.12Z"/><path class="cls-6" d="M46.59,32.09l0.19,0.19Z"/><path class="cls-6" d="M46.34,31.84l-0.21-.19Z"/><path class="cls-6" d="M47,32.6l0.14,0.17Z"/><path class="cls-6" d="M45.15,30.92l0.24,0.16Z"/><path class="cls-6" d="M44.62,30.61l0.25,0.14Z"/><path class="cls-6" d="M38.37,29.19h0Z"/><path class="cls-6" d="M45.65,31.26l0.23,0.17Z"/><path class="cls-6" d="M34.92,29.4h0Z"/><path class="cls-6" d="M34.62,29.45h0Z"/><path class="cls-6" d="M34.17,29.52h0Z"/><path class="cls-6" d="M34.37,29.49h0Z"/><path class="cls-6" d="M29,34.08l-0.69.17Z"/><path class="cls-6" d="M27.09,34.63h0l1-.3Z"/><path class="cls-6" d="M47.19,32.78c-4.42-2.89-11.3-1.42-11.39-1.4h0a13.94,13.94,0,0,0-5.66,2.46l-0.8.16a17,17,0,0,1,11.47,1.45,19.26,19.26,0,0,1,3,1.9,19.11,19.11,0,0,1,4.41-2.76A7.75,7.75,0,0,0,47.19,32.78Z"/><path class="cls-6" d="M36.1,29.27h0Z"/><path class="cls-6" d="M37.12,29.21h0Z"/><path class="cls-6" d="M37.62,29.19h0Z"/><path class="cls-6" d="M38.69,29.2h0Z"/><path class="cls-6" d="M35.64,29.32h0Z"/><path class="cls-6" d="M35.26,29.36h0Z"/><path class="cls-6" d="M39.24,29.23l0.25,0Z"/><path class="cls-7" d="M80.37,46.93c0.46-7.3-.77-12.73-3.66-16.14A10.73,10.73,0,0,0,69.29,27a28.67,28.67,0,0,0-18.42-6.46,29.16,29.16,0,0,0-18,6.14c-1.58.36-7,1.85-8.39,5.36a1.53,1.53,0,0,0-.09.31L23.7,36.18c-1,.52-3.39,1.64-5.52,2.62a1.53,1.53,0,0,0-.9,1.4C17.28,55.7,20.8,66.31,28,72.62c7,6.15,16.4,6.86,22.82,6.86,10.47,0,18.6-3.14,24.18-9.34,4.71-5.23,7.36-12.5,7.67-21C82.75,48,82,47.47,80.37,46.93ZM73.88,54.4a1.53,1.53,0,1,0-3.06.21,32.73,32.73,0,0,1-.1,5.6,2.13,2.13,0,0,1-1.1-.26,3.25,3.25,0,0,1-1.25-2.41,1.53,1.53,0,1,0-3,.5,6.09,6.09,0,0,0,2.72,4.55,5,5,0,0,0,2.19.67A29.5,29.5,0,0,1,66.53,73a26,26,0,0,1-4.24,1.8c2.86-7.45-.64-14.18-2.08-16.47a16.94,16.94,0,0,1,14.91-8.78,14.65,14.65,0,0,1,4.47.64c-0.34,5.06-1.88,13.08-7.78,18.93A35.51,35.51,0,0,0,73.88,54.4ZM58.5,75.62l-0.06.12a40.58,40.58,0,0,1-7.57.67,48.76,48.76,0,0,1-8.92-.72,29.37,29.37,0,0,1-5.58-7.86c-0.23-.49-0.44-1-0.63-1.45,2.41-1.06,6.67-4,7.45-11.33a1.53,1.53,0,0,0-3.05-.32c-0.59,5.56-3.56,7.84-5.33,8.71a17.33,17.33,0,0,1,2.62-14,1.53,1.53,0,0,0-2.57-1.68,22.4,22.4,0,0,0-2.77,5.87A6.91,6.91,0,0,1,31.65,46a1.53,1.53,0,1,0-2.72-1.43,9.8,9.8,0,0,0,0,9.79,12.35,12.35,0,0,0,2.42,3,22.09,22.09,0,0,0,2.25,11.78,31.25,31.25,0,0,0,3.06,5.06,22,22,0,0,1-6.58-3.9c-6.39-5.57-9.57-15.11-9.71-29.14a49.28,49.28,0,0,0,5.56-2.75c4.66-2.25,9.32-2.33,13.48-.23a19.42,19.42,0,0,1,9.76,13.07,1.53,1.53,0,0,0,.82,1.1A19.22,19.22,0,0,1,57.22,59S63.15,67.42,58.5,75.62Zm-24.67-46h0c0.12,0,11.4-2.44,14.35,5a19.1,19.1,0,0,0-4.41,2.76,19.26,19.26,0,0,0-3-1.9,17.22,17.22,0,0,0-13.69-.83L27.37,33C28.21,31.31,31.74,30,33.83,29.59Zm40.54,3.17c2.31,2.73,3.32,7.48,2.95,13.8a19.59,19.59,0,0,0-2.19-.12,20.11,20.11,0,0,0-16.78,9A20.1,20.1,0,0,0,52,50a23.26,23.26,0,0,0-5.9-10.55A16.74,16.74,0,0,1,57,35.91a18.25,18.25,0,0,1,7.58,1.63,1.53,1.53,0,0,0,2.12-1c0.13-.53.25-1,0.36-1.48,0.53-2.28.81-3.44,2.17-5A7.66,7.66,0,0,1,74.37,32.76Zm-10.22,1.3A21.29,21.29,0,0,0,57,32.84a22.89,22.89,0,0,0-5.91.73c-1.55-4.09-5-6.6-10.17-7.28-0.49-.07-1-0.11-1.45-0.14a26.19,26.19,0,0,1,11.39-2.57,25.33,25.33,0,0,1,15.57,5.05A12.5,12.5,0,0,0,64.15,34.06Z"/></g></g></svg>