<!-- Generator: Adobe Illustrator 19.2.1, SVG Export Plug-In  -->
<svg version="1.1"
     xmlns="http://www.w3.org/2000/svg" xmlns:xlink="http://www.w3.org/1999/xlink" xmlns:a="http://ns.adobe.com/AdobeSVGViewerExtensions/3.0/"
     x="0px" y="0px" width="317px" height="117px" viewBox="0 0 317 117" enable-background="new 0 0 317 117" xml:space="preserve">
<defs>
</defs>
<g>
    <g>
        <path fill="#FFFFFF" d="M0,117c3-2.7,6.1-5.2,9.1-7.8c3.1-2.6,6.1-5.1,9.2-7.6c3.1-2.5,6.2-5,9.3-7.5l9.4-7.4l9.4-7.3
            c3.1-2.4,6.3-4.8,9.5-7.2c3.2-2.4,6.3-4.8,9.5-7.1c3.2-2.4,6.4-4.7,9.6-7.1l9.6-7l9.7-6.9c3.2-2.3,6.4-4.6,9.7-6.9l9.7-6.8
            c6.5-4.5,13.1-9,19.6-13.5L153,3.7l5.5-3.7l5.5,3.7l19.7,13.2l9.8,6.7c3.3,2.2,6.6,4.5,9.8,6.7l9.7,6.8c3.3,2.3,6.5,4.6,9.7,6.9
            l9.7,6.9l9.6,7c3.2,2.3,6.4,4.7,9.6,7.1c3.2,2.4,6.4,4.7,9.5,7.1l9.5,7.2l9.4,7.3c6.2,4.9,12.5,9.8,18.6,14.9
            c3.1,2.5,6.1,5.1,9.2,7.6c3,2.6,6.1,5.2,9.1,7.8c-3.6-1.7-7.2-3.5-10.7-5.3c-3.5-1.8-7.1-3.6-10.6-5.5c-7.1-3.7-14-7.5-21-11.3
            L264.3,89l-10.3-5.9c-3.5-2-6.9-4-10.3-6c-3.4-2-6.9-4-10.2-6.1L223.2,65l-10.1-6.2c-3.4-2.1-6.8-4.1-10.1-6.3l-10.1-6.3
            c-3.4-2.1-6.7-4.3-10-6.4l-10-6.4l-19.9-13h11l-19.9,13c-6.7,4.3-13.3,8.6-20,12.8L114,52.5c-3.3,2.1-6.7,4.2-10.1,6.2l-10.1,6.2
            l-10.2,6.1c-3.4,2.1-6.8,4-10.2,6.1c-3.4,2-6.8,4-10.3,6c-3.4,2-6.9,4-10.3,5.9l-10.4,5.8l-10.5,5.7c-3.5,1.9-7,3.8-10.5,5.6
            c-3.5,1.9-7.1,3.7-10.6,5.5C7.2,113.5,3.6,115.3,0,117z"/>
    </g>
</g>
</svg>
