<!-- Generator: Adobe Illustrator 19.2.1, SVG Export Plug-In  -->
<svg version="1.1"
     xmlns="http://www.w3.org/2000/svg" xmlns:xlink="http://www.w3.org/1999/xlink" xmlns:a="http://ns.adobe.com/AdobeSVGViewerExtensions/3.0/"
     x="0px" y="0px" width="950.2px" height="689.5px" viewBox="0 0 950.2 689.5" enable-background="new 0 0 950.2 689.5"
     xml:space="preserve">
<defs>
</defs>
<path fill="none" stroke="#FFFFFF" stroke-width="10" stroke-miterlimit="10" d="M806.4,422.5c-4.8-31.6-16.5-59.4-32.8-78.3
    c-26.6-30.9-59.7-42.2-82.8-46.2c-21.1-3.7-37.5-2.2-42.6-1.6c1.2-4.3,2.2-7.8,3.2-10.5l0.5-1.3l-1.3-0.6
    c-14.5-6.5-44.7-17.1-44.7-17.1l-4-1.3c0,0-36.2-10.2-54.8-13.7c0,0,0,0,0-0.1c-1.3-0.2-2.5-0.4-3.8-0.6c-8.9-1.6-17.8-2.9-26.8-4
    c-10.6-65.6-38.1-105.4-38.5-105.9l-1.5-2.2l-1.7,2.1c-0.4,0.6-10.9,14-21.4,40.2c-6.2,15.5-13.3,37.6-17.5,65.5
    c-29.6,3.5-58.8,9.7-86.9,18.4l-4,1.3c0,0-31,10.9-45.8,17.5l-1.2,0.5l0.4,1.3c0,0.1,1.1,3.8,2.7,10.4c-6.5-0.7-21.8-1.5-40.8,1.8
    c-23.1,4-56.2,15.3-82.8,46.2c-35.3,41-46.1,120.4-24.7,180.8c8,22.5,19.8,41.2,35.2,55.8c16.8,15.9,37.6,26.2,61.6,30.7
    c-4,5.1-8.1,10.1-12.4,14.9l-2.2,2.4l3.2,0.1c0.4,0,0.8,0,1.2,0l104.7,34.9c40.6,13.5,86,20.7,131.3,20.7c0,0,0,0,0,0
    c45.3,0,90.7-7.2,131.3-20.7c64.6-21.5,105.8-34.6,106.9-35l2.1-0.6l-1.3-1.8c-3.6-4.9-7.1-10-10.5-15c45.8-11.5,79.7-45,95.4-94.4
    C808.9,488,811.3,454.4,806.4,422.5z"/>
<g>
    <path fill="#FFFFFF" d="M590.1,558c0.8-1.8,1.8-3.5,2.9-5.2c1-1.7,2.2-3.3,3.3-4.9c1.1-1.6,2.3-3.2,3.5-4.8
        c1.2-1.6,2.4-3.1,3.7-4.7c5-6.1,10.1-12.1,14.9-18.3c4.8-6.2,9.6-12.4,13.9-18.9c2.2-3.2,4.2-6.5,6.1-9.9c0.9-1.7,1.8-3.4,2.7-5.1
        c0.4-0.9,0.8-1.7,1.2-2.6c0.2-0.4,0.4-0.9,0.6-1.3l0.3-0.7c0.1-0.2,0.1-0.5,0.9-0.4l0,0l3.1-1.5l0.3,1.9c0.4,2,0.8,4.1,1.3,6.2
        c0.5,2.1,1,4.1,1.5,6.2c0.5,2.1,1.1,4.1,1.7,6.1c0.6,2,1.2,4.1,1.8,6.1c0.6,2,1.3,4,2,6.1c0.6,2,1.4,4,2.1,6c0.7,2,1.4,4,2.2,6
        c0.8,2,1.5,4,2.3,6l2.4,5.9c0.8,2,1.6,3.9,2.5,5.9c0.8,2,1.6,3.9,2.5,5.9l2.6,5.8c0.9,1.9,1.8,3.9,2.7,5.8l2.8,5.8
        c0.9,1.9,1.9,3.8,2.9,5.7l2.9,5.7l0,0l2,3.9l-4.7-1.7c-1.7-0.6-3.3-1.8-5-2.7c-1.7-1-3.4-1.9-5.1-2.7c-1.8-0.8-3.5-1.7-5.3-2.4
        c-1.8-0.8-3.6-1.5-5.5-2.2c-1.8-0.7-3.7-1.3-5.6-1.9c-1.9-0.6-3.7-1.2-5.6-1.7c-1.9-0.5-3.8-1-5.7-1.5c-1.9-0.4-3.8-0.9-5.8-1.3
        c-1.9-0.4-3.9-0.8-5.8-1.1c-1.9-0.3-3.9-0.7-5.9-0.9c-2-0.3-3.9-0.5-5.9-0.8c-2-0.2-3.9-0.4-5.9-0.6c-2-0.2-3.9-0.3-5.9-0.5
        c-2-0.1-4-0.2-5.9-0.3l-5.9-0.2L590.1,558z M590.1,558l6-0.3l6-0.1c2,0,4,0,6,0c2,0.1,4,0,6,0.1c2,0.1,4,0.2,6,0.3
        c2,0.1,4,0.3,6,0.5c2,0.2,4,0.4,6,0.6c2,0.3,4,0.5,5.9,0.9c4,0.6,7.9,1.4,11.8,2.3c2,0.4,3.9,1,5.8,1.5c1.9,0.5,3.9,1.1,5.8,1.7
        c1.9,0.6,3.8,1.3,5.7,2c1.9,0.7,3.8,1.5,5.6,2.3c1.9,0.8,3.7,1.7,5.5,2.6c1.8,1,3.6,1.8,5.1,3.6l-2.7,2.3l0,0l-2.9-5.7
        c-1-1.9-2-3.8-2.9-5.7l-2.8-5.8c-0.9-1.9-1.9-3.9-2.7-5.8l-2.7-5.9c-0.9-1.9-1.7-3.9-2.6-5.9c-0.8-2-1.7-3.9-2.5-5.9l-2.4-6
        c-0.8-2-1.5-4-2.3-6c-0.8-2-1.5-4-2.2-6.1c-0.7-2-1.4-4-2.1-6.1c-0.7-2-1.4-4.1-2-6.1c-0.6-2.1-1.3-4.1-1.9-6.2
        c-0.6-2.1-1.2-4.1-1.7-6.2c-0.6-2.1-1.1-4.2-1.6-6.3c-0.5-2.1-0.9-4.2-1.3-6.4l3.5,0.4l0,0c0.6,0.5,0.4,0.7,0.3,1l-0.3,0.7
        c-0.2,0.5-0.4,0.9-0.7,1.4c-0.4,0.9-0.9,1.8-1.4,2.7c-1,1.8-2,3.5-3,5.2c-2.1,3.4-4.4,6.7-6.7,9.9c-4.7,6.4-9.7,12.6-15,18.5
        c-5.2,5.9-10.6,11.7-15.9,17.5c-1.3,1.4-2.6,2.9-3.9,4.4c-1.3,1.5-2.6,3-3.8,4.5c-1.2,1.5-2.4,3.1-3.6,4.7
        C592.2,554.7,591,556.3,590.1,558z"/>
</g>
<path fill="none" stroke="#FFFFFF" stroke-width="3" stroke-miterlimit="10" d="M646.5,296.8c0,0,74.8-12.1,125.6,47
    c57,66.2,51,235.1-69.1,265"/>
<g>
    <defs>
        <path id="SVGID_2_" d="M649.1,282.7c0,0-84,301.4-174,301.4V457c57.2-83.1,41.5-209.8,41.5-209.8S586.7,254,649.1,282.7z"/>
    </defs>
    <clipPath id="SVGID_4_">
        <use xlink:href="#SVGID_2_"  overflow="visible"/>
    </clipPath>
    <g clip-path="url(#SVGID_4_)">
        <g>
            <path fill="#FFFFFF" d="M698.8,283.7c0,0,0,1.2-0.1,3.4c0,1.1-0.2,2.5-0.4,4.2c-0.1,0.4-0.1,0.9-0.2,1.3c0,0.2-0.1,0.5-0.1,0.7
                c-0.1,0.2-0.1,0.5-0.2,0.7c-0.2,0.9-0.5,1.9-0.7,3c-1.2,4.2-3,9.2-6.5,14.3c-3.4,5.1-8.3,10.2-14.7,14.3
                c-6.4,4.1-14.3,7.4-23.1,8.1c-1.1,0-2.2,0.1-3.3,0.1c-0.6,0-1.1,0-1.7,0.1l-0.2,0l-0.1,0l-0.2,0l-0.4,0l-0.8,0
                c-1,0-2.2-0.1-3.3-0.2c-1.1-0.1-2.2-0.2-3.4-0.3c-4.5-0.6-9-1.5-13.5-3.1c-2.2-0.8-4.4-1.7-6.6-2.7c-2.2-1-4.3-2.2-6.3-3.6
                c-2-1.3-4-2.9-5.8-4.6c-1.8-1.7-3.5-3.5-5-5.5c-1.5-2-2.8-4.2-4-6.4c-1.1-2.3-2-4.7-2.6-7.1c-0.6-2.4-1-4.9-1.1-7.4
                c-0.1-1.3-0.1-2.4,0-3.8c0.1-1.2,0.1-2.3,0.3-3.6c1.2-9.9,5.4-19,11.2-26.5c1.5-1.9,3-3.7,4.6-5.4c0.8-0.9,1.7-1.7,2.5-2.5
                c0.9-0.8,1.7-1.6,2.6-2.3c1.7-1.5,3.6-2.9,5.5-4.2c1.9-1.3,3.8-2.5,5.9-3.5c4-2.1,8.3-3.7,12.6-4.6c2.2-0.4,4.3-0.7,6.5-0.8
                l0.8,0l0.4,0l0.2,0l0.1,0l0.2,0l1.6,0.1c1,0,2.1,0.1,3.1,0.1c8.5,0.7,16.1,3.4,22.4,7.2c6.3,3.8,11.2,8.5,14.7,13.4
                c3.5,4.8,5.6,9.7,7,13.8c0.3,1,0.6,2,0.8,2.9c0.1,0.2,0.1,0.5,0.2,0.7c0,0.2,0.1,0.5,0.1,0.7c0.1,0.4,0.1,0.9,0.2,1.3
                c0.3,1.6,0.6,3.1,0.6,4.2C698.8,282.4,698.9,283.6,698.8,283.7L698.8,283.7z M695.3,283.6c0,0-0.1-1.1-0.1-3.3
                c0-1.1-0.2-2.4-0.5-3.9c-0.1-0.4-0.1-0.8-0.2-1.2c0-0.2-0.1-0.4-0.1-0.6c-0.1-0.2-0.1-0.4-0.2-0.6c-0.2-0.9-0.5-1.8-0.7-2.7
                c-1.2-3.8-3-8.4-6.3-12.9c-3.3-4.5-7.9-9-13.8-12.5c-0.7-0.4-1.5-0.9-2.3-1.3c-0.7-0.5-1.6-0.8-2.4-1.1c-0.8-0.4-1.6-0.8-2.5-1.1
                c-0.9-0.3-1.7-0.6-2.6-0.9c-1.7-0.7-3.6-1-5.5-1.5l-0.7-0.2l-0.7-0.1c-0.5-0.1-0.9-0.1-1.4-0.2c-1-0.1-1.9-0.3-2.9-0.4
                c-1-0.1-2-0.1-3.1-0.2l-1.6-0.1l-1.4,0c-2,0-4.1,0.3-6.1,0.6c-4.1,0.7-8.2,1.9-12.1,3.7c-8,3.6-15.1,9.7-20.3,17.3
                c-2.6,3.8-4.8,7.8-6.4,12.2c-0.8,2.2-1.5,4.4-1.9,6.6c-0.3,1.1-0.4,2.2-0.6,3.4c-0.1,1.1-0.3,2.3-0.3,3.4
                c-0.1,1.1-0.1,2.3-0.1,3.5c0.1,1,0.1,2.2,0.3,3.3c0.3,2.2,0.7,4.4,1.4,6.5c1.4,4.2,3.6,8,6.4,11.3c5.7,6.5,13.6,10.7,21.6,13
                c4,1.2,8.1,1.9,12.1,2.3c1,0.1,2,0.2,3,0.2c1,0,1.9,0.1,3,0.1l1.5,0l1.4-0.1c1-0.1,1.9-0.1,2.8-0.2c7.5-0.7,14.4-2.8,20.2-5.9
                c5.8-3.1,10.5-7.3,13.8-11.6c3.4-4.3,5.5-8.6,6.8-12.3c0.3-0.9,0.6-1.8,0.8-2.7c0.1-0.2,0.1-0.4,0.2-0.6c0-0.2,0.1-0.4,0.1-0.6
                c0.1-0.4,0.1-0.8,0.2-1.1c0.1-0.7,0.3-1.4,0.4-2.1c0.2-0.6,0.1-1.3,0.2-1.8C695.2,284.7,695.3,283.6,695.3,283.6L695.3,283.6z"/>
        </g>
        <g>
            <path fill="#FFFFFF" d="M748.7,283.7c0,0,0,0.6,0,1.7c0,1.2,0,2.8-0.2,5.2c-0.3,4.7-1.2,11.4-3.7,19.7
                c-2.5,8.2-6.8,17.9-13.9,27.7c-7.1,9.7-17,19.3-29.7,26.9c-6.3,3.8-13.4,7-21,9.4c-7.6,2.4-15.7,4.1-24.1,4.7
                c-1.1,0.1-2.1,0.1-3.2,0.2c-1.1,0-2.1,0-3.2,0.1l-1.6,0l-0.5,0l-0.4,0l-0.8,0c-1,0-2.1,0-3.2-0.1c-4.4-0.2-8.7-0.7-13.1-1.4
                c-8.7-1.5-17.5-4.2-25.8-8.1c-1-0.5-2.1-1-3.1-1.5l-1.5-0.8l-0.5-0.3l-0.4-0.2l-0.7-0.4c-1-0.6-1.9-1.1-2.9-1.7l-1.5-0.9l-1.5-1
                c-2-1.3-4-2.6-5.8-4.1l-2.8-2.2c-0.9-0.8-1.8-1.6-2.6-2.4c-7-6.4-13-13.8-18-22c-5-8.1-8.9-16.9-12.1-25.9
                c-0.4-1.1-0.8-2.2-1.2-3.4l-1.1-3.4c-0.7-2.3-1.4-4.6-2-6.9c-1.3-4.6-2.4-9.3-3.3-13.9c-0.7-4.7-1.2-9.5-0.9-14.3l0.1-1.8
                c0-0.6,0.1-1.2,0.2-1.8c0.1-1.2,0.3-2.4,0.4-3.5c0.5-2.3,0.8-4.7,1.5-6.9c0.6-2.3,1.5-4.5,2.3-6.7l1.5-3.2l0.4-0.8l0.4-0.8
                l0.9-1.6l0.9-1.5c0.3-0.5,0.6-1,1-1.5c0.7-1,1.3-2,2-2.9l2.1-2.8c0.7-0.9,1.5-1.8,2.3-2.7l1.2-1.3c0.4-0.4,0.8-0.8,1.2-1.3
                c0.8-0.8,1.6-1.7,2.5-2.5c1.7-1.6,3.5-3.1,5.3-4.5c1.8-1.5,3.7-2.8,5.6-4.2c1-0.6,1.9-1.3,2.9-1.9l1.5-0.9l1.5-0.9
                c3.9-2.4,8.1-4.4,12.2-6.2c2.1-0.8,4.2-1.8,6.3-2.5c1.1-0.4,2.1-0.8,3.2-1.2c1.1-0.4,2.1-0.7,3.2-1.1c8.5-2.8,17.2-4.7,25.7-5.8
                c8.6-1.2,17.1-1.6,25.3-1.1c4.2,0.2,8.2,0.8,12.2,1.5c4,0.8,7.8,1.6,11.6,2.8c7.5,2.3,14.5,5.3,20.8,8.9
                c12.6,7.2,22.6,16.6,29.7,26.1c7.1,9.5,11.6,19.1,14.2,27.3c2.6,8.2,3.6,14.9,4,19.5c0.3,2.3,0.3,4.1,0.3,5.3
                C748.7,283,748.7,283.6,748.7,283.7L748.7,283.7z M742.7,283.6c0,0,0-0.6,0-1.7c0-1.1,0-2.8-0.2-4.9c-0.3-4.3-1-10.6-3.3-18.4
                c-2.2-7.7-6.2-16.9-12.8-26.1c-6.6-9.2-15.9-18.3-27.9-25.6c-6-3.6-12.7-6.7-19.8-9.1c-3.6-1.2-7.3-2.2-11.1-3
                c-3.8-0.8-7.8-1.4-11.8-1.7c-8.1-0.7-16.4-0.5-24.9,0.4c-8.5,0.9-17.1,2.5-25.6,5c-4.3,1.2-8.5,2.8-12.7,4.4
                c-4.1,1.8-8.3,3.6-12.3,5.9l-1.5,0.8l-1.5,0.9c-1,0.6-2,1.2-2.9,1.8c-1.9,1.3-3.8,2.6-5.6,4c-1.9,1.4-3.6,2.9-5.3,4.5
                c-0.9,0.8-1.7,1.6-2.5,2.4c-0.4,0.4-0.8,0.8-1.2,1.2l-1.2,1.3c-0.8,0.9-1.6,1.7-2.3,2.7l-2.2,2.8c-0.7,0.9-1.3,1.9-2,2.9
                c-0.3,0.5-0.7,1-1,1.5l-0.9,1.5l-0.9,1.5l-0.4,0.8l-0.4,0.8l-1.5,3.2c-0.8,2.2-1.7,4.4-2.2,6.7c-0.7,2.3-1,4.6-1.4,7
                c-0.1,1.2-0.2,2.4-0.3,3.5c0,0.6-0.1,1.2-0.1,1.8l0,1.8c-0.1,4.7,0.5,9.5,1.4,14.1c1,4.7,2.4,9.2,3.8,13.7
                c0.7,2.3,1.5,4.5,2.3,6.7l1.2,3.3c0.4,1.1,0.9,2.2,1.4,3.3c3.6,8.7,8,17,13.2,24.6c5.2,7.6,11.4,14.4,18.3,20
                c0.9,0.7,1.7,1.4,2.6,2.1l2.7,2c1.8,1.4,3.6,2.4,5.5,3.6l1.4,0.9l1.5,0.8c1,0.5,2,1.1,3,1.6l0.7,0.4l0.4,0.2
                c-0.1-0.1,0.1,0,0.1,0l0.2,0.1l1.5,0.7c1,0.5,2,0.9,3,1.3c7.9,3.4,16.2,5.7,24.4,7c4.1,0.7,8.2,1,12.2,1.2c1,0.1,2,0.1,3.1,0.1
                l0.8,0l0.4,0l0.1,0l0.2,0l1.5,0c1,0,2-0.1,3-0.1c1-0.1,2-0.1,3-0.2c2-0.1,3.9-0.4,5.8-0.6c1.9-0.2,3.8-0.6,5.7-0.9
                c3.8-0.8,7.4-1.6,11-2.8c7.1-2.2,13.7-5.1,19.6-8.6c12-6.9,21.3-15.8,28-24.7c3.3-4.5,6-9,8.2-13.3c0.5-1.1,1.1-2.1,1.5-3.2
                c0.5-1.1,0.9-2.1,1.3-3.1c0.4-1,0.8-2.1,1.1-3.1c0.2-0.5,0.4-1,0.5-1.5c0.1-0.5,0.3-1,0.4-1.5c2.4-7.7,3.2-14,3.5-18.2
                c0.2-2.1,0.2-3.8,0.3-5C742.7,284.2,742.7,283.6,742.7,283.6L742.7,283.6z"/>
        </g>
        <g>
            <path fill="#FFFFFF" d="M798.3,283.7c0,0,0,0.9-0.1,2.6c-0.1,1.7,0,4.2-0.4,7.6c-0.5,6.8-1.7,16.6-5.3,28.7c-0.8,3-2,6.1-3.2,9.4
                c-1.3,3.2-2.6,6.6-4.4,10c-3.3,6.8-7.4,14-12.5,21.1c-10.2,14.2-24.6,28.3-43,39.5c-9.2,5.6-19.4,10.5-30.3,14.2
                c-11,3.7-22.7,6.4-35,7.7c-1.5,0.2-3.1,0.3-4.6,0.4c-1.5,0.1-3.1,0.3-4.7,0.3c-1.6,0-3.1,0.1-4.7,0.1l-2.4,0.1l-2.3,0
                c-1.6,0-3.1,0-4.7-0.1c-1.6-0.1-3.2-0.1-4.8-0.2c-1.6,0-3.2-0.2-4.8-0.3c-1.6-0.2-3.2-0.2-4.8-0.5c-12.9-1.5-25.9-4.9-38.1-10.5
                c-6.1-2.7-12.1-6-17.9-9.5c-2.9-1.7-5.7-3.6-8.6-5.4c-2.8-1.9-5.7-3.8-8.4-5.8c-1.4-1-2.8-2-4.2-3c-1.5-1.1-2.7-2.1-4.1-3.2
                l-2-1.6c-0.7-0.6-1.3-1.2-2-1.7c-1.3-1.2-2.6-2.3-3.9-3.5c-5-4.9-9.4-10.3-13.5-16c-1.9-3-3.9-5.8-5.5-8.9l-1.3-2.3l-0.6-1.1
                l-0.6-1.2l-2.3-4.7c-0.7-1.6-1.3-3.2-2-4.9l-1-2.4c-0.3-0.8-0.6-1.7-0.9-2.5l-1.7-5l-1.4-5.1c-3.7-13.6-5.3-27.7-5.5-41.8
                c0-7,0.4-14.1,1.5-21.1c1.1-7,2.6-13.9,4.8-20.6c2.2-6.7,4.8-13.2,7.9-19.5c3.2-6.2,6.8-12.2,10.7-18
                c16.1-22.8,38.7-40.1,63.2-50.3c6.2-2.5,12.4-4.7,18.7-6.4c3.1-0.9,6.3-1.6,9.5-2.3c1.6-0.3,3.2-0.6,4.8-0.9
                c1.6-0.3,3.2-0.6,4.8-0.8c3.2-0.4,6.3-0.8,9.5-1c1.6-0.1,3.2-0.3,4.7-0.3c1.6,0,3.1-0.1,4.7-0.1l2.4-0.1l2.3,0
                c1.5,0,3.1,0.1,4.6,0.1c1.5,0,3.1,0.2,4.6,0.3c1.5,0.1,3.1,0.1,4.6,0.4c12.2,1.2,23.9,3.7,34.8,7.4c10.9,3.7,21,8.5,30.2,14
                c9.2,5.5,17.4,11.8,24.5,18.4c7.1,6.7,13.3,13.7,18.4,20.7c5.1,7.1,9.2,14.1,12.5,20.9c0.8,1.7,1.7,3.4,2.3,5
                c0.7,1.7,1.4,3.3,2.1,4.9c1.2,3.3,2.4,6.3,3.2,9.4c3.7,12,5,21.9,5.6,28.6c0.4,3.4,0.3,5.9,0.4,7.7
                C798.2,282.8,798.3,283.6,798.3,283.7L798.3,283.7z M793.2,283.6c0,0,0-0.9-0.1-2.5c-0.1-1.7,0-4.2-0.3-7.4
                c-0.4-6.5-1.5-16-4.9-27.6c-0.8-2.9-1.9-5.9-3-9.1c-0.6-1.6-1.3-3.1-1.9-4.8c-0.6-1.6-1.4-3.2-2.2-4.9c-3.1-6.6-7-13.5-11.9-20.4
                c-4.9-6.9-10.8-13.8-17.7-20.4c-6.9-6.5-14.8-12.7-23.7-18.2c-8.9-5.5-18.7-10.3-29.4-14c-10.7-3.7-22.1-6.3-34.1-7.7
                c-1.5-0.2-3-0.3-4.5-0.4c-1.5-0.1-3-0.3-4.5-0.3c-1.5,0-3.1-0.1-4.6-0.1l-2.3-0.1l-2.3,0c-1.5,0-3.1,0.1-4.6,0.1
                c-1.6,0-3.1,0.2-4.7,0.3c-3.1,0.1-6.2,0.5-9.4,0.9c-1.6,0.1-3.1,0.4-4.7,0.7c-1.6,0.3-3.1,0.5-4.7,0.8c-3.1,0.7-6.3,1.2-9.4,2.1
                c-6.3,1.5-12.4,3.7-18.6,6.1c-6.1,2.4-12.1,5.4-17.9,8.6c-5.8,3.4-11.4,7-16.8,11.1c-5.3,4.2-10.5,8.7-15.3,13.6
                c-4.7,4.9-9.2,10.2-13.3,15.8c-4,5.6-7.7,11.6-10.9,17.8c-3.1,6.2-5.8,12.7-8,19.4c-2.2,6.7-3.7,13.6-4.8,20.5
                c-1.1,7-1.5,14-1.5,21.1l0.1,5.3l0.1,2.6l0.2,2.6l0.4,5.3l0.6,5.2c0.3,3.5,1.1,7,1.6,10.4c0.3,1.7,0.8,3.4,1.2,5.1l0.6,2.6
                c0.2,0.9,0.5,1.7,0.7,2.5c1.8,6.8,4.4,13.3,7.3,19.6c3,6.3,6.7,12.2,10.8,17.8c4.2,5.5,8.9,10.5,14,15.1c1.3,1.1,2.6,2.1,3.9,3.2
                c0.7,0.5,1.3,1.1,2,1.6l2.1,1.5c1.4,1,2.8,2,4.2,2.9c1.4,0.9,2.9,1.8,4.3,2.8c2.8,1.9,5.8,3.6,8.6,5.3c1.5,0.8,2.9,1.7,4.3,2.5
                c1.4,0.9,2.9,1.7,4.4,2.5c5.8,3.3,11.7,6.1,17.7,8.7c3,1.3,6,2.4,9,3.5c1.5,0.5,3.1,1,4.6,1.5c1.5,0.5,3.1,0.9,4.6,1.3
                c6.2,1.6,12.4,2.8,18.6,3.4c1.5,0.2,3.1,0.3,4.7,0.4c1.6,0.1,3.1,0.3,4.6,0.3c1.5,0.1,3.1,0.1,4.6,0.2c1.6,0,3.1,0,4.7,0l2.3,0
                l2.2-0.1c1.5-0.1,3-0.1,4.5-0.2c1.5-0.1,3-0.2,4.5-0.3c1.5-0.1,3-0.2,4.5-0.4c11.8-1.4,23.2-4,33.8-7.6
                c10.6-3.6,20.4-8.4,29.3-13.7c17.8-10.8,31.7-24.3,41.6-37.9c5-6.8,8.9-13.7,12.1-20.2c1.7-3.2,2.9-6.5,4.2-9.6
                c1.1-3.1,2.3-6.1,3.1-9c3.5-11.6,4.7-21.1,5.2-27.5c0.3-3.2,0.3-5.8,0.4-7.4C793.2,284.5,793.2,283.6,793.2,283.6L793.2,283.6z"
                />
        </g>
        <g>
            <path fill="#FFFFFF" d="M849.4,283.7c0,0,0,1.2-0.1,3.5c-0.1,2.3,0,5.7-0.5,10.3c-0.3,4.6-0.9,10.1-2,16.6
                c-0.3,1.6-0.6,3.3-0.9,5c-0.2,0.9-0.3,1.7-0.5,2.6c-0.2,0.9-0.4,1.8-0.6,2.7c-0.4,1.8-0.9,3.7-1.4,5.7c-0.5,1.9-1.1,3.9-1.7,5.9
                c-1.1,4.1-2.7,8.2-4.3,12.6c-1.8,4.3-3.5,8.9-5.8,13.4c-4.4,9.2-9.9,18.8-16.7,28.4c-6.8,9.6-15,19.1-24.6,28.2
                c-9.6,9.1-20.6,17.6-33,25.2c-12.4,7.5-26,14.2-40.8,19.2c-14.8,5-30.7,8.6-47.2,10.2c-2.1,0.2-4.1,0.3-6.2,0.5
                c-1,0.1-2.1,0.1-3.1,0.2c-1,0.1-2.1,0.1-3.1,0.1c-2.1,0-4.2,0.1-6.3,0.1l-1.6,0l-0.8,0c-0.1,0-0.4,0-0.5,0l-0.4,0l-3.1-0.1
                l-3.1-0.1l-1.6,0l-1.6-0.1c-2.2-0.2-4.3-0.3-6.5-0.5c-4.3-0.5-8.6-1-12.9-1.8c-8.6-1.5-17.2-3.5-25.7-6.2c-8.5-2.7-16.9-6-25-9.8
                c-16.3-7.8-31.7-18-46-29.5c-1.8-1.4-3.6-2.9-5.4-4.3c-1.8-1.4-3.6-2.9-5.4-4.4c-3.5-3-7-6-10.5-9.2c-1.7-1.6-3.4-3.2-5.1-4.8
                c-1.7-1.6-3.4-3.2-5-4.9c-3.3-3.3-6.5-6.7-9.6-10.2c-3.1-3.5-6.1-7.1-9-10.9c-2.9-3.7-5.6-7.6-8.2-11.6c-2.6-4-4.9-8.1-7.1-12.3
                c-2.1-4.2-4.1-8.6-5.9-13c-3.4-8.9-6-18.2-7.4-27.7l-0.5-3.6l-0.4-3.6c-0.3-2.4-0.4-4.8-0.5-7.2c-0.1-1.2-0.1-2.4-0.1-3.6l0-1.8
                l0-0.9l0-0.9l0.2-7.1c0-0.6,0-1.2,0.1-1.8l0.2-1.8l0.3-3.6l0.3-3.6c0.1-1.2,0.3-2.4,0.5-3.6c0.3-2.4,0.6-4.8,1-7.1l1.4-7l0.3-1.8
                l0.4-1.7l0.9-3.5l0.9-3.5c0.3-1.2,0.7-2.3,1-3.4c0.7-2.3,1.4-4.6,2.2-6.8l2.5-6.7c6.9-17.8,16.4-34.5,27.8-49.4
                c22.9-30,53.4-53.2,86.4-67.3c8.3-3.4,16.6-6.6,25.1-8.9c4.2-1.3,8.5-2.2,12.8-3.2c1.1-0.3,2.1-0.5,3.2-0.7l3.2-0.6l3.2-0.6
                c1.1-0.2,2.1-0.4,3.2-0.5c4.3-0.5,8.5-1.2,12.8-1.4c2.1-0.2,4.3-0.3,6.4-0.5c2.1-0.1,4.2-0.1,6.4-0.2l3.2-0.1c1.1,0,2.1,0,3.2,0
                c2.1,0.1,4.2,0.1,6.2,0.2c1,0,2.1,0.1,3.1,0.2c1,0.1,2.1,0.1,3.1,0.2c2.1,0.2,4.1,0.3,6.2,0.5c16.4,1.7,32.1,5.2,46.7,10.1
                c14.7,5,28.2,11.5,40.5,18.9c12.3,7.4,23.3,15.8,32.9,24.7c9.6,8.9,17.8,18.3,24.7,27.8c6.9,9.5,12.5,18.9,16.9,28
                c2.3,4.5,4.1,9,5.9,13.3c1.6,4.4,3.2,8.5,4.4,12.5c5,16.1,6.8,29.3,7.5,38.3c0.5,4.5,0.5,8,0.6,10.3
                C849.3,282.4,849.4,283.6,849.4,283.7L849.4,283.7z M843.9,283.6c0,0,0-1.2-0.1-3.4c-0.1-2.3,0-5.6-0.4-10
                c-0.6-8.7-2-21.6-6.7-37.4c-1.1-4-2.6-8-4.1-12.3c-1.7-4.2-3.4-8.6-5.6-13.1c-4.2-9-9.5-18.3-16.2-27.7
                c-13.2-18.7-32-37.3-56.2-52.1c-12.1-7.3-25.4-13.8-39.9-18.7c-14.5-4.9-29.9-8.3-46.1-9.9c-2-0.2-4-0.3-6.1-0.5
                c-1-0.1-2-0.1-3-0.2c-1-0.1-2-0.1-3.1-0.2c-2.1,0-4.1-0.1-6.2-0.1c-1,0-2.1-0.1-3.1,0l-3.1,0.1c-2.1,0.1-4.2,0.1-6.3,0.2
                c-2.1,0.2-4.2,0.3-6.3,0.5c-4.2,0.2-8.4,0.9-12.6,1.4c-1.1,0.1-2.1,0.3-3.2,0.5l-3.2,0.6l-3.2,0.6c-1.1,0.2-2.1,0.4-3.2,0.6
                c-4.2,1-8.4,1.9-12.6,3.2c-8.4,2.3-16.6,5.4-24.8,8.8c-32.5,13.9-62.5,36.8-85.1,66.3c-11.3,14.7-20.6,31.1-27.4,48.7l-2.4,6.6
                c-0.7,2.2-1.4,4.5-2.1,6.7c-0.3,1.1-0.7,2.2-1,3.4l-0.9,3.4l-0.9,3.4l-0.4,1.7l-0.3,1.7l-1.4,6.9c-0.4,2.3-0.7,4.7-1,7
                c-0.2,1.2-0.4,2.3-0.5,3.5l-0.3,3.5l-0.3,3.5l-0.2,1.8c0,0.6,0,1.2-0.1,1.8c-1.1,18.9,1.5,37.8,7.8,55.5c1.6,4.4,3.4,8.7,5.4,13
                c2.1,4.2,4.3,8.3,6.8,12.3c4.9,8,10.5,15.5,16.7,22.5c12.4,14,26.7,25.9,41.7,36.3c15,10.5,30.9,19,47,26
                c16.1,6.9,32.6,12.3,49.2,15c4.1,0.8,8.3,1.2,12.4,1.7c2,0.1,4.1,0.3,6.1,0.4l1.5,0.1l1.6,0l3.1,0.1l3.1,0.1l0.4,0
                c0.2,0,0.1,0,0.3,0l0.8,0l1.5,0c2-0.1,4.1-0.1,6.1-0.2c1,0,2-0.1,3-0.2l3-0.2c2-0.2,4-0.3,6-0.5c16-1.7,31.3-5,45.6-9.8
                c14.3-4.8,27.6-11.2,39.5-18.4c12-7.2,22.7-15.4,32.1-24.1c9.4-8.7,17.4-17.9,24.1-27.1c6.7-9.2,12.1-18.5,16.4-27.3
                c2.2-4.4,4-8.8,5.7-13c1.5-4.3,3.1-8.3,4.2-12.2c4.8-15.6,6.4-28.5,7.1-37.2c0.5-4.3,0.4-7.8,0.5-10.1
                C843.8,284.8,843.9,283.6,843.9,283.6L843.9,283.6z"/>
        </g>
        <g>
            <path fill="#FFFFFF" d="M897.4,283.7c0,0,0,1.5-0.1,4.3c-0.1,2.9,0,7.1-0.6,12.7c-0.8,11.2-2.7,27.6-8.7,47.6
                c-1.4,5-3.3,10.2-5.2,15.6c-1,2.7-2.2,5.4-3.4,8.2c-1.1,2.8-2.5,5.6-3.8,8.4c-5.4,11.4-12.2,23.3-20.6,35.2
                c-8.4,11.9-18.5,23.7-30.4,35c-11.9,11.3-25.5,21.9-40.8,31.3c-15.3,9.4-32.2,17.6-50.5,24c-9.2,3-18.6,5.9-28.4,8
                c-2.4,0.5-4.9,1.1-7.4,1.6c-2.5,0.4-5,0.8-7.5,1.3c-1.3,0.2-2.5,0.4-3.8,0.6c-1.3,0.2-2.5,0.3-3.8,0.5c-2.5,0.3-5.1,0.6-7.6,0.9
                c-1.3,0.2-2.6,0.3-3.9,0.3c-1.3,0.1-2.6,0.2-3.9,0.3c-1.3,0.1-2.6,0.2-3.9,0.3c-1.3,0.1-2.6,0.2-3.9,0.2
                c-2.6,0.1-5.2,0.1-7.9,0.2l-2,0l-1,0l-0.5,0c-0.1,0-0.5,0-0.6,0c-1.3,0-2.6-0.1-3.9-0.1c-1.3,0-2.6-0.1-3.9-0.1
                c-1.3-0.1-2.7-0.2-4-0.3c-1.3-0.1-2.7-0.2-4-0.3c-1.3-0.2-2.7-0.3-4-0.5c-1.3-0.2-2.7-0.3-4-0.5c-1.3-0.2-2.7-0.4-4-0.6
                c-1.3-0.2-2.7-0.4-4-0.6c-1.3-0.2-2.7-0.5-4-0.7c-10.6-2-21.2-4.5-31.8-7.4c-10.6-3-21.1-6.5-31.6-10.2c-2.6-1-5.2-1.9-7.9-2.9
                l-3.9-1.5l-1-0.4l-0.5-0.2l-0.5-0.2l-2-0.8c-2.6-1.1-5.2-2-7.8-3.3c-2.6-1.2-5.2-2.3-7.7-3.7c-10.2-5.1-19.9-11.2-29.1-18.1
                c-9.2-6.9-17.8-14.6-25.8-22.9c-8-8.3-15.4-17.3-22-27c-13.2-19.2-23.3-40.8-30.1-63.4c-6.8-22.6-10.3-46.3-10.5-70
                c0-3,0.1-5.9,0.2-8.9l0.1-4.4l0.3-4.4l0.3-4.4c0.1-1.5,0.2-3,0.4-4.4l1.2-8.8c1.9-11.7,4.5-23.3,8.1-34.5
                c3.7-11.2,8.2-22.2,13.5-32.7c5.4-10.5,11.5-20.5,18.3-30c6.8-9.5,14.4-18.4,22.4-26.8c8.1-8.3,16.7-16,25.7-23.1
                c9.1-7,18.6-13.3,28.3-19.1c2.5-1.4,5-2.7,7.4-4.1c1.2-0.7,2.5-1.4,3.7-2l3.8-1.8c2.5-1.2,5-2.5,7.6-3.6c2.6-1.1,5.1-2.2,7.7-3.3
                c10.3-4.2,20.8-7.9,31.4-10.6c5.3-1.5,10.6-2.6,15.9-3.8c1.3-0.3,2.7-0.5,4-0.8c1.3-0.2,2.7-0.5,4-0.7c1.3-0.2,2.7-0.5,4-0.7
                l2-0.3l2-0.2c5.3-0.6,10.6-1.4,15.9-1.7c2.6-0.2,5.3-0.4,7.9-0.6c2.6-0.1,5.3-0.1,7.9-0.2c1.3,0,2.6-0.1,3.9-0.1
                c1.4,0,2.6,0,3.9,0.1c2.6,0.1,5.2,0.1,7.8,0.2c1.3,0,2.6,0.1,3.9,0.2c1.3,0.1,2.6,0.2,3.9,0.3c1.3,0.1,2.6,0.2,3.9,0.3
                c1.3,0.1,2.6,0.2,3.8,0.3c2.5,0.3,5.1,0.6,7.6,0.9c1.3,0.2,2.5,0.3,3.8,0.5c1.2,0.2,2.5,0.4,3.7,0.6c2.5,0.4,5,0.8,7.4,1.2
                c2.5,0.4,4.9,1,7.3,1.5c9.7,2,19.1,4.8,28.3,7.8c18.2,6.2,35.1,14.3,50.4,23.6c15.3,9.3,28.9,19.8,40.8,31
                c11.9,11.2,22,22.9,30.5,34.7c8.5,11.8,15.3,23.7,20.7,35c1.4,2.8,2.7,5.6,3.8,8.4c1.1,2.8,2.3,5.5,3.4,8.2
                c1.9,5.4,3.9,10.6,5.3,15.6c6.1,20,8.1,36.4,8.9,47.5c0.6,5.6,0.5,9.9,0.6,12.7C897.4,282.2,897.4,283.6,897.4,283.7L897.4,283.7
                z M894.5,283.6c0,0,0-1.5-0.1-4.3c-0.1-2.8,0-7.1-0.6-12.6c-0.8-11-2.8-27.2-8.7-46.9c-1.4-5-3.3-10-5.2-15.4
                c-1-2.6-2.2-5.3-3.3-8.1c-1.1-2.8-2.5-5.5-3.8-8.3c-5.4-11.2-12.1-22.9-20.5-34.5c-8.4-11.6-18.4-23.2-30.2-34.3
                c-11.7-11-25.2-21.4-40.3-30.6c-15.1-9.2-31.7-17.2-49.8-23.4c-18-6.1-37.4-10.4-57.5-12.6c-1.3-0.2-2.5-0.3-3.8-0.3
                c-1.3-0.1-2.5-0.2-3.8-0.3c-1.3-0.1-2.5-0.2-3.8-0.3c-1.3-0.1-2.5-0.2-3.8-0.2c-2.6-0.1-5.2-0.1-7.8-0.2c-1.3,0-2.6-0.1-3.9-0.1
                c-1.3,0-2.6,0.1-3.9,0.1c-2.6,0.1-5.2,0.1-7.8,0.2c-2.6,0.1-5.2,0.3-7.9,0.5c-5.3,0.2-10.5,1-15.8,1.6l-2,0.2l-2,0.3
                c-1.3,0.2-2.6,0.4-4,0.7c-1.3,0.2-2.6,0.4-4,0.7c-1.3,0.2-2.6,0.4-4,0.7c-5.3,1.1-10.6,2.2-15.8,3.7
                c-10.5,2.6-20.9,6.3-31.2,10.3c-2.5,1.1-5.1,2.2-7.7,3.2c-2.6,1.1-5,2.4-7.6,3.6l-3.8,1.8c-1.3,0.6-2.5,1.3-3.7,2
                c-2.5,1.3-4.9,2.7-7.4,4c-9.7,5.6-19.2,11.9-28.3,18.8c-9,7-17.6,14.6-25.7,22.8c-8,8.3-15.5,17.1-22.4,26.5
                c-6.8,9.5-12.9,19.4-18.4,29.8c-5.3,10.5-9.8,21.3-13.6,32.5c-3.7,11.2-6.4,22.7-8.3,34.4l-1.2,8.8c-0.2,1.5-0.3,2.9-0.4,4.4
                l-0.4,4.4l-0.4,4.4l-0.1,4.4c-0.1,3-0.2,5.9-0.2,8.9c0.1,23.7,3.6,47.3,10.3,69.9c6.8,22.6,16.8,44.2,29.9,63.4
                c6.6,9.6,13.9,18.7,22,26.9c8.1,8.2,17,15.7,26.4,22c9.4,6.4,19.4,11.8,29.7,16.2c2.5,1.2,5.2,2.1,7.7,3.1c2.5,1,5.3,1.8,7.9,2.7
                l2,0.7l0.5,0.2l0.5,0.1l1,0.3l4,1.2c2.7,0.8,5.3,1.6,8,2.4c10.6,3.3,21.1,6.3,31.6,9.1c10.5,2.8,20.9,5.3,31.3,7.2
                c1.3,0.2,2.6,0.5,3.9,0.7c1.3,0.2,2.6,0.4,3.9,0.6c1.3,0.2,2.6,0.4,3.9,0.6c1.3,0.2,2.6,0.3,3.9,0.5c1.3,0.1,2.6,0.3,3.9,0.4
                c1.3,0.1,2.6,0.2,3.8,0.3c1.3,0.1,2.5,0.2,3.8,0.3c1.3,0.1,2.6,0.1,3.9,0.1c1.3,0,2.6,0.1,3.9,0.1c1.3,0,2.5-0.1,3.8-0.1
                c2.6-0.1,5.1-0.1,7.7-0.2c1.3,0,2.5-0.1,3.8-0.2c1.3-0.1,2.5-0.2,3.8-0.3c1.3-0.1,2.5-0.2,3.8-0.3c1.3-0.1,2.5-0.2,3.8-0.3
                c2.5-0.3,5-0.6,7.5-0.9c1.2-0.2,2.5-0.3,3.7-0.4c1.2-0.2,2.5-0.4,3.7-0.6c2.4-0.4,4.9-0.8,7.3-1.2c2.4-0.4,4.8-1,7.2-1.5
                c9.6-2,18.8-4.7,27.8-7.6c18-6,34.6-13.9,49.6-23c15-9.1,28.5-19.3,40.3-30.2c11.8-10.9,21.8-22.4,30.3-34
                c8.4-11.6,15.2-23.2,20.6-34.3c1.4-2.8,2.7-5.5,3.8-8.3c1.1-2.7,2.3-5.4,3.4-8c1.9-5.3,3.9-10.4,5.3-15.3
                c6.1-19.7,8.1-35.9,9-46.8c0.6-5.4,0.5-9.7,0.7-12.6C894.5,285.1,894.5,283.6,894.5,283.6L894.5,283.6z"/>
        </g>
        <g>
            <path fill="#FFFFFF" d="M950.2,283.7c0,0,0,1.8-0.1,5.3c-0.1,3.5,0,8.6-0.7,15.4c-0.1,1.7-0.3,3.5-0.4,5.4
                c-0.1,0.9-0.1,1.9-0.2,2.9c-0.1,1-0.3,2-0.4,3c-0.3,2.1-0.6,4.2-0.9,6.5c-0.3,2.2-0.5,4.6-1,7c-0.4,2.4-0.9,4.9-1.4,7.5
                c-0.2,1.3-0.5,2.6-0.7,4c-0.3,1.3-0.6,2.7-1,4c-0.7,2.7-1.3,5.6-2,8.5c-0.3,1.5-0.8,2.9-1.2,4.4c-0.4,1.5-0.9,3-1.3,4.5
                c-1.7,6.1-4,12.3-6.4,18.9c-1.3,3.3-2.7,6.5-4.1,9.9c-0.4,0.8-0.7,1.7-1.1,2.5l-0.5,1.3l-0.6,1.3c-0.8,1.7-1.6,3.4-2.4,5.1
                c-6.6,13.8-14.8,28.2-25,42.5c-10.2,14.4-22.5,28.7-36.9,42.3c-14.4,13.6-30.9,26.4-49.4,37.8c-18.5,11.3-39,21.3-61.2,28.9
                c-22.2,7.6-46,12.9-70.7,15.4c-1.5,0.2-3.1,0.3-4.7,0.4c-1.6,0.1-3.1,0.2-4.7,0.3c-1.6,0.1-3.1,0.2-4.7,0.3
                c-1.6,0.1-3.1,0.3-4.7,0.3c-3.2,0.1-6.3,0.1-9.5,0.2l-2.4,0.1l-1.2,0l-0.6,0c-0.2,0-0.6,0-0.7,0c-1.6,0-3.1-0.1-4.7-0.1
                c-3.2-0.1-6.3-0.1-9.6-0.4c-1.6-0.1-3.2-0.2-4.9-0.4l-2.4-0.2c-0.8-0.1-1.6-0.2-2.4-0.3c-3.2-0.4-6.5-0.7-9.7-1.2
                c-3.2-0.5-6.4-1-9.7-1.6c-12.9-2.4-25.7-5.7-38.3-9.9c-12.6-4.2-25.1-9.1-37.5-14.4c-12.4-5.3-24.7-10.9-37.2-16.4l-4.7-2.1
                l-2.4-1l-2.3-1.1l-4.7-2.2c-1.6-0.7-3.1-1.6-4.6-2.3c-1.5-0.8-3.1-1.6-4.6-2.4l-4.5-2.6c-3-1.7-5.9-3.6-8.8-5.5
                c-23.3-15.1-43.5-35.3-59.4-58.7c-7.9-11.7-14.9-24.1-20.8-37c-5.9-12.9-10.8-26.4-14.7-40.1c-7.9-27.5-11.8-56.2-12-84.8
                c-0.1-1.8,0-3.6,0.1-5.4l0.1-5.4l0.1-5.4l0.4-5.4l0.4-5.4c0.2-1.8,0.2-3.6,0.5-5.4l1.4-10.7c2.3-14.1,5.5-28.1,9.9-41.7
                c4.5-13.6,10-26.8,16.3-39.5c6.6-12.6,14-24.7,22.1-36.3c8.3-11.5,17.4-22.2,27.1-32.4c9.8-10.1,20.2-19.3,31.1-27.9
                c11-8.5,22.5-16.1,34.3-23c3-1.7,6-3.3,9-4.9c1.5-0.8,3-1.7,4.5-2.4l4.6-2.2l4.6-2.2c1.5-0.7,3-1.5,4.6-2.2
                c3.1-1.3,6.2-2.7,9.3-4c1.5-0.7,3.1-1.3,4.7-1.9c1.6-0.6,3.1-1.2,4.7-1.8c1.6-0.6,3.1-1.2,4.7-1.8l2.4-0.9l2.4-0.8
                c3.2-1,6.4-2,9.5-3c1.6-0.5,3.2-1,4.8-1.4c1.6-0.4,3.2-0.9,4.8-1.3c6.4-1.9,12.8-3.1,19.2-4.5c1.6-0.4,3.2-0.7,4.8-0.9
                c1.6-0.3,3.2-0.5,4.8-0.8c1.6-0.3,3.2-0.5,4.8-0.8l2.4-0.4l2.4-0.3c6.4-0.8,12.8-1.7,19.2-2c3.2-0.2,6.4-0.5,9.6-0.7
                c3.2-0.1,6.4-0.2,9.5-0.2c1.6,0,3.2-0.1,4.7-0.1c1.6,0,3.2,0.1,4.7,0.1c3.1,0.1,6.3,0.1,9.4,0.2c1.6,0,3.1,0.1,4.7,0.2
                c1.6,0.1,3.1,0.2,4.7,0.3c1.6,0.1,3.1,0.2,4.7,0.3c1.5,0.1,3.1,0.2,4.6,0.4c24.6,2.5,48.2,7.7,70.3,15.2
                c22,7.5,42.4,17.3,60.8,28.5c18.5,11.2,34.9,23.9,49.3,37.3c14.4,13.4,26.7,27.6,37,41.8c10.3,14.2,18.6,28.5,25.2,42.2
                c0.8,1.7,1.7,3.4,2.5,5.1l0.6,1.3l0.5,1.3c0.4,0.8,0.7,1.7,1.1,2.5c1.4,3.4,2.8,6.6,4.1,9.9c2.4,6.6,4.8,12.8,6.5,18.8
                c7.4,24.2,10,44,11,57.5c0.7,6.7,0.6,11.9,0.8,15.4C950.1,281.8,950.2,283.6,950.2,283.7L950.2,283.7z M945.3,283.6
                c0,0,0-1.8-0.1-5.2c-0.1-3.4,0-8.5-0.7-15.2c-0.9-13.2-3.3-32.8-10.4-56.6c-1.6-6-4-12.1-6.2-18.6c-1.2-3.2-2.6-6.4-4-9.8
                c-0.3-0.8-0.7-1.7-1-2.5l-0.5-1.3l-0.6-1.2c-0.8-1.7-1.6-3.3-2.4-5c-6.4-13.5-14.5-27.7-24.6-41.8
                c-10.1-14.1-22.1-28.2-36.3-41.6C844.3,71.5,828,59,809.8,47.9c-18.2-11.1-38.4-20.8-60.2-28.3C727.7,12.2,704.4,6.9,680,4.4
                c-1.5-0.2-3-0.3-4.6-0.4c-1.5-0.1-3.1-0.2-4.6-0.3c-1.5-0.1-3.1-0.2-4.6-0.3c-1.5-0.1-3.1-0.3-4.6-0.3c-3.1-0.1-6.2-0.2-9.4-0.2
                c-1.6,0-3.2-0.1-4.7-0.1c-1.6,0-3.1,0.1-4.7,0.1c-3.1,0.1-6.3,0.1-9.5,0.2c-3.2,0.1-6.3,0.4-9.5,0.6c-6.4,0.3-12.7,1.2-19.1,1.9
                l-2.4,0.3L600,6.2c-1.6,0.3-3.2,0.5-4.8,0.8c-1.6,0.3-3.2,0.5-4.8,0.8c-1.6,0.3-3.2,0.5-4.8,0.9c-6.4,1.4-12.8,2.6-19.1,4.4
                c-1.6,0.4-3.2,0.8-4.8,1.3c-1.6,0.4-3.2,0.8-4.8,1.4c-3.1,1-6.3,2-9.5,3l-2.4,0.8l-2.3,0.9c-1.6,0.6-3.1,1.2-4.7,1.7
                c-3.1,1.2-6.3,2.2-9.3,3.6c-3.1,1.3-6.2,2.6-9.3,3.9c-1.6,0.6-3,1.4-4.6,2.1l-4.6,2.2l-4.6,2.2c-1.5,0.8-3,1.6-4.5,2.4
                c-3,1.6-6,3.2-8.9,4.8c-11.7,6.8-23.2,14.4-34.1,22.7c-10.8,8.5-21.3,17.6-31.1,27.6c-9.7,10-18.8,20.7-27.1,32
                c-8.2,11.4-15.6,23.5-22.1,36c-6.4,12.6-11.8,25.8-16.4,39.3c-4.4,13.5-7.6,27.5-10,41.5l-1.4,10.6c-0.3,1.8-0.4,3.5-0.5,5.3
                l-0.4,5.3l-0.4,5.3l-0.2,5.4l-0.2,5.4c0,1.8-0.1,3.6-0.1,5.4c0.1,14.3,1.1,28.6,3.1,42.7c2,14.1,5,28.1,8.9,41.8
                c4,13.7,8.9,27,14.8,39.9c6,12.8,12.9,25.2,20.8,36.8c7.9,11.6,16.9,22.4,26.8,32.2c9.9,9.8,20.7,18.6,32.4,25.8
                c2.9,1.8,5.8,3.6,8.9,5.2l4.5,2.4c1.5,0.8,3.1,1.5,4.6,2.2c1.6,0.7,3,1.5,4.6,2.1l4.8,1.9l2.4,1l2.4,0.9l4.8,1.8
                c12.8,4.8,25.4,9.7,38,14.3c12.6,4.6,25.1,9,37.6,12.8c12.5,3.8,25,7.1,37.5,9.3c3.1,0.5,6.3,1,9.4,1.5c3.1,0.4,6.3,0.7,9.4,1.1
                c0.8,0.1,1.6,0.2,2.3,0.3l2.3,0.2c1.6,0.1,3.1,0.2,4.6,0.3c3.1,0.3,6.3,0.3,9.4,0.4c1.6,0,3.2,0.1,4.7,0.1c0.3,0,0.3,0,0.5,0
                l0.6,0l1.2,0l2.3-0.1c3.1-0.1,6.2-0.2,9.3-0.2c1.5,0,3.1-0.1,4.6-0.3c1.5-0.1,3.1-0.2,4.6-0.3c1.5-0.1,3.1-0.2,4.6-0.3
                c1.5-0.1,3-0.2,4.5-0.4c24.2-2.5,47.4-7.7,69.1-14.9c21.7-7.3,41.7-16.9,59.9-27.9c18.2-11,34.4-23.4,48.6-36.6
                c14.2-13.2,26.3-27.1,36.4-41.1c10.1-14,18.3-28,24.8-41.4c0.8-1.7,1.6-3.3,2.4-5l0.6-1.2l0.5-1.3c0.4-0.8,0.7-1.7,1.1-2.5
                c1.4-3.3,2.8-6.5,4.1-9.7c2.3-6.4,4.7-12.5,6.4-18.5c7.3-23.7,9.8-43.3,10.8-56.4c0.7-6.6,0.6-11.8,0.8-15.2
                C945.2,285.4,945.3,283.6,945.3,283.6L945.3,283.6z"/>
        </g>
    </g>
</g>
<g>
    <ellipse fill="#FFFFFF" cx="674.1" cy="454" rx="13" ry="29"/>
    <path fill="#FFFFFF" d="M687.1,454c0,0,0,0.5,0,1.5c0,1-0.1,2.5-0.2,4.3c-0.2,1.9-0.5,4.1-1,6.7c-0.6,2.5-1.3,5.4-2.7,8.3
        c-0.7,1.5-1.5,3-2.5,4.3c-1,1.4-2.4,2.7-4.1,3.5c-1.7,0.8-3.9,0.7-5.7-0.3c-1.8-0.9-3.2-2.5-4.3-4.1c-2.3-3.4-3.7-7.4-4.6-11.5
        c-0.9-4.1-1.3-8.5-1.4-12.8c0-4.3,0.5-8.6,1.4-12.8c0.9-4.1,2.3-8.2,4.6-11.5c1.2-1.7,2.6-3.2,4.3-4.1c1.8-1,3.9-1,5.7-0.3
        c1.7,0.8,3.1,2.1,4.1,3.5c1.1,1.4,1.9,2.9,2.5,4.3c1.3,2.9,2.1,5.8,2.7,8.3c0.5,2.6,0.8,4.8,1,6.7c0.2,1.9,0.2,3.3,0.2,4.3
        C687.1,453.5,687.1,454,687.1,454z M687.1,454c0,0,0-0.5,0-1.5c0-1-0.1-2.5-0.3-4.3c-0.2-1.9-0.5-4.1-1-6.7
        c-0.6-2.5-1.4-5.4-2.7-8.3c-0.7-1.4-1.5-2.9-2.6-4.2c-1.1-1.3-2.4-2.6-4-3.3c-1.6-0.7-3.6-0.6-5.2,0.3c-1.6,0.9-3,2.4-4,4
        c-2.1,3.3-3.4,7.3-4.3,11.3c-0.9,4.1-1.3,8.3-1.2,12.6c0,4.2,0.4,8.5,1.2,12.6c0.9,4.1,2.2,8,4.3,11.3c1.1,1.6,2.4,3.1,4,4
        c1.6,0.9,3.6,1,5.2,0.3c1.7-0.7,3-1.9,4-3.3c1.1-1.3,1.9-2.8,2.6-4.2c1.4-2.9,2.2-5.7,2.7-8.3c0.5-2.5,0.9-4.8,1-6.7
        c0.2-1.9,0.2-3.3,0.3-4.3C687.1,454.5,687.1,454,687.1,454z"/>
</g>
<g>
    <path fill="#FFFFFF" d="M648.8,428c0,0,0-0.3,0-1c0-0.6,0.1-1.6,0.2-2.8c0.2-2.5,0.5-6.1,1.3-10.8c0.4-2.3,0.9-4.8,1.6-7.6
        c0.7-2.7,1.6-5.6,3-8.6c1.3-3,3.1-6.1,5.5-8.8c2.4-2.8,5.6-5.3,9.5-6.7c1.9-0.7,4-1.2,6.1-1.5c2.1-0.3,4.3-0.2,6.5,0
        c4.3,0.4,8.9,1.6,13.1,4c4.2,2.3,7.9,5.6,10.8,9.6c3,4,5.3,8.5,7,13.3c3.5,9.6,5.1,20,5.7,30.6c0.5,10.6,0,21.4-1.4,32
        c-0.7,5.3-1.6,10.6-2.7,15.9c-1.2,5.2-2.6,10.4-4.5,15.5c-1.9,5.1-4.4,10-8.2,14.2c-1.9,2.1-4.1,4-6.7,5.2
        c-1.3,0.7-2.7,1.1-4.1,1.5l-0.1,0l-0.2,0l-0.2,0l-0.5,0.1c-0.3,0.1-0.7,0.1-1.1,0.2c-0.4,0.1-0.8,0.1-1.1,0.1c-0.4,0-0.7,0-1.1,0
        c-2.9,0-5.6-0.7-8.2-1.8c-2.5-1-4.8-2.5-6.8-4.1l-1.4-1.1l-1.4-1.3c-1-0.9-1.8-1.8-2.6-2.7c-1.6-1.9-3.1-3.8-4.4-5.8
        c-5.3-8-8.2-16.5-10-24.4c-1.8-7.9-2.7-15.3-3.2-21.8c-0.4-6.5-0.6-12.2-0.6-16.8c0-4.7,0.1-8.3,0.2-10.8
        C648.8,429.3,648.8,428,648.8,428z M649.3,428c0,0,0,1.3-0.1,3.8c0,2.5-0.1,6.1,0.2,10.8c0.1,2.3,0.3,4.9,0.5,7.7
        c0.3,2.8,0.6,5.8,1.1,9c0.9,6.4,2.3,13.5,4.6,21.1c2.3,7.5,5.6,15.4,10.7,22.6c1.2,1.8,2.7,3.5,4.2,5.1c0.8,0.8,1.5,1.6,2.4,2.3
        l1.2,1.1l1.4,1.1c3.4,2.7,7.6,4.6,11.9,4.7c4.2,0.1,8.3-2,11.4-5.4c3.2-3.4,5.6-7.9,7.5-12.5c1.9-4.7,3.4-9.7,4.6-14.8
        c1.2-5.1,2.2-10.3,3-15.5c1.5-10.4,2.2-21,1.9-31.3c-0.4-10.3-1.7-20.5-5-29.8c-1.6-4.6-3.7-8.9-6.4-12.7c-2.7-3.8-6.1-6.9-9.8-9.2
        c-1.9-1.1-3.9-2-5.9-2.7c-2.1-0.7-4-1.1-6.2-1.4c-2-0.2-4.1-0.3-6.1-0.2c-2,0.2-3.9,0.5-5.8,1.2c-3.7,1.2-6.8,3.4-9.2,6.1
        c-2.4,2.6-4.2,5.6-5.6,8.5c-2.8,5.8-4,11.4-4.8,16c-0.8,4.6-1,8.2-1.2,10.7c-0.1,1.2-0.1,2.2-0.1,2.8
        C649.4,427.7,649.3,428,649.3,428z"/>
</g>
<g>
    <path fill="#FFFFFF" d="M635.3,405c0,0,0-1.5,0.4-4.3c0.3-2.8,0.9-6.9,2.4-12.1c1.4-5.1,3.7-11.2,7.8-17.4c2.1-3.1,4.6-6.2,7.8-8.9
        c3.2-2.7,7-5.1,11.3-6.7c4.3-1.7,9.1-2.5,14-2.9c4.9-0.4,10.1-0.3,15.3,0.4c10.4,1.3,21.1,5.7,30,13.1c8.9,7.4,15.7,17.6,20.3,28.7
        c2.3,5.6,4.1,11.4,5.6,17.3c1.5,5.9,2.5,11.9,3.2,18l0.5,4.5l0.4,4.5c0.3,3,0.4,6.1,0.5,9.1c0.1,3.1,0.1,6,0.1,9c0,3-0.1,6-0.2,9
        c-0.5,12-2.4,23.8-5.8,34.8c-1.9,5.5-4.1,10.7-7,15.6c-2.9,4.8-6.3,9.2-10.3,12.8c-4,3.6-8.4,6.5-13.1,8.6
        c-4.6,2.1-9.4,3.3-14.1,3.8c-4.6,0.6-9.2,0.4-13.3-0.3c-4.2-0.7-8.1-1.9-11.5-3.6c-0.4-0.2-0.8-0.5-1.3-0.7l-0.6-0.4
        c-0.1-0.1-0.2-0.1-0.3-0.2l-0.3-0.2c-0.7-0.5-1.5-1-2.2-1.5c-0.7-0.5-1.4-1-2.1-1.5c-0.7-0.5-1.3-1-1.9-1.5c-2.5-2-4.6-4.1-6.5-6
        c-3.7-3.8-6.3-7.1-7.9-9.5c-1.6-2.3-2.3-3.7-2.3-3.7l0.3-0.2c0,0,0.8,1.3,2.6,3.5c1.8,2.2,4.4,5.4,8.3,8.9c1.9,1.8,4.1,3.7,6.7,5.5
        c0.6,0.5,1.3,1,1.9,1.4c0.7,0.5,1.3,0.9,2.1,1.4c0.7,0.5,1.5,0.9,2.2,1.4l0.3,0.2c0.1,0,0.2,0.1,0.3,0.1l0.6,0.3
        c0.4,0.2,0.7,0.4,1.2,0.6c6.4,2.9,14.8,4,23.5,2.8c4.3-0.6,8.8-1.8,13-3.8c4.2-2,8.3-4.8,11.9-8.2c3.6-3.5,6.8-7.5,9.5-12.1
        c2.7-4.6,4.8-9.6,6.5-14.8c3.4-10.5,5.3-22,6-33.7c0.1-2.9,0.3-5.9,0.3-8.8c0-3,0-6,0-9c-0.1-3-0.1-6-0.4-9l-0.3-4.5l-0.5-4.5
        c-1.3-11.9-3.8-23.7-8.2-34.6c-4.4-10.8-10.8-20.8-19.3-28c-8.4-7.2-18.7-11.6-28.8-13c-5-0.8-10.1-0.9-14.9-0.6
        c-4.9,0.3-9.4,1-13.6,2.5c-4.2,1.5-7.9,3.7-11,6.3c-3.1,2.6-5.7,5.5-7.7,8.5c-4.1,6-6.4,12.1-7.9,17.1c-1.5,5-2.2,9.1-2.6,11.9
        c-0.4,2.8-0.4,4.3-0.4,4.3L635.3,405z"/>
</g>
<g>
    <path fill="#FFFFFF" d="M637.3,343c0,0,0.1-0.4,0.3-1.2c0.2-0.8,0.6-1.9,1.3-3.3c1.3-2.8,3.6-6.9,8-10.8c2.2-1.9,4.9-3.8,8.1-5.3
        c3.2-1.5,6.8-2.6,10.9-3.3c4-0.7,8.3-0.9,12.9-0.6c4.5,0.3,9.3,1,14.2,2c2.4,0.6,4.9,1.1,7.4,1.9c1.2,0.4,2.5,0.7,3.8,1.1
        c1.2,0.4,2.5,0.8,3.8,1.3c0.6,0.2,1.3,0.4,1.9,0.7c0.6,0.2,1.3,0.5,1.9,0.7c1.3,0.5,2.5,1,3.8,1.5c2.5,1.2,5.2,2.2,7.7,3.6
        c1.3,0.7,2.6,1.3,3.8,2c1.2,0.7,2.5,1.5,3.8,2.2c1.3,0.8,2.5,1.6,3.7,2.4c0.6,0.4,1.2,0.8,1.9,1.3l1.8,1.4l1.8,1.4
        c0.6,0.4,1.2,0.9,1.8,1.4c1.2,1,2.3,2,3.5,3c1.1,1.1,2.2,2.1,3.4,3.2c1.1,1,2.2,2.2,3.2,3.4c4.2,4.6,8.2,9.6,11.7,15
        c3.5,5.4,6.5,11.2,9.1,17.3c5.2,12.1,8.4,25.2,10,38.4c0.8,6.6,1.2,13.3,1.2,19.9c0,6.6-0.4,13.3-1.1,19.8
        c-0.8,6.5-1.8,13-3.2,19.2c-1.4,6.2-2.9,12.4-4.6,18.4c-3.5,11.9-7.5,23.4-12.5,33.7c-5,10.3-10.9,19.6-17.8,27
        c-6.8,7.5-15,12.6-22.7,15.3c-3.9,1.3-7.7,2.1-11.2,2.5c-0.9,0.2-1.7,0.1-2.6,0.2c-0.8,0-1.7,0.1-2.5,0.1c-1.6-0.1-3.2-0.1-4.6-0.2
        c-5.8-0.4-10.3-1.7-13.3-2.4c-3-0.9-4.5-1.4-4.5-1.4l0.1-0.4c0,0,1.6,0.4,4.6,1.2c3,0.6,7.4,1.6,13.2,1.7c5.7,0.2,12.7-0.6,20-3.3
        c7.3-2.9,14.7-8,21.1-15.3c6.4-7.2,12-16.3,16.7-26.5c2.3-5.1,4.5-10.4,6.5-16c2-5.6,3.8-11.3,5.5-17.2c1.7-5.9,3.3-12,4.7-18.1
        c1.4-6.1,2.5-12.4,3.4-18.8c0.9-6.4,1.3-12.9,1.4-19.4c0.1-6.5-0.1-13-0.8-19.5c-1.4-13-4.4-25.8-9.4-37.7
        c-2.5-5.9-5.4-11.6-8.7-17c-3.4-5.3-7.1-10.3-11.2-14.8c-1.1-1.1-2-2.3-3.1-3.3c-1.1-1.1-2.2-2.1-3.2-3.2c-1.1-1-2.3-2-3.4-2.9
        c-0.6-0.5-1.1-1-1.7-1.4l-1.7-1.4c-4.7-3.6-9.5-6.7-14.5-9.3c-2.4-1.4-5-2.5-7.4-3.7c-1.3-0.5-2.5-1-3.8-1.5
        c-0.6-0.3-1.3-0.5-1.9-0.8c-0.6-0.2-1.2-0.4-1.9-0.7c-1.3-0.4-2.5-0.9-3.7-1.3c-1.2-0.4-2.5-0.8-3.7-1.2c-2.4-0.8-4.9-1.3-7.3-2
        c-4.8-1.1-9.5-1.8-13.9-2.2c-4.5-0.3-8.7-0.2-12.7,0.4c-3.9,0.6-7.5,1.7-10.7,3.1c-3.1,1.4-5.8,3.2-8,5c-4.3,3.8-6.7,7.7-8,10.5
        c-0.7,1.4-1.1,2.5-1.3,3.2c-0.2,0.8-0.3,1.1-0.3,1.1L637.3,343z"/>
</g>
<g>
    <path fill="#FFFFFF" d="M436.3,248.9l-8.8,1.1c-2.9,0.4-5.8,0.8-8.7,1.3c-2.9,0.5-5.8,0.9-8.7,1.4c-2.9,0.5-5.8,1-8.7,1.6
        c-2.9,0.6-5.8,1.1-8.7,1.7c-2.9,0.6-5.8,1.2-8.6,1.9c-2.9,0.7-5.7,1.3-8.6,2.1c-2.9,0.7-5.7,1.4-8.5,2.2c-2.8,0.8-5.7,1.5-8.5,2.4
        c-2.8,0.8-5.7,1.6-8.5,2.5c-2.8,0.9-5.6,1.7-8.4,2.7c-2.8,1-5.6,1.9-8.4,2.9c-2.8,1-5.5,2-8.3,3c-2.7,1.1-5.5,2.1-8.2,3.2l-8.2,3.4
        l-8.1,3.5l0,0l1.1-2.4c1,3.7,1.9,7.4,2.8,11.1c0.9,3.7,1.7,7.4,2.4,11.1c1.5,7.4,2.8,14.9,3.9,22.3c1.1,7.5,2.2,15,3,22.5
        c0.8,7.5,1.5,15,2,22.6c0.5,7.5,0.8,15.1,0.9,22.7c0.2,7.6,0.1,15.1-0.1,22.7c-0.2,7.6-0.6,15.1-1.2,22.7
        c-0.6,7.5-1.4,15.1-2.4,22.6c-1.1,7.5-2.2,15-3.7,22.4c-1.5,7.4-3.1,14.9-4.9,22.2c-1.9,7.3-3.9,14.7-6.3,21.9
        c-2.4,7.2-4.9,14.4-7.8,21.5c-2.9,7-6,14.1-9.5,20.9c-0.8,1.7-1.8,3.4-2.6,5.1c-0.9,1.7-1.8,3.4-2.7,5.1l-2.9,5c-1,1.7-2,3.3-3,4.9
        c-1,1.6-2,3.3-3.1,4.9c-1,1.6-2.1,3.2-3.2,4.8l-3.3,4.7l-1.7,2.3l-1.7,2.3c-2.3,3-4.6,6.2-7.2,9c-0.7,0.7-1.3,1.4-2.1,2
        c-0.7,0.6-1.5,1.2-2.3,1.8c-1.6,1.1-3.3,2.2-5.3,3l0,0l-1.4-3.3c2.4,0.7,4.9,1,7.4,1.3c2.5,0.1,5-0.1,7.5-0.3
        c1.2-0.1,2.5-0.3,3.7-0.5l3.7-0.6l3.7-0.6l3.7-0.7c9.8-1.9,19.6-4.2,29.3-6.5c4.9-1.1,9.7-2.3,14.6-3.4c4.9-1.1,9.8-2.3,14.7-3.3
        c9.8-2.2,19.6-4.1,29.5-6c4.9-0.9,9.9-1.8,14.8-2.6l14.9-2.2c2.5-0.4,5-0.6,7.5-1l7.5-0.9c2.5-0.3,5-0.6,7.5-0.9l7.5-0.7l7.5-0.6
        c2.5-0.2,5-0.5,7.5-0.6l15.1-0.8c5-0.3,10-0.3,15.1-0.4l7.5-0.1l3.8-0.1l1.9,0l0.5,0l0.1,0l0.3,0l0.2,0l0.9,0c5,0.2,10,0.4,15,0.6
        c5,0.3,10.1,0.5,15.1,0.9c5,0.4,10,0.7,15,1.2l7.5,0.7l7.5,0.8c10,1.1,20,2.4,29.9,4c9.9,1.5,19.8,3.4,29.7,5.3
        c9.8,2,19.6,4.2,29.4,6.6c9.7,2.4,19.4,4.9,29.1,7.5c4.8,1.3,9.7,2.5,14.6,3.6c4.9,1.1,9.8,2.1,14.7,2.9c4.9,0.7,9.9,1.2,14.9,0.9
        c4.9-0.3,9.9-1.4,14.3-3.5l0,0l-1.1,3.1c-2.8-2.6-5.3-5.5-7.8-8.4c-1.2-1.5-2.4-2.9-3.6-4.4c-0.6-0.8-1.2-1.5-1.7-2.3
        c-0.5-0.8-1.1-1.6-1.6-2.3c-2.1-3.1-4.1-6.4-6.1-9.6c-1-1.6-2.1-3.2-3-4.8l-2.8-5c-1.9-3.3-3.7-6.6-5.5-9.9l-5.1-10.2l-2.5-5.1
        c-0.8-1.7-1.5-3.5-2.3-5.2l-4.5-10.4c-1.4-3.5-2.7-7.1-4.1-10.6l-2-5.3c-0.7-1.8-1.2-3.6-1.8-5.4l-3.6-10.8l-3.2-10.9
        c-0.5-1.8-1.1-3.6-1.6-5.4l-1.4-5.5c-0.9-3.7-2-7.3-2.8-11l-2.4-11c-0.4-1.8-0.7-3.7-1.1-5.5l-1-5.6c-0.3-1.9-0.7-3.7-1-5.6
        l-0.8-5.6c-0.5-3.7-1.2-7.4-1.6-11.2c-0.4-3.7-0.9-7.5-1.2-11.2l-0.9-11.3c-0.3-3.8-0.4-7.5-0.6-11.3l-0.1-2.8l-0.1-2.8l-0.1-5.6
        c-0.1-3.8,0-7.5,0-11.3c0-3.8,0.2-7.5,0.3-11.3c0.1-3.8,0.4-7.5,0.6-11.3c0.2-3.8,0.6-7.5,0.9-11.3c0.1-1.9,0.3-3.8,0.6-5.6
        l0.6-5.6c0.5-3.7,1-7.5,1.5-11.2c1.1-7.5,2.5-14.9,4-22.3c0.8-3.7,1.7-7.4,2.6-11c0.9-3.7,1.9-7.3,3.1-11l0,0l1.1,2.5l-7.9-3.4
        l-8-3.3c-2.7-1.1-5.4-2.1-8-3.1c-2.7-1-5.4-2-8.1-3c-2.7-1-5.4-1.9-8.1-2.8c-2.7-1-5.5-1.8-8.2-2.7c-2.7-0.9-5.5-1.7-8.2-2.5
        c-2.7-0.8-5.5-1.6-8.3-2.4c-2.8-0.8-5.6-1.5-8.3-2.2c-2.8-0.7-5.6-1.4-8.4-2.1c-2.8-0.7-5.6-1.3-8.4-1.9c-2.8-0.6-5.6-1.2-8.4-1.7
        c-2.8-0.6-5.7-1.1-8.5-1.6c-2.8-0.5-5.7-1-8.5-1.4c-2.8-0.5-5.7-0.9-8.5-1.3l-8.5-1.1l0.5-4l8.6,1.1c2.9,0.4,5.7,0.8,8.6,1.3
        c2.9,0.5,5.7,0.9,8.6,1.4c2.8,0.5,5.7,1,8.5,1.6c2.8,0.6,5.7,1.1,8.5,1.8c2.8,0.6,5.7,1.2,8.5,1.9c2.8,0.7,5.6,1.3,8.4,2.1
        c2.8,0.7,5.6,1.4,8.4,2.2c2.8,0.8,5.6,1.5,8.4,2.4c2.8,0.8,5.6,1.6,8.3,2.5c2.8,0.9,5.5,1.7,8.3,2.7c2.7,1,5.5,1.8,8.2,2.8
        c2.7,1,5.5,2,8.2,3c2.7,1.1,5.4,2.1,8.1,3.2l8,3.3l8,3.5l1.7,0.7l-0.6,1.8l0,0c-2.4,6.9-4.4,14.2-6,21.5c-1.7,7.3-3.1,14.6-4.4,22
        c-0.6,3.7-1.1,7.4-1.6,11.1l-0.7,5.6c-0.2,1.9-0.4,3.7-0.6,5.6c-0.3,3.7-0.8,7.4-1,11.2c-0.2,3.7-0.5,7.5-0.6,11.2
        c-0.1,3.7-0.3,7.5-0.3,11.2c0,3.7-0.1,7.5,0,11.2l0.1,5.6l0.1,2.8l0.1,2.8c0.2,3.7,0.4,7.5,0.6,11.2l1,11.2
        c0.4,3.7,0.9,7.4,1.3,11.1c0.4,3.7,1.1,7.4,1.7,11.1l0.9,5.5c0.3,1.8,0.7,3.7,1.1,5.5l1.1,5.5c0.4,1.8,0.7,3.7,1.2,5.5l2.6,10.9
        c0.4,1.8,1,3.6,1.5,5.4l1.6,5.4l1.6,5.4c0.6,1.8,1.2,3.5,1.8,5.3c1.2,3.5,2.4,7.1,3.6,10.6l4.1,10.4c0.7,1.7,1.3,3.5,2.1,5.2
        l2.3,5.1c1.5,3.4,3,6.8,4.6,10.2l4.9,10c0.8,1.7,1.6,3.4,2.5,5l2.7,4.9l5.3,9.8c1.9,3.2,3.8,6.4,5.7,9.6c3.6,6.5,7.9,12.6,11.7,19
        c0.5,0.8,0.9,1.6,1.4,2.4l1.5,2.4c1,1.6,1.9,3.2,2.9,4.8c1.8,3.3,3.6,6.6,5.1,10.1l1.3,3l-2.4,0.1l0,0c-10.4,1.2-20.4,1.1-30.4-0.2
        c-10-1.3-19.7-3.7-29.5-5.9c-9.8-2.2-19.5-4.5-29.3-6.5c-9.8-2-19.6-3.8-29.5-5.4c-9.9-1.6-19.7-3-29.7-4.1c-2.5-0.3-5-0.6-7.4-0.8
        c-2.5-0.3-5-0.6-7.4-0.8c-5-0.5-9.9-1-14.9-1.3l-7.5-0.6l-7.5-0.5c-5-0.4-10-0.6-14.9-0.9c-5-0.3-9.9-0.5-14.9-0.8
        c-5-0.2-10-0.4-15-0.6l-0.9,0l-0.2,0c0,0-0.2,0,0,0l-0.1,0l-0.5,0l-1.9,0l-3.7,0l-7.5,0.1c-5,0.1-10,0-14.9,0.3l-14.9,0.5
        c-2.5,0-5,0.2-7.5,0.4l-7.5,0.5l-7.5,0.4c-2.5,0.2-5,0.4-7.5,0.6c-5,0.4-9.9,0.8-14.9,1.3l-14.9,1.6c-5,0.6-9.9,1.3-14.9,1.9
        c-9.9,1.4-19.8,2.9-29.6,4.7c-4.9,0.8-9.8,1.8-14.8,2.7c-4.9,0.9-9.8,2-14.7,2.9l-14.7,3l-7.4,1.5c-2.5,0.5-4.9,0.9-7.4,1.3
        l-3.7,0.7l-3.7,0.5l-3.7,0.5l-1.9,0.3c-0.6,0.1-1.2,0.1-1.9,0.2c-2.5,0.2-5,0.6-7.5,1.1c-2.5,0.3-5,0.8-7.6,1.6l-3.1,1l1.6-4.3l0,0
        c1-4.1,3-7.3,5-10.4c1.1-1.5,2.3-2.9,3.4-4.4l3.4-4.4l1.7-2.2l1.6-2.2l3.2-4.5c2-3.1,4.2-6.1,6.2-9.2c1-1.6,2-3.1,3-4.7l2.9-4.7
        c1-1.6,1.9-3.2,2.8-4.8c0.9-1.6,1.9-3.2,2.8-4.8c3.6-6.5,6.9-13.1,10.1-19.8c3.1-6.7,6-13.6,8.7-20.6c2.6-7,5-14,7.2-21.2
        c2.1-7.2,4-14.4,5.6-21.7c1.6-7.3,3-14.7,4.1-22.1c1.1-7.4,2-14.8,2.7-22.3c0.7-7.5,1.2-14.9,1.5-22.4c0.3-7.5,0.4-15,0.3-22.5
        c-0.1-7.5-0.4-15-0.8-22.5c-0.5-7.5-1.1-15-1.9-22.4c-0.8-7.5-1.8-14.9-3-22.3c-1.2-7.4-2.5-14.8-4.1-22.1
        c-1.5-7.3-3.3-14.7-5.3-21.8l-0.5-1.7l1.6-0.7l0,0l8.2-3.5l8.2-3.4c2.8-1.1,5.5-2.1,8.3-3.2c2.8-1.1,5.6-2,8.4-3.1
        c2.8-1,5.6-1.9,8.4-2.9c2.8-1,5.7-1.8,8.5-2.7c2.8-0.9,5.7-1.7,8.5-2.6c2.8-0.9,5.7-1.6,8.6-2.4c2.9-0.8,5.7-1.5,8.6-2.2
        c2.9-0.8,5.8-1.4,8.7-2.1c2.9-0.7,5.8-1.3,8.7-1.9c2.9-0.7,5.8-1.2,8.7-1.8c2.9-0.6,5.8-1.1,8.8-1.6c2.9-0.5,5.9-1,8.8-1.4
        c2.9-0.5,5.9-0.8,8.8-1.3l8.8-1.1L436.3,248.9z"/>
</g>
<g>
    <path fill="#FFFFFF" d="M360.4,558c-0.9-1.7-2-3.3-3.2-4.8c-1.1-1.6-2.3-3.1-3.5-4.6c-2.4-3-4.9-5.9-7.5-8.7
        c-5.2-5.7-10.3-11.4-15.3-17.3c-2.5-2.9-4.9-6-7.2-9c-1.2-1.5-2.3-3.1-3.5-4.7c-1.1-1.6-2.3-3.1-3.4-4.8c-1.1-1.6-2.1-3.2-3.2-4.9
        c-1-1.7-2.1-3.3-3-5l-1.5-2.5l-1.4-2.6l-0.7-1.3c-0.1-0.2-0.2-0.4-0.3-0.7c0,0,0-0.1,0-0.2l0.3-0.3c0.2-0.2,0.1-0.3,0-0.4l-1.2-2.7
        l3.4-0.5c-0.2,2.2-0.6,4.2-0.9,6.2c-0.4,2-0.8,4.1-1.2,6.1l-0.7,3l-0.7,3c-0.5,2-1,4-1.6,6c-0.5,2-1.1,4-1.7,6
        c-0.6,2-1.2,4-1.8,5.9c-0.6,2-1.3,3.9-2,5.9l-2.1,5.9l-2.2,5.8c-0.7,1.9-1.5,3.8-2.3,5.8c-0.8,1.9-1.6,3.8-2.4,5.7l-2.5,5.7
        L286,557l-1.4,2.8l-2.7,5.6c-0.9,1.9-1.9,3.7-2.9,5.5l-1.4,2.7c-0.5,0.9-0.7,2-1.2,2.9l-3.3-2.7c0.9-0.8,1.7-1.2,2.5-1.8
        c0.8-0.5,1.7-1,2.5-1.5l2.5-1.3l2.6-1.2c0.9-0.4,1.7-0.7,2.6-1.1c0.9-0.3,1.8-0.7,2.6-1c1.8-0.6,3.6-1.3,5.4-1.8
        c1.8-0.5,3.6-1.1,5.4-1.5l5.5-1.3l5.5-1c1.8-0.4,3.7-0.6,5.5-0.8c1.9-0.2,3.7-0.6,5.6-0.7l5.6-0.5c1.9-0.2,3.7-0.2,5.6-0.3l5.6-0.3
        l5.6,0c1.9,0,3.7,0,5.6,0L360.4,558z M360.4,558l-11.1,0.2c-1.9,0.1-3.7,0.2-5.6,0.3l-5.5,0.3l-5.5,0.5c-1.8,0.2-3.7,0.3-5.5,0.6
        l-5.5,0.8c-1.8,0.2-3.6,0.6-5.4,1c-1.8,0.4-3.6,0.6-5.4,1.1l-5.4,1.3l-5.3,1.5c-1.8,0.5-3.5,1.2-5.2,1.7c-1.7,0.6-3.4,1.3-5.1,2
        c-0.8,0.3-1.7,0.7-2.5,1.1c-0.8,0.4-1.7,0.7-2.5,1.2l-2.4,1.2l-2.3,1.4c-0.8,0.5-1.5,1-2.2,1.4l-1.1,0.8l-0.9,0.7l-8.6,6.9l5.3-9.5
        c0.5-0.9,1.3-1.6,1.7-2.5l1.5-2.7c1-1.8,2-3.6,2.9-5.4l2.7-5.5l1.4-2.8l1.3-2.8l2.6-5.6c0.8-1.9,1.6-3.8,2.4-5.7
        c0.8-1.9,1.6-3.8,2.3-5.7l2.2-5.7l2.1-5.8c0.7-1.9,1.3-3.9,1.9-5.8c0.6-1.9,1.3-3.9,1.8-5.9c0.6-2,1.2-3.9,1.7-5.9
        c0.5-2,1-4,1.5-5.9l0.7-3l0.6-3c0.4-2,0.8-4,1.1-6c0.3-2,0.6-4,0.8-6l0.7-6.6l2.8,6.1l1.2,2.6c0.1,0.1,0,0.2,0.3,0.2l0.4,0
        c0.1,0,0.2,0,0.2,0.1c0.1,0.2,0.2,0.4,0.3,0.6l0.6,1.3l1.2,2.5l1.3,2.5c0.8,1.7,1.8,3.3,2.7,5c1,1.6,1.9,3.3,2.9,4.9
        c1,1.6,2,3.2,3.1,4.8c1,1.6,2.1,3.2,3.2,4.7l3.3,4.7c1.1,1.5,2.2,3.1,3.4,4.6c4.5,6.2,9.3,12.1,14.2,18.1c2.4,3,4.8,6.1,7,9.2
        c1.1,1.6,2.2,3.2,3.2,4.8C358.6,554.6,359.6,556.3,360.4,558z"/>
</g>
<path fill="none" stroke="#FFFFFF" stroke-width="3" stroke-miterlimit="10" d="M304,296.8c0,0-74.8-12.1-125.6,47
    c-57,66.2-53.3,242.2,72.1,265"/>
<path fill="none" stroke="#FFFFFF" stroke-width="3" stroke-miterlimit="10" d="M713.1,626c0,0-41,13-107,35
    c-82.4,27.5-179.3,27.5-261.7,0c-66-22-105-35-105-35"/>
<g>
    <ellipse fill="#FFFFFF" cx="276.4" cy="454" rx="13" ry="28.9"/>
    <path fill="#FFFFFF" d="M263.4,454c0,0,0,0.5,0,1.5c0,1,0.1,2.5,0.3,4.3c0.2,1.9,0.5,4.1,1,6.6c0.6,2.5,1.4,5.4,2.7,8.3
        c0.7,1.4,1.5,2.9,2.6,4.2c1.1,1.3,2.4,2.6,4,3.3c1.6,0.7,3.6,0.6,5.2-0.3c1.6-0.9,2.9-2.4,4-4c2.1-3.3,3.4-7.3,4.3-11.3
        c0.9-4.1,1.3-8.3,1.2-12.5c0-4.2-0.4-8.5-1.2-12.6c-0.9-4.1-2.2-8-4.3-11.3c-1.1-1.6-2.4-3.1-4-4c-1.6-0.9-3.6-1-5.2-0.3
        c-1.6,0.7-3,1.9-4,3.3c-1.1,1.3-1.9,2.8-2.6,4.2c-1.4,2.9-2.2,5.7-2.7,8.3c-0.5,2.5-0.9,4.8-1,6.6c-0.2,1.9-0.2,3.3-0.3,4.3
        C263.4,453.5,263.4,454,263.4,454z M263.4,454c0,0,0-0.5,0-1.5c0-1,0.1-2.5,0.2-4.3c0.2-1.9,0.5-4.1,1-6.7c0.5-2.5,1.3-5.4,2.6-8.3
        c0.7-1.5,1.5-3,2.5-4.3c1-1.4,2.4-2.7,4.1-3.5c1.7-0.8,3.9-0.7,5.7,0.3c1.8,0.9,3.2,2.5,4.3,4.1c2.3,3.4,3.7,7.4,4.6,11.5
        c0.9,4.1,1.3,8.4,1.4,12.7c0,4.3-0.5,8.6-1.4,12.7c-0.9,4.1-2.3,8.1-4.6,11.5c-1.2,1.7-2.6,3.2-4.3,4.1c-1.8,1-3.9,1-5.7,0.3
        c-1.7-0.8-3.1-2.1-4.1-3.5c-1.1-1.4-1.9-2.9-2.5-4.3c-1.3-2.9-2.1-5.8-2.6-8.3c-0.5-2.6-0.8-4.8-1-6.7c-0.2-1.9-0.2-3.3-0.2-4.3
        C263.4,454.5,263.4,454,263.4,454z"/>
</g>
<g>
    <path fill="#FFFFFF" d="M301.2,428c0,0,0-0.3,0-1c0-0.6-0.1-1.6-0.1-2.8c-0.2-2.5-0.4-6.1-1.2-10.7c-0.8-4.6-2.1-10.1-4.8-16
        c-1.4-2.9-3.2-5.8-5.6-8.5c-2.4-2.6-5.6-4.8-9.2-6.1c-1.8-0.6-3.8-1-5.8-1.2c-2-0.2-4.1,0-6.1,0.2c-2.2,0.3-4.1,0.7-6.2,1.4
        c-2,0.6-4,1.6-5.9,2.7c-3.8,2.3-7.1,5.4-9.8,9.2c-2.7,3.8-4.8,8.1-6.4,12.7c-3.2,9.2-4.6,19.4-5,29.8c-0.3,10.4,0.4,20.9,1.9,31.3
        c0.8,5.2,1.8,10.4,3,15.5c1.2,5.1,2.7,10.1,4.6,14.8c1.9,4.6,4.4,9.1,7.5,12.5c3.2,3.4,7.2,5.6,11.4,5.4c4.2,0,8.5-2,11.9-4.7
        l1.4-1.1l1.2-1.1c0.8-0.7,1.6-1.6,2.4-2.3c1.5-1.6,2.9-3.3,4.2-5.1c5.1-7.2,8.3-15.1,10.7-22.6c2.3-7.5,3.7-14.7,4.6-21.1
        c0.5-3.2,0.8-6.2,1.1-9c0.2-2.8,0.4-5.4,0.5-7.7c0.2-4.6,0.2-8.3,0.2-10.8C301.2,429.3,301.2,428,301.2,428z M301.7,428
        c0,0,0.1,1.3,0.2,3.8c0.1,2.5,0.2,6.2,0.2,10.8c0,4.7-0.1,10.3-0.6,16.8c-0.5,6.5-1.4,13.9-3.2,21.8c-1.8,7.9-4.7,16.4-10,24.4
        c-1.3,2-2.8,3.9-4.4,5.8c-0.9,0.9-1.7,1.8-2.6,2.7l-1.4,1.3l-1.4,1.1c-2,1.7-4.3,3.1-6.8,4.1c-2.5,1-5.3,1.7-8.2,1.8
        c-0.4,0-0.7,0-1.1,0c-0.4,0-0.7,0-1.1-0.1c-0.4,0-0.8-0.1-1.1-0.2l-0.5-0.1l-0.2,0l-0.2,0l-0.1,0c-1.4-0.4-2.8-0.8-4.1-1.5
        c-2.6-1.3-4.8-3.2-6.7-5.2c-3.8-4.2-6.2-9.1-8.2-14.2c-1.9-5.1-3.3-10.3-4.5-15.5c-1.2-5.2-2.1-10.6-2.7-15.9
        c-1.4-10.7-1.9-21.4-1.4-32c0.6-10.6,2.1-21,5.7-30.6c1.8-4.8,4.1-9.3,7-13.3c2.9-4,6.7-7.3,10.8-9.6c4.1-2.3,8.7-3.5,13.1-4
        c2.2-0.2,4.4-0.2,6.5,0c2.1,0.3,4.2,0.7,6.1,1.5c3.9,1.5,7.1,3.9,9.5,6.7c2.4,2.8,4.2,5.9,5.5,8.8c1.3,3,2.2,5.9,3,8.6
        c0.7,2.7,1.2,5.3,1.6,7.6c0.7,4.6,1.1,8.3,1.3,10.8c0.1,1.2,0.1,2.2,0.2,2.8C301.6,427.7,301.7,428,301.7,428z"/>
</g>
<g>
    <path fill="#FFFFFF" d="M314.8,405.1c0,0-0.1-1.5-0.4-4.4c-0.4-2.8-1.1-7-2.6-12.1c-1.5-5.1-3.9-11.2-8.1-17.2
        c-2.1-3-4.7-6-7.9-8.6c-3.2-2.6-7-4.7-11.3-6.2c-4.3-1.5-9-2.1-13.9-2.5c-4.9-0.4-10-0.5-15.1-0.1c-5.2,0.4-10.4,1.4-15.6,3.1
        c-5.1,1.7-10.1,4.2-14.5,7.7c-4.4,3.4-8.3,7.7-11.5,12.5c-3.2,4.8-5.7,10.1-7.7,15.7c-2,5.6-3.5,11.4-4.5,17.3l-0.4,2.2l-0.3,2.2
        c-0.2,1.5-0.4,3-0.6,4.5c-0.3,3-0.6,6-0.8,9.1c-0.7,12.1-0.4,24.3,0.7,36.2l0.2,2.2l0.3,2.2c0.2,1.5,0.4,2.9,0.6,4.4
        c0.2,1.5,0.5,2.9,0.7,4.4c0.2,1.4,0.5,2.9,0.7,4.3c0.3,1.4,0.6,2.8,0.9,4.2l0.5,2.1c0.2,0.7,0.4,1.4,0.6,2.1
        c0.4,1.4,0.8,2.8,1.1,4.1c0.4,1.3,0.9,2.7,1.3,4c3.5,10.7,8.8,20.3,15.9,27.6c3.5,3.6,7.5,6.5,11.8,8.7c4.2,2.1,8.7,3.4,13.1,4.1
        c4.4,0.6,8.7,0.5,12.7-0.1c4-0.6,7.7-1.7,10.8-3.5c6.3-3.7,11.5-7.7,15.6-11.1c4.1-3.4,7.1-6.4,9.1-8.4c2-2,3-3.2,3-3.2l0.3,0.3
        c0,0-0.9,1.2-2.8,3.4c-1.9,2.2-4.8,5.3-8.7,8.9c-2,1.8-4.2,3.8-6.7,5.8c-1.3,1-2.6,2-4.1,3.1c-0.7,0.5-1.4,1-2.2,1.5
        c-0.4,0.3-0.7,0.5-1.1,0.8l-0.6,0.4l-0.6,0.4c-3.4,2-7.3,3.4-11.5,4.2c-2.1,0.4-4.3,0.7-6.6,0.8c-1.1,0-2.3,0.1-3.4,0
        c-1.2-0.1-2.3-0.1-3.5-0.3c-4.7-0.5-9.6-1.9-14.2-4.1c-4.6-2.2-9.1-5.3-13-9.1c-3.9-3.8-7.3-8.3-10.1-13.2
        c-2.9-4.9-5.1-10.2-7-15.8c-0.4-1.4-0.9-2.8-1.3-4.2c-0.4-1.4-0.7-2.8-1.1-4.3c-0.2-0.7-0.4-1.4-0.6-2.2l-0.5-2.2
        c-0.3-1.5-0.6-2.9-0.9-4.4c-0.5-2.9-1-5.9-1.4-8.9c-0.2-1.5-0.3-3-0.5-4.5l-0.3-2.3l-0.2-2.3c-0.9-12.1-1-24.4-0.1-36.7
        c0.2-3.1,0.6-6.1,0.9-9.2c0.2-1.5,0.4-3.1,0.7-4.6l0.3-2.3l0.4-2.3c1.1-6.1,2.7-12,4.8-17.7c2.1-5.7,4.8-11.2,8.2-16.2
        c3.4-5,7.5-9.4,12.2-12.9c4.7-3.6,9.9-6.1,15.3-7.8c5.3-1.7,10.8-2.6,16.1-3c5.3-0.3,10.5-0.1,15.4,0.3c1.2,0.1,2.5,0.2,3.7,0.4
        c1.2,0.2,2.4,0.3,3.6,0.5c0.6,0.1,1.2,0.2,1.8,0.3c0.6,0.1,1.2,0.3,1.7,0.4c0.6,0.2,1.1,0.3,1.7,0.5c0.6,0.2,1.1,0.4,1.7,0.6
        c4.4,1.6,8.3,3.8,11.6,6.6c3.3,2.7,5.9,5.8,8,8.9c4.2,6.3,6.5,12.5,8,17.6c1.5,5.2,2.1,9.4,2.4,12.2c0.3,2.9,0.4,4.4,0.4,4.4
        L314.8,405.1z"/>
</g>
<g>
    <path fill="#FFFFFF" d="M310.8,343.1c0,0-0.1-0.4-0.3-1.2c-0.2-0.8-0.6-1.9-1.2-3.3c-1.2-2.8-3.4-6.9-7.7-10.8
        c-2.1-1.9-4.8-3.7-8-5.1c-3.2-1.4-6.8-2.4-10.8-2.9c-8-1-17.1-0.1-26.7,2.4c-4.8,1.2-9.7,2.8-14.7,4.7c-1.2,0.5-2.5,1-3.8,1.5
        c-0.6,0.3-1.3,0.5-1.9,0.8c-0.6,0.3-1.2,0.6-1.9,0.9c-1.2,0.6-2.5,1.2-3.7,1.8c-1.2,0.7-2.5,1.3-3.7,2c-1.3,0.6-2.4,1.4-3.7,2.2
        c-1.2,0.8-2.5,1.5-3.6,2.3c-1.2,0.8-2.4,1.7-3.6,2.5c-1.2,0.9-2.3,1.8-3.5,2.7c-4.6,3.7-9,7.9-13,12.6c-8,9.3-14.6,20.4-19.3,32.4
        c-4.6,12.1-7.6,25-8.7,38.1c-0.6,6.5-0.7,13.1-0.5,19.7c0.2,6.5,0.8,13,1.7,19.4c0.9,6.4,2.2,12.7,3.7,18.9
        c0.7,3.1,1.6,6.2,2.4,9.2c0.9,3,1.7,6,2.7,8.9c3.6,11.8,8.2,22.8,13.5,32.8c5.4,9.9,11.5,18.7,18.6,25.4c3.5,3.4,7.2,6.3,10.9,8.7
        c3.7,2.4,7.6,4.1,11.3,5.5c7.5,2.6,14.5,3.2,20.3,3.1c5.8-0.1,10.2-1.1,13.3-1.7c3-0.8,4.6-1.2,4.6-1.2l0.1,0.4
        c0,0-1.6,0.5-4.6,1.5c-3,0.8-7.5,2-13.4,2.4c-1.5,0.1-3,0.1-4.6,0.2c-0.8,0-1.6-0.1-2.5-0.1c-0.9,0-1.7-0.1-2.6-0.1
        c-0.9-0.1-1.8-0.2-2.7-0.3c-0.5-0.1-0.9-0.1-1.4-0.2c-0.5-0.1-0.9-0.2-1.4-0.3c-0.9-0.2-1.9-0.4-2.9-0.6c-1-0.3-1.9-0.6-2.9-0.8
        c-3.9-1.3-8-3-12-5.3c-4-2.4-7.9-5.3-11.7-8.7c-7.5-6.9-14.1-15.8-19.8-25.8c-2.8-5-5.4-10.4-7.7-16c-2.4-5.6-4.5-11.4-6.4-17.4
        c-1-3-1.8-6-2.7-9.1c-0.8-3.1-1.6-6.2-2.3-9.3c-1.5-6.3-2.7-12.7-3.5-19.3c-0.8-6.5-1.3-13.2-1.5-19.9c-0.1-6.7,0.2-13.4,0.8-20.1
        c1.3-13.3,4.4-26.5,9.3-38.8c4.9-12.3,11.8-23.5,20.1-33c4.2-4.7,8.7-8.9,13.5-12.7c4.7-3.8,9.8-6.9,14.8-9.7
        c1.3-0.7,2.5-1.3,3.8-2c1.3-0.6,2.6-1.2,3.9-1.8c0.6-0.3,1.3-0.6,1.9-0.9c0.6-0.3,1.3-0.5,1.9-0.8c1.3-0.5,2.5-1,3.8-1.5
        c5.1-1.8,10.1-3.4,15-4.5c9.7-2.4,19.1-3.1,27.2-2c4,0.6,7.8,1.6,11,3.1c3.2,1.5,5.9,3.3,8.1,5.3c4.4,4,6.5,8.2,7.7,11.1
        c0.6,1.5,0.9,2.6,1.1,3.4c0.2,0.8,0.3,1.2,0.3,1.2L310.8,343.1z"/>
</g>
<g>
    <path fill="#FFFFFF" d="M525.1,297.3c-0.1,3.5-0.2,7-0.4,10.6c-0.2,3.6-0.4,7.2-0.8,10.8l-0.5,5.3l-0.6,5.3
        c-0.4,3.6-1,7.1-1.5,10.6c-0.3,1.8-0.6,3.5-0.9,5.3c-0.3,1.8-0.6,3.5-1,5.3c-0.7,3.5-1.4,7-2.2,10.5c-0.7,3.5-1.7,6.9-2.5,10.4
        c-1,3.4-1.8,6.9-2.9,10.3c-1,3.4-2.1,6.8-3.2,10.2c-1.2,3.4-2.3,6.7-3.6,10c-0.6,1.7-1.3,3.3-1.9,5c-0.6,1.7-1.3,3.3-2,4.9
        c-1.4,3.3-2.8,6.5-4.3,9.8c-1.5,3.2-3,6.4-4.6,9.6c-1.6,3.2-3.3,6.3-5,9.4c-1.7,3.1-3.5,6.2-5.4,9.2c-1.9,3-3.8,6-5.9,8.9l-0.7,1.1
        l-0.9-1.1c-2.2-2.8-4.1-5.7-6-8.6c-1.9-2.9-3.7-6-5.4-9c-3.4-6.1-6.6-12.4-9.4-18.8c-2.9-6.4-5.5-12.9-7.8-19.5
        c-2.3-6.6-4.4-13.3-6.3-20.1c-1.8-6.8-3.5-13.6-4.8-20.5c-0.7-3.4-1.3-6.9-1.9-10.4c-0.5-3.5-1.1-6.9-1.6-10.4
        c-0.4-3.5-0.9-7-1.2-10.5l-0.5-5.2l-0.4-5.3c-0.3-3.5-0.4-7-0.6-10.5c-0.2-3.5-0.2-7-0.3-10.5l0-1.3l0-0.7l0-0.7l0-2.6l0-5.2
        c0.1-3.5,0.2-7.1,0.3-10.6c0.4-7,0.9-14.1,1.7-21.1c0.2-1.7,0.4-3.5,0.6-5.3l0.8-5.2l0.4-2.6l0.4-2.6l0.9-5.2
        c1.3-6.9,2.8-13.8,4.7-20.6c1.9-6.8,3.9-13.6,6.3-20.2c2.4-6.6,5.1-13.2,8.1-19.6c1.5-3.2,3.1-6.4,4.7-9.5c1.7-3.1,3.4-6.2,5.2-9.2
        c1.8-3,3.8-6,5.8-8.9c1-1.5,2.1-2.9,3.1-4.3c1.1-1.4,2.2-2.8,3.4-4.2l1.8-2l1.3,2.1v0c2.2,2.8,4.1,5.7,6,8.6
        c1.9,2.9,3.7,5.9,5.4,8.9c1.7,3,3.4,6,5,9.1c1.6,3.1,3.1,6.2,4.6,9.3c1.5,3.1,2.9,6.3,4.2,9.5c0.7,1.6,1.3,3.2,2,4.8
        c0.7,1.6,1.3,3.2,1.9,4.9c1.3,3.2,2.4,6.5,3.5,9.8c1.1,3.3,2.2,6.6,3.1,10c0.5,1.7,1,3.3,1.4,5c0.5,1.7,0.9,3.4,1.4,5
        c0.8,3.4,1.7,6.8,2.4,10.2c0.8,3.4,1.4,6.8,2.1,10.2c0.6,3.4,1.2,6.9,1.7,10.3c0.4,3.5,1,6.9,1.3,10.4l0.5,5.2
        c0.1,1.7,0.2,3.5,0.3,5.2c0.2,3.5,0.2,7,0.3,10.5C525.1,290.3,525.1,293.8,525.1,297.3L525.1,297.3z M515.6,297.2
        c-0.1-3.4-0.2-6.8-0.4-10.1c-0.2-3.4-0.4-6.7-0.7-10.1c-0.2-1.7-0.3-3.4-0.4-5l-0.5-5c-0.3-3.4-0.7-6.7-1.1-10.1
        c-0.2-1.7-0.5-3.3-0.7-5c-0.2-1.7-0.4-3.3-0.7-5c-0.5-3.3-1-6.7-1.7-10c-0.6-3.3-1.3-6.6-2-9.9c-0.4-1.7-0.8-3.3-1.1-4.9
        c-0.4-1.6-0.8-3.3-1.2-4.9c-0.8-3.3-1.7-6.5-2.7-9.8c-1-3.2-1.9-6.5-3-9.7c-0.5-1.6-1-3.2-1.6-4.8c-0.6-1.6-1.1-3.2-1.7-4.8
        c-1.1-3.2-2.4-6.3-3.6-9.5c-1.3-3.1-2.6-6.3-4-9.3c-1.4-3.1-2.8-6.2-4.3-9.2c-1.5-3-3.1-6.1-4.7-9c-1.6-2.9-3.3-5.9-5.1-8.7v0
        l3.2,0.1c-1.8,2.7-3.5,5.8-5.2,8.7c-1.6,3-3.2,6-4.7,9.1c-1.5,3.1-2.9,6.2-4.3,9.3c-1.4,3.1-2.7,6.3-3.9,9.5
        c-2.4,6.4-4.8,12.8-6.8,19.3c-2,6.5-3.8,13.1-5.4,19.7l-1.2,5c-0.4,1.7-0.7,3.3-1.1,5c-0.8,3.3-1.3,6.7-2,10
        c-1.1,6.7-2.2,13.5-3,20.3c-0.9,6.8-1.4,13.6-1.9,20.4c-0.2,3.4-0.3,6.8-0.4,10.2l-0.1,5.2l-0.1,2.6l0,0.7l0,0.6l0,1.3
        c0,6.8,0.1,13.7,0.4,20.5l0.3,5.1l0.4,5.1c0.2,3.4,0.6,6.8,0.9,10.2c0.1,1.7,0.4,3.4,0.6,5.1l0.6,5.1c0.5,3.4,0.9,6.8,1.5,10.2
        c1.1,6.8,2.5,13.5,4,20.2c1.5,6.7,3.2,13.3,5.2,19.9c2,6.6,4.1,13.1,6.5,19.5c2.4,6.4,5.1,12.8,8,19c1.5,3.1,3,6.2,4.6,9.2
        c1.6,3,3.3,6.1,5.1,8.9l-1.6,0c1.9-2.9,3.7-5.9,5.4-9c1.7-3.1,3.3-6.2,4.9-9.3c1.5-3.1,3.1-6.3,4.5-9.5c1.4-3.2,2.8-6.4,4.1-9.7
        c1.3-3.2,2.6-6.5,3.8-9.8c0.6-1.6,1.2-3.3,1.8-4.9c0.6-1.7,1.1-3.3,1.7-5c1.1-3.3,2.1-6.7,3.1-10c0.9-3.4,1.9-6.7,2.7-10.1
        c0.9-3.4,1.6-6.8,2.4-10.2c0.7-3.4,1.4-6.8,2-10.3c0.7-3.4,1.2-6.9,1.7-10.3c0.3-1.7,0.5-3.5,0.7-5.2c0.2-1.7,0.5-3.5,0.6-5.2
        c0.3-3.5,0.8-6.9,1-10.4l0.4-5.2l0.3-5.2c0.2-3.5,0.2-6.9,0.3-10.4C515.7,304.3,515.6,300.7,515.6,297.2L515.6,297.2z"/>
</g>
<g>
    <path fill="#FFFFFF" d="M435.7,680.5l0.1-1.2l0.1-0.6c0-0.2,0.1-0.5,0.1-0.7c0.2-1,0.3-1.9,0.6-2.7c0.2-0.8,0.5-1.7,0.8-2.4
        c0.3-0.8,0.6-1.6,0.9-2.3c0.6-1.5,1.3-3,2-4.5c0.7-1.5,1.5-2.9,2.2-4.3c1.5-2.8,3.2-5.5,4.9-8.1c1.7-2.6,3.5-5.2,5.3-7.8
        c3.6-5.1,7.4-10.1,11.2-15c3.9-4.9,7.8-9.7,11.9-14.4l0.4-0.5l0.4,0.5c4,4.7,8,9.4,11.8,14.3c3.8,4.8,7.5,9.8,11.1,14.9
        c1.8,2.5,3.5,5.1,5.2,7.7c1.7,2.6,3.3,5.3,4.8,8.1c0.8,1.4,1.5,2.8,2.2,4.2c0.7,1.4,1.4,2.9,2,4.4c0.3,0.7,0.6,1.5,0.9,2.3
        c0.3,0.8,0.5,1.6,0.7,2.4c0.5,1.6,0.8,3.4,0.9,5.3h-7c0-1.2-0.1-2.5-0.3-3.8c-0.1-0.7-0.3-1.3-0.5-2c-0.2-0.7-0.4-1.4-0.6-2.1
        c-0.4-1.4-0.9-2.8-1.5-4.1c-0.5-1.4-1.1-2.7-1.7-4.1c-1.2-2.7-2.6-5.4-4-8.1c-1.4-2.7-2.9-5.3-4.5-8c-3.1-5.3-6.4-10.4-9.8-15.5
        c-3.4-5.1-6.9-10.1-10.6-15.1h0.9c-3.7,5-7.2,10.1-10.7,15.2c-3.4,5.2-6.8,10.4-9.9,15.7c-1.6,2.7-3.1,5.3-4.5,8
        c-1.4,2.7-2.8,5.4-4.1,8.2c-0.6,1.4-1.2,2.8-1.8,4.2c-0.5,1.4-1.1,2.8-1.5,4.2c-0.2,0.7-0.4,1.4-0.6,2.1c-0.2,0.7-0.3,1.4-0.5,2.1
        c-0.2,0.7-0.2,1.3-0.3,1.9c0,0.2,0,0.3-0.1,0.4l0,0.6l0,1.2L435.7,680.5z"/>
</g>
<g>
    <path fill="#FFFFFF" d="M498.6,322.7c-0.1,2-0.1,3.9-0.2,5.9c-0.1,2-0.2,4-0.3,6c-0.2,4-0.6,7.9-1.1,11.9c-0.2,2-0.5,3.9-0.8,5.9
        c-0.3,2-0.6,3.9-1,5.9c-0.3,2-0.7,3.9-1.1,5.8c-0.4,1.9-0.8,3.9-1.3,5.8c-0.5,1.9-1,3.9-1.5,5.8c-0.5,1.9-1.1,3.8-1.6,5.7
        c-1.1,3.8-2.4,7.6-3.8,11.3c-1.4,3.7-2.9,7.4-4.5,11c-0.8,1.8-1.7,3.6-2.5,5.4c-0.9,1.8-1.8,3.5-2.8,5.3l-0.4,0.7l-0.5-0.7
        c-2.2-3.3-4-6.8-5.6-10.3c-1.7-3.5-3.2-7.2-4.6-10.8c-2.8-7.3-5-14.9-6.9-22.5c-0.9-3.8-1.7-7.7-2.4-11.5c-0.4-1.9-0.6-3.9-1-5.8
        c-0.3-1.9-0.6-3.9-0.8-5.8c-0.2-2-0.5-3.9-0.6-5.9l-0.3-2.9l-0.2-2.9c-0.3-3.9-0.4-7.8-0.5-11.8c-0.1-2,0-3.9,0-5.9
        c0-2,0.1-3.9,0.1-5.9c0.2-3.9,0.4-7.9,0.7-11.8c0.3-3.9,0.8-7.8,1.3-11.8c0.6-3.9,1.2-7.8,2-11.7c1.6-7.7,3.7-15.4,6.4-22.9
        c1.3-3.7,2.8-7.4,4.5-11.1c0.8-1.8,1.7-3.6,2.7-5.4c0.5-0.9,1-1.8,1.5-2.7c0.5-0.9,1-1.7,1.7-2.7l2.7-4l2.4,4.1
        c1.1,1.8,1.9,3.5,2.8,5.3c0.9,1.8,1.7,3.6,2.5,5.4c1.6,3.6,3,7.2,4.3,10.9c0.6,1.8,1.3,3.7,1.9,5.6c0.6,1.9,1.2,3.7,1.7,5.6
        c0.5,1.9,1,3.8,1.5,5.6c0.5,1.9,0.9,3.8,1.3,5.7c0.4,1.9,0.8,3.8,1.2,5.7c0.4,1.9,0.7,3.8,1,5.7c0.3,1.9,0.6,3.8,0.8,5.8
        c0.2,1.9,0.5,3.9,0.6,5.8c0.4,3.9,0.7,7.7,0.8,11.6c0.1,1.9,0.1,3.9,0.2,5.8C498.7,318.8,498.6,320.8,498.6,322.7L498.6,322.7z
         M495.5,322.7c-0.1-1.9-0.1-3.8-0.2-5.7c-0.1-1.9-0.2-3.8-0.3-5.7c-0.3-3.8-0.7-7.6-1.1-11.4c-0.2-1.9-0.5-3.8-0.8-5.7
        c-0.3-1.9-0.6-3.8-1-5.6c-0.3-1.9-0.7-3.7-1.1-5.6c-0.4-1.9-0.8-3.7-1.3-5.6c-0.5-1.8-0.9-3.7-1.5-5.5c-0.5-1.8-1-3.6-1.6-5.5
        c-1.1-3.6-2.4-7.2-3.8-10.7c-1.4-3.5-2.9-7-4.5-10.4c-0.8-1.7-1.7-3.4-2.5-5c-0.9-1.6-1.8-3.3-2.7-4.8l5.1,0.1
        c-0.5,0.6-1,1.5-1.5,2.3c-0.5,0.8-1,1.6-1.4,2.4c-0.9,1.6-1.8,3.3-2.6,5c-1.7,3.4-3.2,6.9-4.6,10.5c-2.8,7.1-5,14.5-6.8,22
        c-0.9,3.7-1.6,7.5-2.3,11.3c-0.6,3.8-1.2,7.6-1.6,11.5c-0.4,3.8-0.8,7.7-1,11.6c-0.1,1.9-0.2,3.8-0.3,5.8c0,1.9-0.1,3.9-0.1,5.8
        c0,3.9,0,7.7,0.2,11.6l0.1,2.9l0.2,2.9c0.1,1.9,0.3,3.9,0.5,5.8c0.2,1.9,0.4,3.9,0.6,5.8c0.3,1.9,0.5,3.8,0.8,5.8
        c0.5,3.8,1.3,7.7,2,11.5c1.6,7.6,3.6,15.1,6.2,22.4c1.3,3.7,2.7,7.3,4.3,10.8c1.6,3.5,3.3,7.1,5.3,10.3l-0.9,0
        c1-1.7,1.8-3.5,2.7-5.2c0.9-1.8,1.7-3.6,2.4-5.4c1.5-3.6,3-7.3,4.3-11c2.6-7.4,4.7-15,6.3-22.7c0.4-1.9,0.8-3.8,1.2-5.8
        c0.3-1.9,0.7-3.9,1-5.8c0.3-1.9,0.6-3.9,0.8-5.8c0.2-1.9,0.5-3.9,0.7-5.9c0.4-3.9,0.7-7.8,0.8-11.7c0.1-2,0.1-3.9,0.2-5.9
        C495.5,326.6,495.5,324.7,495.5,322.7L495.5,322.7z"/>
</g>
<g>
    <path fill="#FFFFFF" d="M404.2,569.1c0,0,0,0.2,0,0.7c0,0.2,0,0.5-0.1,0.9c0,0.3-0.1,0.7-0.2,1.1c-0.2,0.8-0.6,1.8-1.2,2.9
        c-0.6,1-1.5,2.2-2.7,3.1c-1.2,0.9-2.8,1.7-4.6,2c-0.5,0.1-0.9,0.1-1.4,0.1c-0.4,0-0.8,0-1.4-0.1c-1-0.1-1.9-0.4-2.9-0.7
        c-0.9-0.4-1.8-0.9-2.6-1.5c-0.8-0.6-1.5-1.4-2.2-2.3c-0.6-0.9-1.1-1.9-1.4-2.9c-0.3-1-0.5-2.1-0.6-3.2c0-0.6,0-1,0.1-1.6
        c0.1-0.6,0.2-1.1,0.3-1.7c0.3-1.1,0.7-2.1,1.3-3c0.6-0.9,1.3-1.8,2.1-2.5c0.8-0.7,1.7-1.3,2.7-1.7c1-0.4,2-0.7,3-0.8
        c0.5-0.1,1-0.1,1.5-0.1l0.1,0l0,0l0.1,0l0.2,0l0.3,0c0.2,0,0.4,0,0.7,0.1c1,0.2,1.9,0.4,2.7,0.8c0.8,0.4,1.5,0.9,2.2,1.4
        c1.3,1.1,2.1,2.3,2.7,3.4c0.6,1.1,0.9,2.2,1.1,3c0.2,0.9,0.2,1.6,0.2,2C404.2,568.8,404.2,569,404.2,569.1L404.2,569.1z M403.9,569
        c0,0,0-0.2-0.1-0.7c0-0.2-0.1-0.5-0.1-0.8c0-0.3-0.1-0.7-0.3-1.1c-0.3-0.8-0.7-1.7-1.5-2.6c-0.7-0.9-1.7-1.7-2.9-2.3
        c-0.6-0.3-1.2-0.5-1.9-0.7c-0.3-0.1-0.7-0.2-1-0.2c-0.4-0.1-0.7-0.1-1-0.1c-0.2,0-0.4,0-0.6,0h-0.3H394c-0.1,0,0.1,0,0.1,0l0,0l0,0
        l-0.1,0c-0.4,0-0.7,0-1.1,0.1c-0.7,0.1-1.5,0.3-2.2,0.7c-1.4,0.6-2.7,1.6-3.7,3c-0.5,0.7-0.9,1.4-1.2,2.2c-0.1,0.4-0.3,0.8-0.3,1.2
        c-0.1,0.3-0.1,1-0.2,1.3c0,0.9,0.1,1.7,0.3,2.6c0.2,0.8,0.6,1.6,1,2.4c0.5,0.7,1,1.4,1.7,2c0.7,0.6,1.4,1.1,2.1,1.4
        c0.8,0.3,1.6,0.6,2.3,0.8c0.4,0.1,0.8,0.1,1.3,0.1c0.3,0,0.8,0,1.2,0c1.6-0.1,3-0.6,4.3-1.3c1.2-0.7,2.2-1.6,2.9-2.6
        c0.7-0.9,1.1-1.9,1.3-2.7c0.1-0.4,0.2-0.8,0.2-1.1c0-0.3,0.1-0.6,0.1-0.8C403.9,569.3,403.9,569,403.9,569L403.9,569z"/>
</g>
<g>
    <path fill="#FFFFFF" d="M550.2,569c0,0,0,0.2,0,0.7c0,0.2,0,0.5,0.1,0.8c0,0.3,0.1,0.7,0.2,1.1c0.2,0.8,0.6,1.8,1.3,2.7
        c0.7,0.9,1.7,1.9,2.9,2.6c1.2,0.7,2.7,1.2,4.3,1.3c0.4,0,0.8,0,1.2,0c0.4,0,0.9-0.1,1.3-0.1c0.8-0.1,1.6-0.4,2.3-0.8
        c0.8-0.4,1.5-0.9,2.1-1.4c0.6-0.6,1.2-1.2,1.7-2c0.5-0.7,0.8-1.5,1-2.4c0.2-0.8,0.3-1.7,0.3-2.6c0-0.3-0.1-1-0.2-1.3
        c-0.1-0.4-0.2-0.8-0.3-1.2c-0.3-0.8-0.7-1.6-1.2-2.2c-1-1.3-2.3-2.3-3.7-3c-0.7-0.3-1.4-0.5-2.2-0.7c-0.4-0.1-0.7-0.1-1.1-0.1
        l-0.1,0l0,0l0,0c0,0,0.1,0,0.1,0H560h-0.3c-0.2,0-0.5,0-0.6,0c-0.3,0-0.6,0-1,0.1c-0.4,0-0.7,0.1-1,0.2c-0.7,0.2-1.3,0.4-1.9,0.7
        c-1.2,0.6-2.2,1.4-2.9,2.3c-0.7,0.9-1.2,1.8-1.5,2.6c-0.1,0.4-0.2,0.8-0.3,1.1c-0.1,0.3-0.1,0.6-0.1,0.8
        C550.3,568.8,550.2,569,550.2,569L550.2,569z M549.9,569c0,0,0-0.2,0-0.7c0-0.5,0.1-1.2,0.2-2c0.2-0.9,0.5-1.9,1.1-3
        c0.6-1.1,1.4-2.3,2.7-3.4c0.6-0.5,1.3-1,2.2-1.4c0.8-0.4,1.7-0.7,2.7-0.8c0.3,0,0.4,0,0.7-0.1l0.3,0l0.2,0l0.1,0l0,0l0.1,0
        c0.5,0,1,0,1.5,0.1c1,0.1,2,0.4,3,0.8c1,0.4,1.9,1,2.7,1.7c0.8,0.7,1.5,1.6,2.1,2.5c0.6,0.9,1,2,1.3,3c0.1,0.5,0.3,1.1,0.3,1.7
        c0.1,0.6,0.1,1,0.1,1.6c-0.1,1.1-0.2,2.2-0.6,3.2c-0.4,1-0.8,2-1.4,2.9c-0.6,0.9-1.3,1.6-2.2,2.3c-0.8,0.6-1.7,1.2-2.6,1.5
        c-0.9,0.4-1.9,0.6-2.9,0.7c-0.5,0.1-0.9,0.1-1.4,0.1c-0.5,0-0.9-0.1-1.4-0.1c-1.8-0.3-3.4-1-4.6-2c-1.2-0.9-2.1-2-2.7-3.1
        c-0.6-1-1-2.1-1.2-2.9c-0.1-0.4-0.2-0.8-0.2-1.1c-0.1-0.3-0.1-0.6-0.1-0.9C549.9,569.3,549.9,569.1,549.9,569L549.9,569z"/>
</g>
<g>
    <path fill="#FFFFFF" d="M655.9,285.8c-1,7.6-3.3,14.8-5.7,21.9c-2.4,7.2-4.8,14.3-7.3,21.4c-5,14.2-10.2,28.4-15.6,42.4
        c-5.4,14.1-11.1,28-17,41.9c-5.9,13.9-12.1,27.6-18.7,41.2c-6.6,13.6-13.5,27-21,40.1c-7.5,13.1-15.5,25.9-24.3,38.2
        c-4.5,6.1-9.1,12.1-14.1,17.8c-5,5.7-10.3,11.1-16.1,16c-5.8,4.9-12,9.3-18.9,12.7c-6.8,3.3-14.4,5.3-22,5.2h0l-0.5,0l0-0.5
        l-0.3-127l0-0.2l0.1-0.2l0,0c10.3-14.9,18.4-31.3,24.6-48.3c6.2-17,10.6-34.7,13.7-52.6c3.1-17.9,4.8-36,5.4-54.1
        c0.3-9.1,0.4-18.2,0.1-27.2c-0.1-4.5-0.3-9.1-0.6-13.6c-0.3-4.5-0.6-9.1-1.1-13.6l0,0v0c5.9,0.6,11.7,1.4,17.5,2.2
        c5.8,0.8,11.6,1.8,17.4,2.8c11.6,2,23.1,4.4,34.6,7.2c2.9,0.7,5.7,1.4,8.6,2.1c2.9,0.7,5.7,1.5,8.6,2.3c2.9,0.8,5.7,1.6,8.5,2.4
        c2.8,0.9,5.7,1.7,8.5,2.6c2.8,0.9,5.6,1.8,8.4,2.8c2.8,1,5.6,1.9,8.4,3c2.8,1,5.6,2.1,8.3,3.2c2.8,1.1,5.5,2.2,8.3,3.4l2.6,1.1
        L655.9,285.8z M647,286.6c-1.5-0.7-2.9-1.4-4.4-2.1c-2.6-1.2-5.3-2.4-8-3.6c-2.7-1.2-5.4-2.3-8.1-3.4c-2.7-1.1-5.4-2.2-8.2-3.2
        c-2.7-1.1-5.5-2-8.2-3c-2.8-1-5.5-2-8.3-2.9c-2.8-0.9-5.6-1.8-8.3-2.7c-2.8-0.9-5.6-1.8-8.4-2.6c-11.2-3.4-22.6-6.4-34-9
        c-5.7-1.3-11.5-2.6-17.2-3.8c-5.8-1.2-11.5-2.2-17.3-3.2v0l0,0c0.5,4.5,0.9,9,1.2,13.6c0.3,4.5,0.5,9.1,0.7,13.6
        c0.3,9.1,0.3,18.2,0.1,27.2c-0.5,18.2-2.1,36.3-5.1,54.2c-3,17.9-7.3,35.7-13.4,52.8c-6.1,17.1-14.1,33.7-24.4,48.7l0,0l0.1-0.4
        l-0.3,127l-0.5-0.5h0c7.4-0.2,14.7-2.4,21.2-5.9c6.6-3.4,12.5-8,18-13c5.5-5,10.5-10.5,15.3-16.3c4.7-5.8,9.1-11.8,13.4-17.9
        c8.4-12.3,16-25.2,23-38.4c7-13.2,13.6-26.7,19.7-40.3c6.1-13.6,12-27.4,17.6-41.3c5.6-13.9,10.9-27.9,16-42
        c5.1-14.1,9.9-28.3,14.6-42.5c2.3-7.1,4.6-14.2,6.8-21.4C642.5,298.6,644.4,292.5,647,286.6z"/>
</g>
<g>
    <g>
        <defs>
            <path id="SVGID_1_" d="M301.1,282.7c0,0,84,301.4,174,301.4V457c-57.2-83.1-41.5-209.8-41.5-209.8S363.4,254,301.1,282.7z"/>
        </defs>
        <clipPath id="SVGID_5_">
            <use xlink:href="#SVGID_1_"  overflow="visible"/>
        </clipPath>
        <g clip-path="url(#SVGID_5_)">
            <g>
                <path fill="#FFFFFF" d="M254.8,283.6c0,0,0.1,1.2,0.2,3.4c0.1,0.5,0,1.2,0.2,1.8c0.1,0.6,0.3,1.3,0.4,2.1
                    c0.1,0.4,0.1,0.8,0.2,1.1c0,0.2,0.1,0.4,0.1,0.6c0.1,0.2,0.1,0.4,0.2,0.6c0.3,0.8,0.6,1.7,0.8,2.7c1.3,3.7,3.5,8.1,6.8,12.3
                    c3.3,4.3,8,8.4,13.8,11.6c5.8,3.1,12.8,5.2,20.2,5.9c0.9,0.1,1.9,0.1,2.8,0.2l1.4,0.1l1.5,0c1.1,0,2,0,3-0.1c1,0,2-0.1,3-0.2
                    c4-0.4,8.1-1.1,12.1-2.3c8-2.3,15.9-6.4,21.6-13c2.8-3.3,5.1-7.1,6.4-11.3c0.7-2.1,1.2-4.3,1.4-6.5c0.2-1.1,0.2-2.3,0.3-3.3
                    c0-1.2,0-2.4-0.1-3.5c0-1.1-0.2-2.2-0.3-3.4c-0.2-1.1-0.3-2.3-0.6-3.4c-0.5-2.2-1.1-4.4-1.9-6.6c-1.6-4.3-3.8-8.4-6.4-12.2
                    c-5.2-7.5-12.3-13.7-20.3-17.3c-3.9-1.9-8.1-3-12.1-3.7c-2-0.3-4.1-0.6-6.1-0.6l-1.4,0l-1.6,0.1c-1,0.1-2.1,0.1-3.1,0.2
                    c-1,0.1-1.9,0.3-2.9,0.4c-0.5,0.1-0.9,0.1-1.4,0.2l-0.7,0.1l-0.7,0.2c-1.9,0.5-3.7,0.8-5.5,1.5c-0.9,0.3-1.7,0.6-2.6,0.9
                    c-0.8,0.3-1.7,0.7-2.5,1.1c-0.8,0.4-1.7,0.7-2.4,1.1c-0.8,0.4-1.5,0.9-2.3,1.3c-5.9,3.5-10.6,8-13.8,12.5
                    c-3.3,4.5-5.2,9.1-6.3,12.9c-0.3,1-0.5,1.9-0.7,2.7c-0.1,0.2-0.1,0.4-0.2,0.6c0,0.2-0.1,0.4-0.1,0.6c-0.1,0.4-0.1,0.8-0.2,1.2
                    c-0.2,1.5-0.5,2.8-0.5,3.9C254.9,282.5,254.9,283.6,254.8,283.6L254.8,283.6z M251.3,283.6c0,0,0.1-1.2,0.2-3.5
                    c0-1.2,0.3-2.6,0.6-4.2c0.1-0.4,0.1-0.8,0.2-1.3c0-0.2,0.1-0.4,0.1-0.7c0.1-0.2,0.1-0.5,0.2-0.7c0.3-0.9,0.5-1.9,0.8-2.9
                    c1.3-4.1,3.4-8.9,7-13.8c3.5-4.8,8.4-9.6,14.7-13.4c6.3-3.8,13.9-6.5,22.4-7.2c1,0,2-0.1,3.1-0.1l1.6-0.1l0.2,0l0.1,0l0.2,0
                    l0.4,0l0.8,0c2.2,0.1,4.3,0.4,6.5,0.8c4.3,0.9,8.6,2.4,12.6,4.6c2,1,3.9,2.3,5.9,3.5c1.9,1.3,3.7,2.7,5.5,4.2
                    c0.9,0.7,1.7,1.5,2.6,2.3c0.8,0.8,1.7,1.6,2.5,2.5c1.7,1.7,3.2,3.5,4.6,5.4c5.7,7.6,10,16.6,11.2,26.5c0.2,1.3,0.2,2.4,0.3,3.6
                    c0,1.3,0.1,2.5,0,3.8c-0.1,2.5-0.5,5-1.1,7.4c-0.6,2.4-1.5,4.8-2.6,7.1c-1.1,2.3-2.5,4.4-4,6.4c-1.5,2-3.2,3.8-5,5.5
                    c-1.8,1.7-3.8,3.2-5.8,4.6c-2,1.4-4.1,2.6-6.3,3.6c-2.2,1-4.4,2-6.6,2.7c-4.5,1.6-9,2.5-13.5,3.1c-1.1,0.1-2.2,0.3-3.4,0.3
                    c-1.1,0.1-2.3,0.2-3.3,0.2l-0.8,0l-0.4,0l-0.2,0l-0.1,0l-0.2,0c-0.6,0-1.1,0-1.7-0.1c-1.1,0-2.2-0.1-3.3-0.1
                    c-8.8-0.7-16.7-4-23.1-8.1c-6.4-4.1-11.3-9.2-14.7-14.3c-3.4-5.1-5.3-10.2-6.5-14.3c-0.2-1.1-0.5-2.1-0.7-3
                    c-0.1-0.2-0.1-0.5-0.2-0.7c0-0.2-0.1-0.5-0.1-0.7c-0.1-0.5-0.1-0.9-0.2-1.3c-0.2-1.7-0.5-3.2-0.4-4.2
                    C251.4,284.9,251.3,283.7,251.3,283.6L251.3,283.6z"/>
            </g>
            <g>
                <path fill="#FFFFFF" d="M207.5,283.6c0,0,0,0.6,0.1,1.7c0,1.1,0,2.9,0.3,5c0.4,4.2,1.1,10.6,3.5,18.2c0.1,0.5,0.3,1,0.4,1.5
                    c0.2,0.5,0.3,1,0.5,1.5c0.4,1,0.7,2,1.1,3.1c0.4,1,0.9,2.1,1.3,3.1c0.4,1.1,1,2.1,1.5,3.2c2.2,4.3,4.9,8.8,8.2,13.3
                    c6.6,9,16,17.9,28,24.7c6,3.5,12.6,6.4,19.6,8.6c3.5,1.2,7.2,2,11,2.8c1.9,0.3,3.8,0.7,5.7,0.9c1.9,0.2,3.9,0.5,5.8,0.6
                    c1,0.1,2,0.1,3,0.2c1,0,2,0.1,3,0.1l1.5,0l0.2,0l0.1,0l0.4,0l0.8,0c1,0,2.1,0,3.1-0.1c4-0.2,8.1-0.5,12.2-1.2
                    c8.2-1.3,16.4-3.6,24.4-7c1-0.4,2-0.9,3-1.3l1.5-0.7l0.2-0.1c0,0,0.2-0.1,0.1,0l0.4-0.2l0.7-0.4c1-0.5,2-1.1,3-1.6l1.5-0.8
                    l1.4-0.9c1.8-1.2,3.7-2.2,5.5-3.6l2.7-2c0.9-0.7,1.7-1.4,2.6-2.1c6.9-5.7,13.1-12.4,18.3-20c5.2-7.6,9.6-15.9,13.2-24.6
                    c0.4-1.1,0.9-2.2,1.4-3.3l1.2-3.3c0.9-2.2,1.6-4.5,2.3-6.7c1.5-4.5,2.8-9,3.8-13.7c0.9-4.6,1.5-9.4,1.4-14.1l0-1.8
                    c0-0.6-0.1-1.2-0.1-1.8c-0.1-1.2-0.2-2.4-0.3-3.5c-0.4-2.3-0.8-4.7-1.4-7c-0.5-2.3-1.4-4.5-2.2-6.7l-1.5-3.2l-0.4-0.8l-0.4-0.8
                    l-0.9-1.5l-0.9-1.5c-0.3-0.5-0.6-1-1-1.5c-0.7-1-1.3-2-2-2.9l-2.2-2.8c-0.7-0.9-1.5-1.8-2.3-2.7l-1.2-1.3
                    c-0.4-0.4-0.8-0.8-1.2-1.2c-0.8-0.8-1.6-1.7-2.5-2.4c-1.8-1.5-3.5-3.1-5.3-4.5c-1.8-1.5-3.8-2.7-5.6-4c-1-0.6-2-1.2-2.9-1.8
                    l-1.5-0.9l-1.5-0.8c-4-2.3-8.1-4.1-12.3-5.9c-4.2-1.7-8.4-3.2-12.7-4.4c-8.5-2.5-17.1-4.1-25.6-5c-8.5-0.9-16.8-1.1-24.9-0.4
                    c-4,0.3-8,1-11.8,1.7c-3.8,0.9-7.6,1.8-11.1,3c-7.2,2.4-13.9,5.5-19.8,9.1c-12,7.2-21.3,16.4-27.9,25.6
                    c-6.6,9.2-10.6,18.3-12.8,26.1c-2.3,7.8-3,14.1-3.3,18.4c-0.2,2.1-0.2,3.8-0.2,4.9C207.5,283.1,207.5,283.6,207.5,283.6
                    L207.5,283.6z M201.5,283.6c0,0,0-0.6,0.1-1.8c0.1-1.2,0.1-3,0.3-5.3c0.4-4.6,1.3-11.3,4-19.5c2.6-8.2,7-17.7,14.2-27.3
                    c7.1-9.5,17.1-18.8,29.7-26.1c6.3-3.6,13.3-6.7,20.8-8.9c3.7-1.2,7.6-2.1,11.6-2.8c4-0.7,8-1.2,12.2-1.5
                    c8.2-0.5,16.8-0.1,25.3,1.1c8.6,1.2,17.2,3,25.7,5.8c1.1,0.4,2.1,0.7,3.2,1.1c1.1,0.4,2.1,0.8,3.2,1.2c2.1,0.7,4.2,1.7,6.3,2.5
                    c4.1,1.9,8.3,3.9,12.2,6.2l1.5,0.9l1.5,0.9c1,0.6,1.9,1.2,2.9,1.9c1.9,1.4,3.8,2.7,5.6,4.2c1.9,1.4,3.6,3,5.3,4.5
                    c0.9,0.8,1.7,1.6,2.5,2.5c0.4,0.4,0.8,0.8,1.2,1.3l1.2,1.3c0.8,0.9,1.6,1.7,2.3,2.7l2.1,2.8c0.7,0.9,1.3,2,2,2.9
                    c0.3,0.5,0.7,1,1,1.5l0.9,1.5l0.9,1.6l0.4,0.8l0.4,0.8l1.5,3.2c0.8,2.2,1.7,4.4,2.3,6.7c0.7,2.3,1.1,4.6,1.5,6.9
                    c0.2,1.2,0.3,2.4,0.4,3.5c0.1,0.6,0.2,1.2,0.2,1.8l0.1,1.8c0.3,4.8-0.2,9.5-0.9,14.3c-0.8,4.7-2,9.4-3.3,13.9
                    c-0.7,2.3-1.3,4.6-2,6.9l-1.1,3.4c-0.4,1.1-0.8,2.3-1.2,3.4c-3.2,9-7.2,17.7-12.1,25.9c-5,8.1-11,15.6-18,22
                    c-0.9,0.8-1.7,1.6-2.6,2.4l-2.8,2.2c-1.8,1.5-3.8,2.8-5.8,4.1l-1.5,1l-1.5,0.9c-1,0.6-1.9,1.1-2.9,1.7l-0.7,0.4l-0.4,0.2
                    l-0.5,0.3l-1.5,0.8c-1,0.5-2.1,1-3.1,1.5c-8.3,3.9-17.1,6.6-25.8,8.1c-4.4,0.8-8.7,1.2-13.1,1.4c-1.1,0.1-2.2,0.1-3.2,0.1
                    l-0.8,0l-0.4,0l-0.5,0l-1.6,0c-1.1,0-2.1,0-3.2-0.1c-1.1-0.1-2.1-0.1-3.2-0.2c-8.4-0.6-16.6-2.3-24.1-4.7
                    c-7.6-2.4-14.6-5.6-21-9.4c-12.7-7.6-22.6-17.2-29.7-26.9c-7.1-9.7-11.4-19.4-13.9-27.7c-2.5-8.3-3.4-15-3.7-19.7
                    c-0.2-2.4-0.2-4-0.2-5.2C201.5,284.3,201.5,283.7,201.5,283.6L201.5,283.6z"/>
            </g>
            <g>
                <path fill="#FFFFFF" d="M157,283.6c0,0,0,0.9,0.1,2.6c0.1,1.7,0,4.3,0.4,7.4c0.5,6.4,1.7,15.9,5.2,27.5c0.8,2.9,2,5.9,3.1,9
                    c1.3,3.1,2.6,6.3,4.2,9.6c3.2,6.6,7.2,13.4,12.1,20.2c9.9,13.6,23.8,27.2,41.6,37.9c8.9,5.4,18.7,10.1,29.3,13.7
                    c10.6,3.6,22,6.2,33.8,7.6c1.5,0.2,3,0.3,4.5,0.4c1.5,0.1,3,0.3,4.5,0.3c1.5,0.1,3,0.1,4.5,0.2l2.2,0.1l2.3,0c1.6,0,3.1,0,4.7,0
                    c1.5-0.1,3.1-0.1,4.6-0.2c1.5,0,3.1-0.2,4.6-0.3c1.5-0.1,3.1-0.2,4.7-0.4c6.2-0.6,12.4-1.8,18.6-3.4c1.5-0.4,3.1-0.8,4.6-1.3
                    c1.5-0.5,3.1-1,4.6-1.5c3-1.1,6.1-2.2,9-3.5c6-2.6,11.9-5.4,17.7-8.7c1.5-0.8,2.9-1.6,4.4-2.5c1.4-0.8,2.9-1.7,4.3-2.5
                    c2.9-1.8,5.8-3.5,8.6-5.3c1.4-0.9,2.9-1.8,4.3-2.8c1.3-0.9,2.8-1.9,4.2-2.9l2.1-1.5c0.7-0.5,1.3-1.1,2-1.6
                    c1.3-1.1,2.6-2.1,3.9-3.2c5.1-4.5,9.8-9.6,14-15.1c4.1-5.6,7.7-11.5,10.8-17.8c2.9-6.3,5.6-12.8,7.3-19.6
                    c0.2-0.8,0.5-1.7,0.7-2.5l0.6-2.6c0.4-1.7,0.8-3.4,1.2-5.1c0.6-3.5,1.3-6.9,1.6-10.4l0.6-5.2l0.4-5.3l0.2-2.6l0.1-2.6l0.1-5.3
                    c0-7-0.5-14.1-1.5-21.1c-1.1-6.9-2.7-13.8-4.8-20.5c-2.2-6.7-4.9-13.1-8-19.4c-3.2-6.2-6.9-12.1-10.9-17.8
                    c-4.1-5.6-8.6-10.9-13.3-15.8c-4.8-4.9-9.9-9.4-15.3-13.6c-5.4-4.1-11-7.8-16.8-11.1c-5.9-3.2-11.8-6.2-17.9-8.6
                    c-6.1-2.4-12.3-4.5-18.6-6.1c-3.1-0.9-6.3-1.4-9.4-2.1c-1.6-0.3-3.1-0.5-4.7-0.8c-1.6-0.2-3.1-0.5-4.7-0.7
                    c-3.1-0.4-6.3-0.8-9.4-0.9c-1.6-0.1-3.1-0.2-4.7-0.3c-1.6,0-3.1-0.1-4.6-0.1l-2.3,0l-2.3,0.1c-1.5,0-3.1,0.1-4.6,0.1
                    c-1.5,0.1-3,0.2-4.5,0.3c-1.5,0.1-3,0.2-4.5,0.4c-11.9,1.3-23.4,4-34.1,7.7c-10.7,3.7-20.5,8.5-29.4,14
                    c-8.9,5.5-16.8,11.7-23.7,18.2c-6.9,6.6-12.8,13.5-17.7,20.4c-4.9,6.9-8.8,13.8-11.9,20.4c-0.8,1.7-1.6,3.3-2.2,4.9
                    c-0.7,1.6-1.3,3.2-1.9,4.8c-1.1,3.2-2.2,6.2-3,9.1c-3.5,11.6-4.5,21.2-4.9,27.6c-0.3,3.2-0.2,5.7-0.3,7.4
                    C157,282.8,157,283.6,157,283.6L157,283.6z M151.9,283.6c0,0,0-0.9,0.1-2.6c0.1-1.7,0.1-4.3,0.4-7.7c0.5-6.7,1.9-16.5,5.6-28.6
                    c0.9-3,2.1-6.1,3.2-9.4c0.6-1.6,1.4-3.2,2.1-4.9c0.7-1.7,1.5-3.3,2.3-5c3.3-6.8,7.4-13.9,12.5-20.9c5.1-7.1,11.2-14.1,18.4-20.7
                    c7.2-6.6,15.3-12.9,24.5-18.4c9.2-5.5,19.3-10.3,30.2-14c10.9-3.6,22.6-6.2,34.8-7.4c1.5-0.2,3.1-0.2,4.6-0.4
                    c1.5-0.1,3.1-0.2,4.6-0.3c1.5,0,3.1-0.1,4.6-0.1l2.3,0l2.4,0.1c1.6,0,3.1,0.1,4.7,0.1c1.6,0.1,3.1,0.2,4.7,0.3
                    c3.2,0.2,6.3,0.6,9.5,1c1.6,0.2,3.2,0.5,4.8,0.8c1.6,0.3,3.2,0.5,4.8,0.9c3.2,0.7,6.3,1.3,9.5,2.3c6.3,1.6,12.5,3.9,18.7,6.4
                    c24.6,10.1,47.2,27.5,63.2,50.3c4,5.7,7.6,11.7,10.7,18c3.1,6.3,5.7,12.8,7.9,19.5c2.1,6.7,3.7,13.6,4.8,20.6
                    c1.1,7,1.5,14,1.5,21.1c-0.2,14.1-1.8,28.2-5.5,41.8l-1.4,5.1l-1.7,5c-0.3,0.8-0.6,1.7-0.9,2.5l-1,2.4c-0.7,1.6-1.3,3.3-2,4.9
                    l-2.3,4.7l-0.6,1.2l-0.6,1.1l-1.3,2.3c-1.6,3.1-3.6,6-5.5,8.9c-4.1,5.7-8.5,11.1-13.5,16c-1.2,1.2-2.6,2.3-3.9,3.5
                    c-0.7,0.6-1.3,1.2-2,1.7l-2,1.6c-1.4,1.1-2.6,2.1-4.1,3.2c-1.4,1-2.8,2-4.2,3c-2.8,2-5.6,3.9-8.4,5.8c-2.9,1.8-5.7,3.7-8.6,5.4
                    c-5.8,3.5-11.7,6.7-17.9,9.5c-12.2,5.6-25.2,9-38.1,10.5c-1.6,0.2-3.2,0.3-4.8,0.5c-1.6,0.1-3.2,0.3-4.8,0.3
                    c-1.6,0.1-3.2,0.1-4.8,0.2c-1.6,0-3.1,0-4.7,0.1l-2.3,0l-2.4-0.1c-1.6,0-3.1-0.1-4.7-0.1c-1.6,0-3.1-0.2-4.7-0.3
                    c-1.5-0.1-3.1-0.2-4.6-0.4c-12.3-1.3-24-4-35-7.7c-11-3.8-21.1-8.7-30.3-14.2c-18.4-11.2-32.8-25.3-43-39.5
                    c-5.1-7.1-9.2-14.2-12.5-21.1c-1.7-3.4-3-6.8-4.4-10c-1.2-3.3-2.4-6.4-3.2-9.4c-3.6-12.1-4.8-21.9-5.3-28.7
                    c-0.3-3.4-0.3-5.9-0.4-7.6C151.9,284.6,151.9,283.7,151.9,283.6L151.9,283.6z"/>
            </g>
            <g>
                <path fill="#FFFFFF" d="M106.3,283.6c0,0,0,1.2,0.1,3.5c0.1,2.3,0.1,5.8,0.5,10.1c0.7,8.6,2.3,21.5,7.1,37.2
                    c1.1,3.9,2.7,8,4.2,12.2c1.8,4.2,3.5,8.6,5.7,13c4.3,8.9,9.7,18.1,16.4,27.3c6.7,9.2,14.7,18.4,24.1,27.1
                    c9.4,8.7,20.1,16.9,32.1,24.1c12,7.2,25.2,13.6,39.5,18.4c14.3,4.8,29.7,8.1,45.6,9.8c2,0.2,4,0.3,6,0.5l3,0.2
                    c1,0.1,2,0.1,3,0.2c2,0.1,4.1,0.1,6.1,0.2l1.5,0l0.8,0c0.2,0,0.2,0,0.3,0l0.4,0l3.1-0.1l3.1-0.1l1.6,0l1.5-0.1
                    c2-0.1,4.1-0.3,6.1-0.4c4.1-0.5,8.3-0.9,12.4-1.7c16.6-2.6,33.1-8.1,49.2-15c16.1-7,31.9-15.6,47-26
                    c15-10.3,29.4-22.3,41.7-36.3c6.2-7,11.8-14.5,16.7-22.5c2.5-4,4.7-8.1,6.8-12.3c2-4.2,3.9-8.6,5.4-13
                    c6.3-17.7,8.8-36.6,7.8-55.5c0-0.6,0-1.2-0.1-1.8l-0.2-1.8l-0.3-3.5l-0.3-3.5c-0.1-1.2-0.3-2.3-0.5-3.5c-0.3-2.3-0.6-4.7-1-7
                    l-1.4-6.9l-0.3-1.7l-0.4-1.7l-0.9-3.4l-0.9-3.4c-0.3-1.1-0.7-2.2-1-3.4c-0.7-2.2-1.4-4.5-2.1-6.7l-2.4-6.6
                    c-6.8-17.5-16.1-33.9-27.4-48.7c-22.6-29.5-52.6-52.4-85.1-66.3c-8.2-3.4-16.4-6.5-24.8-8.8c-4.1-1.3-8.4-2.2-12.6-3.2
                    c-1-0.3-2.1-0.5-3.2-0.6l-3.2-0.6l-3.2-0.6c-1-0.2-2.1-0.4-3.2-0.5c-4.2-0.5-8.4-1.2-12.6-1.4c-2.1-0.2-4.2-0.3-6.3-0.5
                    c-2.1-0.1-4.2-0.1-6.3-0.2l-3.1-0.1c-1,0-2.1,0-3.1,0c-2.1,0-4.2,0.1-6.2,0.1c-1,0-2.1,0.1-3.1,0.2c-1,0.1-2,0.1-3,0.2
                    c-2,0.2-4,0.3-6.1,0.5c-16.1,1.7-31.6,5.1-46.1,9.9c-14.4,4.9-27.8,11.3-39.9,18.7c-24.2,14.8-43,33.4-56.2,52.1
                    c-6.6,9.4-11.9,18.7-16.2,27.7c-2.2,4.4-3.9,8.9-5.6,13.1c-1.5,4.3-3,8.3-4.1,12.3c-4.6,15.8-6.1,28.6-6.7,37.4
                    c-0.4,4.4-0.3,7.7-0.4,10C106.3,282.5,106.3,283.6,106.3,283.6L106.3,283.6z M100.8,283.6c0,0,0-1.2,0.1-3.5
                    c0.1-2.3,0.1-5.8,0.6-10.3c0.7-9,2.5-22.2,7.5-38.3c1.2-4.1,2.8-8.2,4.4-12.5c1.8-4.3,3.6-8.8,5.9-13.3c4.5-9.1,10-18.6,16.9-28
                    c6.9-9.4,15.1-18.8,24.7-27.8c9.6-8.9,20.6-17.3,32.9-24.7c12.3-7.4,25.8-13.9,40.5-18.9c14.7-4.9,30.4-8.4,46.7-10.1
                    c2-0.2,4.1-0.3,6.2-0.5c1-0.1,2.1-0.1,3.1-0.2c1-0.1,2.1-0.1,3.1-0.2c2.1-0.1,4.1-0.1,6.2-0.2c1.1,0,2-0.1,3.2,0l3.2,0.1
                    c2.1,0.1,4.2,0.1,6.4,0.2c2.1,0.2,4.2,0.3,6.4,0.5c4.3,0.2,8.5,0.9,12.8,1.4c1.1,0.1,2.1,0.3,3.2,0.5l3.2,0.6l3.2,0.6
                    c1.1,0.2,2.1,0.4,3.2,0.7c4.2,1,8.5,1.9,12.8,3.2c8.5,2.3,16.9,5.4,25.1,8.9c33,14.1,63.4,37.3,86.4,67.3
                    c11.5,15,21,31.6,27.8,49.4l2.5,6.7c0.7,2.3,1.4,4.6,2.2,6.8c0.3,1.1,0.7,2.3,1,3.4l0.9,3.5l0.9,3.5l0.4,1.7l0.3,1.8l1.4,7
                    c0.4,2.4,0.7,4.7,1,7.1c0.2,1.2,0.4,2.4,0.5,3.6l0.3,3.6l0.3,3.6l0.2,1.8c0,0.6,0,1.2,0.1,1.8l0.2,7.1l0,0.9l0,0.9l0,1.8
                    c0,1.2,0,2.4-0.1,3.6c-0.2,2.4-0.2,4.8-0.5,7.2l-0.4,3.6l-0.5,3.6c-1.4,9.5-4,18.8-7.4,27.7c-1.7,4.4-3.7,8.8-5.9,13
                    c-2.2,4.2-4.5,8.4-7.1,12.3c-2.6,4-5.3,7.9-8.2,11.6c-2.8,3.8-5.8,7.4-9,10.9c-3.1,3.5-6.3,6.9-9.6,10.2c-1.7,1.6-3.3,3.3-5,4.9
                    c-1.7,1.6-3.4,3.2-5.1,4.8c-3.4,3.1-7,6.1-10.5,9.2c-1.8,1.5-3.5,3-5.4,4.4c-1.8,1.5-3.6,2.9-5.4,4.3
                    c-14.4,11.5-29.7,21.7-46,29.5c-8.2,3.8-16.5,7.1-25,9.8c-8.5,2.7-17.1,4.8-25.7,6.2c-4.3,0.8-8.6,1.2-12.9,1.8
                    c-2.2,0.2-4.4,0.3-6.5,0.5l-1.6,0.1l-1.6,0l-3.1,0.1l-3.1,0.1l-0.4,0c-0.1,0-0.4,0-0.5,0l-0.8,0l-1.6,0c-2.1,0-4.2-0.1-6.3-0.1
                    c-1.1,0-2.1-0.1-3.1-0.1c-1-0.1-2.1-0.1-3.1-0.2c-2.1-0.2-4.2-0.3-6.2-0.5c-16.5-1.6-32.4-5.2-47.2-10.2
                    c-14.8-5-28.5-11.7-40.8-19.2c-12.4-7.6-23.4-16.1-33-25.2c-9.6-9.1-17.8-18.6-24.6-28.2c-6.8-9.6-12.3-19.2-16.7-28.4
                    c-2.3-4.6-4-9.1-5.8-13.4c-1.6-4.4-3.1-8.6-4.3-12.6c-0.6-2-1.2-4-1.7-5.9c-0.5-1.9-0.9-3.8-1.4-5.7c-0.2-0.9-0.5-1.8-0.6-2.7
                    c-0.2-0.9-0.3-1.8-0.5-2.6c-0.3-1.7-0.6-3.4-0.9-5c-1-6.5-1.7-12-2-16.6c-0.4-4.6-0.4-7.9-0.5-10.3
                    C100.8,284.9,100.8,283.7,100.8,283.6L100.8,283.6z"/>
            </g>
            <g>
                <path fill="#FFFFFF" d="M55.7,283.6c0,0,0,1.5,0.1,4.3c0.1,2.9,0.1,7.2,0.7,12.6c0.8,10.9,2.9,27.1,9,46.8
                    c1.4,5,3.4,10,5.3,15.3c1,2.6,2.2,5.3,3.4,8c1.1,2.8,2.5,5.5,3.8,8.3c5.4,11.1,12.2,22.8,20.6,34.3c8.4,11.6,18.5,23.1,30.3,34
                    c11.8,10.9,25.3,21.1,40.3,30.2c15.1,9.1,31.7,17,49.6,23c9,2.9,18.3,5.6,27.8,7.6c2.4,0.5,4.8,1.1,7.2,1.5
                    c2.4,0.4,4.9,0.8,7.3,1.2c1.2,0.2,2.4,0.4,3.7,0.6c1.2,0.2,2.5,0.3,3.7,0.4c2.5,0.3,5,0.6,7.5,0.9c1.2,0.2,2.5,0.2,3.8,0.3
                    c1.3,0.1,2.5,0.2,3.8,0.3c1.3,0.1,2.5,0.2,3.8,0.3c1.3,0.1,2.5,0.2,3.8,0.2c2.5,0.1,5.1,0.1,7.7,0.2c1.3,0,2.5,0.1,3.8,0.1
                    c1.3,0,2.6-0.1,3.9-0.1c1.3,0,2.6,0,3.9-0.1c1.3-0.1,2.5-0.2,3.8-0.3c1.3-0.1,2.5-0.2,3.8-0.3c1.3-0.1,2.6-0.3,3.9-0.4
                    c1.3-0.2,2.6-0.3,3.9-0.5c1.3-0.2,2.6-0.4,3.9-0.6c1.3-0.2,2.6-0.4,3.9-0.6c1.3-0.2,2.6-0.5,3.9-0.7c10.4-1.9,20.8-4.4,31.3-7.2
                    c10.5-2.8,21-5.8,31.6-9.1c2.6-0.8,5.3-1.6,8-2.4l4-1.2l1-0.3l0.5-0.1l0.5-0.2l2-0.7c2.6-0.9,5.4-1.7,7.9-2.7
                    c2.6-1,5.2-1.9,7.7-3.1c10.3-4.4,20.3-9.8,29.7-16.2c9.4-6.4,18.3-13.8,26.4-22c8.1-8.3,15.4-17.3,22-26.9
                    c13.2-19.3,23.2-40.8,29.9-63.4c6.8-22.6,10.2-46.3,10.3-69.9c0-2.9-0.1-5.9-0.2-8.9l-0.1-4.4l-0.4-4.4l-0.4-4.4
                    c-0.1-1.5-0.2-2.9-0.4-4.4l-1.2-8.8c-1.9-11.7-4.6-23.2-8.3-34.4c-3.8-11.2-8.3-22-13.6-32.5c-5.4-10.4-11.6-20.3-18.4-29.8
                    c-6.9-9.4-14.4-18.2-22.4-26.5c-8.1-8.2-16.7-15.8-25.7-22.8c-9.1-6.9-18.5-13.1-28.3-18.8c-2.5-1.3-4.9-2.7-7.4-4
                    c-1.2-0.7-2.5-1.3-3.7-2l-3.8-1.8c-2.5-1.2-5-2.5-7.6-3.6c-2.6-1.1-5.1-2.2-7.7-3.2c-10.3-4.1-20.7-7.7-31.2-10.3
                    c-5.2-1.5-10.5-2.5-15.8-3.7c-1.3-0.3-2.6-0.5-4-0.7c-1.3-0.2-2.6-0.4-4-0.7c-1.3-0.2-2.6-0.4-4-0.7l-2-0.3l-2-0.2
                    c-5.3-0.6-10.5-1.3-15.8-1.6c-2.6-0.2-5.2-0.4-7.9-0.5c-2.6-0.1-5.2-0.1-7.8-0.2c-1.3,0-2.6-0.1-3.9-0.1c-1.2,0-2.6,0.1-3.9,0.1
                    c-2.6,0.1-5.2,0.1-7.8,0.2c-1.3,0-2.6,0.1-3.8,0.2c-1.3,0.1-2.5,0.2-3.8,0.3c-1.3,0.1-2.5,0.2-3.8,0.3c-1.3,0.1-2.5,0.2-3.8,0.3
                    c-20.1,2.2-39.5,6.5-57.5,12.6c-18,6.2-34.7,14.2-49.8,23.4c-15.1,9.2-28.6,19.6-40.3,30.6c-11.7,11-21.8,22.6-30.2,34.3
                    c-8.4,11.6-15.1,23.3-20.5,34.5c-1.3,2.8-2.7,5.5-3.8,8.3c-1.1,2.7-2.3,5.4-3.3,8.1c-1.9,5.4-3.9,10.4-5.2,15.4
                    c-6,19.7-8,35.9-8.7,46.9c-0.5,5.5-0.5,9.7-0.6,12.6C55.7,282.2,55.7,283.6,55.7,283.6L55.7,283.6z M52.7,283.6
                    c0,0,0-1.5,0.1-4.4c0.1-2.9,0.1-7.2,0.6-12.7c0.8-11.1,2.9-27.5,8.9-47.5c1.4-5,3.4-10.2,5.3-15.6c1.1-2.7,2.2-5.4,3.4-8.2
                    c1.1-2.8,2.5-5.6,3.8-8.4c5.4-11.3,12.2-23.2,20.7-35c8.5-11.8,18.6-23.6,30.5-34.7c11.9-11.1,25.5-21.7,40.8-31
                    c15.3-9.3,32.2-17.4,50.4-23.6c9.2-3,18.6-5.8,28.3-7.8c2.4-0.5,4.9-1.1,7.3-1.5c2.5-0.4,5-0.8,7.4-1.2c1.2-0.2,2.5-0.4,3.7-0.6
                    c1.3-0.2,2.5-0.3,3.8-0.5c2.5-0.3,5.1-0.6,7.6-0.9c1.3-0.2,2.6-0.2,3.8-0.3c1.3-0.1,2.6-0.2,3.9-0.3c1.3-0.1,2.6-0.2,3.9-0.3
                    c1.3-0.1,2.6-0.2,3.9-0.2c2.6-0.1,5.2-0.1,7.8-0.2c1.3,0,2.6-0.1,3.9-0.1c1.3,0,2.6,0.1,3.9,0.1c2.6,0.1,5.3,0.1,7.9,0.2
                    c2.6,0.1,5.3,0.4,7.9,0.6c5.3,0.3,10.6,1.1,15.9,1.7l2,0.2l2,0.3c1.3,0.2,2.7,0.5,4,0.7c1.3,0.2,2.7,0.5,4,0.7
                    c1.3,0.2,2.7,0.4,4,0.8c5.3,1.2,10.6,2.2,15.9,3.8c10.6,2.7,21.1,6.4,31.4,10.6c2.6,1.1,5.1,2.2,7.7,3.3
                    c2.6,1.1,5.1,2.4,7.6,3.6l3.8,1.8c1.3,0.6,2.5,1.3,3.7,2c2.5,1.4,5,2.7,7.4,4.1c9.8,5.7,19.3,12.1,28.3,19.1
                    c9,7.1,17.7,14.8,25.7,23.1c8,8.4,15.5,17.3,22.4,26.8c6.7,9.5,12.9,19.6,18.3,30c5.3,10.5,9.8,21.5,13.5,32.7
                    c3.6,11.3,6.3,22.8,8.1,34.5l1.2,8.8c0.2,1.5,0.3,2.9,0.4,4.4l0.3,4.4l0.3,4.4l0.1,4.4c0,3,0.2,5.9,0.2,8.9
                    c-0.2,23.7-3.7,47.4-10.5,70c-6.8,22.6-16.9,44.1-30.1,63.4c-6.6,9.6-14,18.6-22,27c-8,8.3-16.6,16-25.8,22.9
                    c-9.2,6.9-18.9,13-29.1,18.1c-2.5,1.4-5.1,2.5-7.7,3.7c-2.6,1.2-5.2,2.2-7.8,3.3l-2,0.8l-0.5,0.2l-0.5,0.2l-1,0.4l-3.9,1.5
                    c-2.6,1-5.2,1.9-7.9,2.9c-10.5,3.7-21,7.2-31.6,10.2c-10.6,3-21.2,5.5-31.8,7.4c-1.3,0.2-2.7,0.5-4,0.7c-1.3,0.2-2.7,0.4-4,0.6
                    c-1.3,0.2-2.7,0.4-4,0.6c-1.3,0.2-2.7,0.3-4,0.5c-1.3,0.2-2.7,0.3-4,0.5c-1.3,0.1-2.7,0.2-4,0.3c-1.3,0.1-2.7,0.2-4,0.3
                    c-1.3,0.1-2.6,0.1-3.9,0.1c-1.3,0-2.6,0.1-3.9,0.1c-0.1,0-0.4,0-0.6,0l-0.5,0l-1,0l-2,0c-2.6-0.1-5.2-0.1-7.9-0.2
                    c-1.3,0-2.6-0.1-3.9-0.2c-1.3-0.1-2.6-0.2-3.9-0.3c-1.3-0.1-2.6-0.2-3.9-0.3c-1.3-0.1-2.6-0.2-3.9-0.3c-2.6-0.3-5.1-0.6-7.6-0.9
                    c-1.3-0.2-2.5-0.3-3.8-0.5c-1.3-0.2-2.5-0.4-3.8-0.6c-2.5-0.4-5-0.8-7.5-1.3c-2.5-0.5-4.9-1.1-7.4-1.6c-9.8-2.1-19.2-5-28.4-8
                    c-18.3-6.4-35.2-14.6-50.5-24c-15.3-9.4-28.9-20.1-40.8-31.3c-11.9-11.3-22-23.1-30.4-35c-8.4-11.9-15.2-23.8-20.6-35.2
                    c-1.4-2.8-2.7-5.6-3.8-8.4c-1.1-2.8-2.3-5.5-3.4-8.2c-1.9-5.4-3.9-10.6-5.2-15.6c-6-20.1-7.9-36.4-8.7-47.6
                    c-0.5-5.6-0.4-9.8-0.6-12.7C52.7,285.2,52.7,283.7,52.7,283.6L52.7,283.6z"/>
            </g>
            <g>
                <path fill="#FFFFFF" d="M4.9,283.6c0,0,0.1,1.8,0.2,5.3c0.2,3.4,0.1,8.7,0.8,15.2c1,13.1,3.5,32.7,10.8,56.4
                    c1.7,6,4,12.1,6.4,18.5c1.3,3.2,2.7,6.4,4.1,9.7c0.3,0.8,0.7,1.7,1.1,2.5l0.5,1.3l0.6,1.2c0.8,1.6,1.6,3.3,2.4,5
                    c6.5,13.4,14.7,27.5,24.8,41.4c10.1,14,22.2,27.9,36.4,41.1c14.2,13.2,30.4,25.6,48.6,36.6c18.2,11,38.2,20.6,59.9,27.9
                    c21.7,7.2,44.9,12.4,69.1,14.9c1.5,0.2,3,0.3,4.5,0.4c1.5,0.1,3,0.2,4.6,0.3c1.5,0.1,3.1,0.2,4.6,0.3c1.5,0.1,3.1,0.2,4.6,0.3
                    c3.1,0.1,6.2,0.2,9.3,0.2l2.3,0.1l1.2,0l0.6,0c0.2,0,0.2,0,0.5,0c1.6,0,3.1-0.1,4.7-0.1c3.2-0.1,6.4-0.1,9.4-0.4
                    c1.5-0.1,3.1-0.2,4.6-0.3l2.3-0.2c0.8-0.1,1.6-0.2,2.3-0.3c3.1-0.4,6.3-0.7,9.4-1.1c3.1-0.5,6.3-1,9.4-1.5
                    c12.5-2.3,25-5.5,37.5-9.3c12.5-3.8,25-8.2,37.6-12.8c12.6-4.6,25.2-9.4,38-14.3l4.8-1.8l2.4-0.9l2.4-1l4.8-1.9
                    c1.6-0.6,3.1-1.4,4.6-2.1c1.5-0.7,3.1-1.4,4.6-2.2l4.5-2.4c3.1-1.5,6-3.4,8.9-5.2c11.7-7.2,22.5-16.1,32.4-25.8
                    c9.9-9.8,18.9-20.6,26.8-32.2c7.9-11.6,14.9-24,20.8-36.8c5.9-12.9,10.8-26.2,14.8-39.9c4-13.7,7-27.7,8.9-41.8
                    c2-14.1,3-28.4,3.1-42.7c0.1-1.8-0.1-3.5-0.1-5.4l-0.2-5.4l-0.2-5.4l-0.4-5.3l-0.4-5.3c-0.2-1.8-0.2-3.6-0.5-5.3l-1.4-10.6
                    c-2.3-14.1-5.6-28-10-41.5c-4.5-13.5-10-26.6-16.4-39.3c-6.6-12.5-14-24.6-22.1-36c-8.3-11.4-17.4-22-27.1-32
                    c-9.8-9.9-20.2-19.1-31.1-27.6c-11-8.3-22.4-15.9-34.1-22.7c-3-1.6-6-3.2-8.9-4.8c-1.5-0.8-3-1.6-4.5-2.4l-4.6-2.2l-4.6-2.2
                    c-1.5-0.7-3-1.5-4.6-2.1c-3.1-1.3-6.2-2.6-9.3-3.9c-3.1-1.4-6.2-2.4-9.3-3.6c-1.6-0.6-3.1-1.2-4.7-1.7l-2.3-0.9l-2.4-0.8
                    c-3.2-1-6.3-2-9.5-3c-1.6-0.5-3.2-0.9-4.8-1.4c-1.6-0.4-3.2-0.8-4.8-1.3c-6.3-1.8-12.7-3.1-19.1-4.4c-1.6-0.4-3.2-0.6-4.8-0.9
                    c-1.6-0.3-3.2-0.5-4.8-0.8c-1.6-0.3-3.2-0.5-4.8-0.8l-2.4-0.4l-2.4-0.3c-6.4-0.7-12.7-1.6-19.1-1.9c-3.2-0.2-6.3-0.5-9.5-0.6
                    c-3.2-0.1-6.3-0.1-9.5-0.2c-1.6,0-3.1-0.1-4.7-0.1c-1.5,0-3.1,0.1-4.7,0.1c-3.1,0.1-6.3,0.2-9.4,0.2c-1.6,0-3.1,0.2-4.6,0.3
                    c-1.5,0.1-3.1,0.2-4.6,0.3c-1.5,0.1-3.1,0.2-4.6,0.3c-1.5,0.1-3.1,0.2-4.6,0.4c-24.4,2.6-47.7,7.8-69.6,15.2
                    c-21.8,7.5-42,17.2-60.2,28.3C122.1,59,105.8,71.5,91.7,84.9c-14.2,13.4-26.2,27.5-36.3,41.6c-10.1,14.1-18.1,28.3-24.6,41.8
                    c-0.8,1.7-1.6,3.4-2.4,5l-0.6,1.2l-0.5,1.3c-0.3,0.8-0.7,1.7-1,2.5c-1.4,3.3-2.8,6.6-4,9.8c-2.3,6.5-4.6,12.6-6.2,18.6
                    C8.9,230.5,6.6,250,5.7,263.3C5,269.9,5.1,275,5,278.4C4.9,281.9,4.9,283.6,4.9,283.6L4.9,283.6z M0,283.6c0,0,0.1-1.8,0.2-5.3
                    c0.2-3.5,0.1-8.7,0.8-15.4c1-13.5,3.6-33.3,11-57.5c1.7-6.1,4.1-12.3,6.5-18.8c1.3-3.2,2.7-6.5,4.1-9.9c0.4-0.8,0.7-1.7,1.1-2.5
                    l0.5-1.3l0.6-1.3c0.8-1.7,1.6-3.4,2.5-5.1c6.6-13.7,14.9-28,25.2-42.2c10.3-14.2,22.6-28.4,37-41.8
                    c14.4-13.4,30.9-26.1,49.3-37.3c18.4-11.2,38.8-21,60.8-28.5c22-7.4,45.7-12.6,70.3-15.2c1.5-0.2,3.1-0.3,4.6-0.4
                    c1.5-0.1,3.1-0.2,4.7-0.3c1.6-0.1,3.1-0.2,4.7-0.3c1.6-0.1,3.1-0.2,4.7-0.2c3.1-0.1,6.2-0.1,9.4-0.2c1.6,0,3.1-0.1,4.7-0.1
                    c1.6,0,3.2,0.1,4.7,0.1c3.2,0.1,6.3,0.2,9.5,0.2c3.2,0.1,6.4,0.4,9.6,0.7c6.4,0.3,12.8,1.3,19.2,2l2.4,0.3l2.4,0.4
                    c1.6,0.3,3.2,0.5,4.8,0.8c1.6,0.3,3.2,0.5,4.8,0.8c1.6,0.3,3.2,0.5,4.8,0.9c6.4,1.4,12.9,2.7,19.2,4.5c1.6,0.4,3.2,0.9,4.8,1.3
                    c1.6,0.4,3.2,0.9,4.8,1.4c3.2,1,6.3,2,9.5,3l2.4,0.8l2.4,0.9c1.6,0.6,3.1,1.2,4.7,1.8c1.6,0.6,3.1,1.2,4.7,1.8
                    c1.6,0.6,3.1,1.2,4.7,1.9c3.1,1.3,6.2,2.7,9.3,4c1.6,0.6,3.1,1.4,4.6,2.2l4.6,2.2l4.6,2.2c1.5,0.8,3,1.6,4.5,2.4
                    c3,1.6,6,3.2,9,4.9c11.8,6.9,23.3,14.6,34.3,23c10.9,8.6,21.3,17.8,31.1,27.9c9.7,10.1,18.8,20.9,27.1,32.4
                    c8.2,11.5,15.6,23.6,22.1,36.3c6.4,12.7,11.8,25.9,16.3,39.5c4.4,13.6,7.6,27.6,9.9,41.7L601,253c0.3,1.8,0.4,3.6,0.5,5.4
                    l0.4,5.4l0.4,5.4l0.1,5.4l0.1,5.4c0,1.8,0.1,3.6,0.1,5.4c-0.3,28.7-4.1,57.4-12,84.8c-3.9,13.7-8.8,27.2-14.7,40.1
                    c-6,12.9-12.9,25.3-20.8,37c-15.8,23.4-36.1,43.6-59.4,58.7c-2.9,1.8-5.8,3.8-8.8,5.5l-4.5,2.6c-1.5,0.8-3.1,1.6-4.6,2.4
                    c-1.5,0.8-3.1,1.6-4.6,2.3l-4.7,2.2l-2.3,1.1l-2.4,1l-4.7,2.1c-12.5,5.5-24.8,11.1-37.2,16.4c-12.4,5.3-24.8,10.2-37.5,14.4
                    c-12.6,4.2-25.5,7.5-38.3,9.9c-3.2,0.5-6.5,1-9.7,1.6c-3.2,0.5-6.5,0.8-9.7,1.2c-0.8,0.1-1.6,0.2-2.4,0.3l-2.4,0.2
                    c-1.6,0.1-3.3,0.2-4.9,0.4c-3.3,0.3-6.4,0.3-9.6,0.4c-1.6,0-3.2,0.1-4.7,0.1c-0.1,0-0.5,0-0.7,0l-0.6,0l-1.2,0l-2.4-0.1
                    c-3.2-0.1-6.3-0.1-9.5-0.2c-1.6,0-3.1-0.1-4.7-0.3c-1.6-0.1-3.1-0.2-4.7-0.3c-1.6-0.1-3.1-0.2-4.7-0.3c-1.6-0.1-3.1-0.2-4.7-0.4
                    c-24.8-2.6-48.6-7.9-70.7-15.4c-22.2-7.6-42.6-17.6-61.2-28.9c-18.5-11.3-35.1-24.2-49.4-37.8c-14.4-13.6-26.6-27.9-36.9-42.3
                    c-10.2-14.4-18.4-28.8-25-42.5c-0.8-1.7-1.6-3.4-2.4-5.1l-0.6-1.3l-0.5-1.3c-0.4-0.9-0.7-1.7-1.1-2.5c-1.4-3.4-2.8-6.7-4.1-9.9
                    c-2.3-6.6-4.7-12.8-6.4-18.9c-0.5-1.5-0.9-3-1.3-4.5c-0.4-1.5-0.9-2.9-1.2-4.4c-0.7-2.9-1.4-5.7-2-8.5c-0.3-1.4-0.7-2.7-1-4
                    c-0.2-1.3-0.5-2.7-0.7-4c-0.5-2.6-0.9-5.1-1.4-7.5c-0.5-2.4-0.7-4.8-1-7c-0.3-2.3-0.6-4.4-0.9-6.5c-0.1-1-0.3-2-0.4-3
                    c-0.1-1-0.2-2-0.2-2.9c-0.1-1.9-0.3-3.7-0.4-5.4c-0.7-6.8-0.6-11.9-0.7-15.4C0,285.5,0,283.7,0,283.6L0,283.6z"/>
            </g>
        </g>
    </g>
    <g>
        <path fill="#FFFFFF" d="M303.2,286.6c2.5,5.9,4.5,12,6.3,18.1c2.2,7.1,4.5,14.3,6.8,21.4c4.6,14.2,9.5,28.4,14.6,42.5
            c5.1,14.1,10.4,28.1,16,42c5.6,13.9,11.4,27.7,17.6,41.3c6.2,13.6,12.7,27.1,19.7,40.3c7,13.2,14.6,26.1,23,38.4
            c4.2,6.2,8.6,12.2,13.4,17.9c4.7,5.7,9.8,11.2,15.3,16.3c5.5,5,11.5,9.5,18,13c6.5,3.5,13.8,5.7,21.2,5.9h0l-0.5,0.5l-0.4-127
            l0.2,0.5l0,0c-10.3-15.1-18.3-31.6-24.4-48.8c-6.1-17.2-10.4-34.9-13.4-52.9c-2.9-17.9-4.5-36.1-5.1-54.3
            c-0.3-9.1-0.2-18.2,0.1-27.2c0.1-4.5,0.4-9.1,0.7-13.6c0.3-4.5,0.7-9.1,1.2-13.6l0,0v0c-5.8,0.9-11.6,2-17.3,3.2
            c-5.8,1.2-11.5,2.4-17.2,3.8c-11.4,2.7-22.8,5.7-34,9c-2.8,0.8-5.6,1.7-8.4,2.6c-2.8,0.9-5.6,1.8-8.3,2.7
            c-2.8,0.9-5.5,1.9-8.3,2.9c-2.7,1-5.5,2-8.2,3c-2.7,1-5.4,2.1-8.2,3.2c-2.7,1.1-5.4,2.2-8.1,3.4c-2.7,1.2-5.3,2.3-8,3.6
            C306.1,285.2,304.7,285.9,303.2,286.6z M296.4,281.1c2.8-1.1,5.5-2.3,8.3-3.4c2.8-1.1,5.5-2.1,8.3-3.2c2.8-1,5.6-2,8.4-3
            c2.8-0.9,5.6-1.9,8.4-2.8c2.8-0.9,5.7-1.8,8.5-2.6c2.8-0.8,5.7-1.7,8.5-2.4c2.8-0.8,5.7-1.5,8.6-2.3c2.9-0.7,5.7-1.5,8.6-2.1
            c11.5-2.8,23-5.1,34.6-7.2c5.8-1,11.6-2,17.4-2.8c5.8-0.8,11.7-1.6,17.5-2.2v0l0,0c-0.5,4.5-0.8,9-1.1,13.6
            c-0.3,4.5-0.5,9.1-0.6,13.6c-0.2,9.1-0.2,18.2,0.1,27.2c0.7,18.1,2.4,36.2,5.5,54.1c3.1,17.9,7.5,35.5,13.7,52.6
            c6.2,17,14.3,33.4,24.6,48.2l0,0l0.2,0.2l0,0.3l-0.4,127l0,0.5l-0.5,0h0c-7.6,0.1-15.2-1.9-22-5.2c-6.9-3.3-13.1-7.7-18.9-12.7
            c-5.8-4.9-11.1-10.4-16.1-16c-5-5.7-9.7-11.6-14.1-17.8c-8.9-12.2-16.9-25.1-24.3-38.2c-7.5-13.1-14.4-26.5-21-40.1
            c-6.6-13.6-12.8-27.3-18.7-41.2c-5.9-13.9-11.6-27.8-17-41.9c-5.4-14.1-10.6-28.2-15.6-42.4c-2.5-7.1-4.9-14.2-7.3-21.4
            c-2.4-7.1-4.7-14.3-5.7-21.9l-0.5-3.6L296.4,281.1z"/>
    </g>
</g>
</svg>
