<svg id="Objects" xmlns="http://www.w3.org/2000/svg" viewBox="0 0 100 100"><defs><style>.cls-1{fill:#fff;}.cls-2{fill:#f3d457;}.cls-3{fill:#3d3126;}</style></defs><title>fruit</title><path class="cls-1" d="M76.25,28.46s-12.92-16.8-36.61-7.75S18.75,54.3,33.4,55.17L33,39.66,47.18,36l-0.95,5.88,1.16,6.61-3,13.14s-5.6,10.55-2.15,15.29,7.54,5,7.54,5l6.68-6.68-0.61-22.7,0.8-13.73,13.16-5.34Z"/><path class="cls-2" d="M22.45,47.46c-0.09-.23-0.17-0.47-0.24-0.72C22.28,47,22.36,47.23,22.45,47.46Z"/><path class="cls-2" d="M22.74,48.14c-0.09-.2-0.18-0.4-0.26-0.61C22.56,47.75,22.65,47.95,22.74,48.14Z"/><path class="cls-2" d="M22.16,46.56q-0.09-.3-0.16-0.62Q22.07,46.25,22.16,46.56Z"/><path class="cls-2" d="M23.14,48.91c-0.11-.2-0.22-0.4-0.32-0.61C22.92,48.51,23,48.72,23.14,48.91Z"/><path class="cls-2" d="M22,45.75q-0.08-.4-0.14-0.81Q21.88,45.35,22,45.75Z"/><path class="cls-2" d="M24,50.18q0.22,0.27.47,0.51Q24.26,50.45,24,50.18Z"/><path class="cls-2" d="M21.8,44.77q0-.35-0.07-0.72Q21.76,44.42,21.8,44.77Z"/><path class="cls-2" d="M21.71,43.81c0-.3,0-0.61,0-0.92C21.68,43.2,21.7,43.51,21.71,43.81Z"/><path class="cls-2" d="M28.11,53l-0.64-.26Z"/><path class="cls-2" d="M23.53,49.52c-0.13-.19-0.26-0.39-0.38-0.6C23.27,49.13,23.4,49.33,23.53,49.52Z"/><path class="cls-2" d="M27.45,52.71a10.29,10.29,0,0,1-1.22-.64A10.28,10.28,0,0,0,27.45,52.71Z"/><path class="cls-2" d="M24,50.11q-0.19-.23-0.37-0.48Q23.79,49.88,24,50.11Z"/><path class="cls-2" d="M25,51.16q-0.23-.2-0.46-0.43Q24.77,51,25,51.16Z"/><path class="cls-2" d="M26.17,52a9.4,9.4,0,0,1-1.1-.8A9.4,9.4,0,0,0,26.17,52Z"/><path class="cls-2" d="M41.55,74.76l0,0.2Z"/><path class="cls-2" d="M41.3,73.17c0,0.08,0,.17,0,0.25C41.31,73.33,41.31,73.25,41.3,73.17Z"/><path class="cls-2" d="M41.39,74l0,0.26Z"/><path class="cls-2" d="M41.81,75.63l0.06,0.14Z"/><path class="cls-2" d="M43.95,78.44l0.21,0.15Z"/><path class="cls-2" d="M42.87,77.45L43,77.57Z"/><path class="cls-2" d="M42.43,76.85L42.56,77Z"/><path class="cls-2" d="M42.09,76.26l0.11,0.21Z"/><path class="cls-2" d="M43.42,78l0.17,0.14Z"/><path class="cls-2" d="M44.76,79l-0.22-.12Z"/><path class="cls-2" d="M47.15,43.25l0,0.45C47.13,43.55,47.14,43.4,47.15,43.25Z"/><path class="cls-2" d="M47.17,42.65c0,0.11,0,.23,0,0.35C47.16,42.88,47.17,42.76,47.17,42.65Z"/><path class="cls-2" d="M47.11,43.93c0,0.24,0,.49,0,0.76C47.09,44.42,47.1,44.17,47.11,43.93Z"/><path class="cls-2" d="M45.52,79.3l-0.15-.06Z"/><path class="cls-2" d="M71.57,27.9a33,33,0,0,0-17-4.36c-10.68.08-17.3,4-21,7.31A21.15,21.15,0,0,0,26.3,46.39,11.4,11.4,0,0,0,28.11,53a13.38,13.38,0,0,0,4.57.79c3-.24,5.09-1.48,5.5-3.33a1.83,1.83,0,0,0-.61-2A2.28,2.28,0,0,0,37,48.21c-0.38,0-.74.05-1.07,0.09a9.67,9.67,0,0,0-1,.41c-1.15.53-3.07,1.41-4.92-.35A2.92,2.92,0,0,1,29.51,45c1.05-2.5,5.61-6.62,16-6.24a1.62,1.62,0,0,1,1.17.57c0.33,0.39.54,0.64,0.46,3.09V42.29c0.94,0,2.2,5,1.77,11.72a23.3,23.3,0,0,1-1.47,7.43c-0.52,1.36-1.11,2.91-1.7,4.88-1.5,5-1.37,7.12-1.36,7.32a1,1,0,0,1,0,.23,7.27,7.27,0,0,0,2.18,5.71l0,0.07a14.32,14.32,0,0,0,3.35.42c5.79-.1,8.73-2.7,8.73-7.75a1,1,0,0,1,0-.24c0-.21.14-2.3-1.36-7.32-0.59-2-1.18-3.52-1.7-4.88a28.63,28.63,0,0,1-2-7.4c-0.29-2.39-.56-5.3-0.72-7.8-0.28-4.62-.06-4.88.35-5.36a1.62,1.62,0,0,1,1.17-.57c10.43-.38,15,3.74,16,6.24A2.92,2.92,0,0,1,70,48.36c-1.85,1.76-3.77.88-4.92,0.35s-1.76-.77-2.68-0.25a1.83,1.83,0,0,0-.61,2c0.4,1.84,2.46,3.08,5.5,3.33,5.33,0,11-2.89,11-10.89A21,21,0,0,0,71.57,27.9Z"/><path class="cls-2" d="M46.38,79.59l-0.28-.08Z"/><path class="cls-3" d="M73.08,24.94c-4-3.61-11.19-7.9-22.56-8.11h-1c-11.37.21-18.53,4.5-22.56,8.11a24.3,24.3,0,0,0-8.38,17.89c0,9.68,7.11,14,14.17,14h0.21c6.67-.53,8.07-4.56,8.34-5.79a4.87,4.87,0,0,0-2.15-5.42,5.57,5.57,0,0,0-5.53.14,2.58,2.58,0,0,1-1.19.4A3.62,3.62,0,0,1,33.31,45c1-1,4.08-3.12,10.74-3.16,0,2-.33,6.3-0.82,10.22a25.75,25.75,0,0,1-1.86,6.66c-0.54,1.42-1.16,3-1.78,5.11-1.61,5.38-1.54,7.89-1.47,8.55,0,3.62,1.31,6.51,3.74,8.37a13.07,13.07,0,0,0,7.53,2.41l0.26,0h0.7l0.26,0a13.07,13.07,0,0,0,7.53-2.41c2.42-1.86,3.71-4.76,3.74-8.37,0.06-.66.14-3.17-1.47-8.55-0.62-2.09-1.24-3.69-1.78-5.11a25.75,25.75,0,0,1-1.86-6.66C56.29,48.13,56,43.87,56,41.83c6.66,0,9.7,2.19,10.74,3.16a3.61,3.61,0,0,1,.91,1.21,2.57,2.57,0,0,1-1.19-.4,5.57,5.57,0,0,0-5.53-.14,4.87,4.87,0,0,0-2.15,5.42c0.27,1.23,1.67,5.27,8.34,5.79H67.3c7.06,0,14.17-4.36,14.17-14A24.3,24.3,0,0,0,73.08,24.94ZM61.81,50.4a1.83,1.83,0,0,1,.61-2c0.92-.51,1.52-0.28,2.68.25s3.07,1.41,4.92-.35a2.92,2.92,0,0,0,.47-3.36c-1.05-2.5-5.62-6.62-16-6.24a1.62,1.62,0,0,0-1.17.57c-0.41.48-.64,0.75-0.35,5.36,0.15,2.5.42,5.42,0.72,7.8a28.63,28.63,0,0,0,2,7.4c0.52,1.36,1.11,2.91,1.7,4.88,1.5,5,1.37,7.12,1.36,7.32a1,1,0,0,0,0,.24c0,5-2.94,7.65-8.73,7.75-5.79-.1-8.73-2.7-8.73-7.75a1,1,0,0,0,0-.23c0-.21-0.14-2.3,1.36-7.32,0.59-2,1.18-3.52,1.7-4.88a28.63,28.63,0,0,0,2-7.4c0.29-2.39.56-5.3,0.72-7.8,0.28-4.62.06-4.88-.35-5.36a1.62,1.62,0,0,0-1.17-.57c-10.43-.38-15,3.74-16,6.24A2.92,2.92,0,0,0,30,48.31c1.85,1.76,3.77.88,4.92,0.35a9.65,9.65,0,0,1,1-.41A2,2,0,0,1,37,48.16a2.28,2.28,0,0,1,.62.25,1.83,1.83,0,0,1,.61,2c-0.4,1.84-2.46,3.08-5.5,3.33-5.33,0-11-2.89-11-10.89A21.15,21.15,0,0,1,29,27.28C32.7,24,39.32,20.06,50,20c10.68,0.08,17.3,4,21,7.31a21.15,21.15,0,0,1,7.34,15.55c0,8-5.67,10.87-11,10.89C64.27,53.48,62.22,52.24,61.81,50.4Z"/></svg>