<svg id="Objects" xmlns="http://www.w3.org/2000/svg" viewBox="0 0 100 100"><defs><style>.cls-1{fill:#fff;}.cls-2{fill:#5f775d;}.cls-3{fill:#d88835;}.cls-4{fill:#97bd95;}.cls-5{fill:#f3d457;}.cls-6{fill:#3d3126;}</style></defs><title>fruit</title><path class="cls-1" d="M35,74.16S16,69.73,16,47.16,49.84,24.89,49.84,24.89l21.66,4S83.85,37.4,83.85,47s-0.61,15.41-9.3,21S35,74.16,35,74.16Z"/><path class="cls-2" d="M57.32,29.66L56.52,29A26.18,26.18,0,0,1,53.45,73c9.78,0,27.89-4.67,28.65-21.83C81.35,36.14,67.33,30.77,57.32,29.66Z"/><path class="cls-3" d="M54.75,27.82c-0.43-.27-0.86-0.53-1.3-0.77C53.89,27.29,54.32,27.55,54.75,27.82Z"/><path class="cls-3" d="M56.11,28.74q-0.48-.35-1-0.67Q55.63,28.4,56.11,28.74Z"/><path class="cls-4" d="M46.45,27.75L47,27.89Z"/><path class="cls-4" d="M47.52,28L48,28.21Z"/><path class="cls-4" d="M48.57,28.39l0.51,0.19Z"/><path class="cls-4" d="M44.25,27.3l0.49,0.08Z"/><path class="cls-4" d="M43.12,27.16l0.46,0.06Z"/><path class="cls-4" d="M49.59,28.79L50.1,29Z"/><path class="cls-4" d="M45.36,27.5l0.5,0.11Z"/><path class="cls-4" d="M17.91,51.39c0-.46,0-0.92,0-1.39C17.86,50.47,17.88,50.93,17.91,51.39Z"/><path class="cls-4" d="M54.33,31.46l0.45,0.34Z"/><path class="cls-4" d="M55.18,32.11l0.44,0.36Z"/><path class="cls-4" d="M56,32.81l0.42,0.38Z"/><path class="cls-4" d="M51.57,29.73L52.06,30Z"/><path class="cls-4" d="M50.59,29.24l0.5,0.24Z"/><path class="cls-4" d="M52.52,30.26L53,30.55Z"/><path class="cls-4" d="M53.44,30.84l0.46,0.32Z"/><path class="cls-4" d="M42,27.08l0.38,0Z"/><path class="cls-4" d="M24.19,65.79Q23.83,65.42,23.5,65,23.83,65.42,24.19,65.79Z"/><path class="cls-4" d="M24.42,66c0.3,0.31.61,0.62,0.93,0.91C25,66.65,24.72,66.35,24.42,66Z"/><path class="cls-4" d="M22.46,63.76c-0.27-.35-0.52-0.72-0.77-1.09C21.94,63,22.19,63.4,22.46,63.76Z"/><path class="cls-4" d="M23.28,64.78c-0.28-.33-0.55-0.66-0.8-1C22.73,64.12,23,64.45,23.28,64.78Z"/><path class="cls-4" d="M26.38,67.83c-0.35-.28-0.69-0.57-1-0.88C25.69,67.25,26,67.54,26.38,67.83Z"/><path class="cls-4" d="M18,52.79q-0.06-.49-0.1-1Q18,52.3,18,52.79Z"/><path class="cls-4" d="M28.69,69.47q-0.49-.31-1-0.64Q28.2,69.17,28.69,69.47Z"/><path class="cls-4" d="M27.45,68.64Q27,68.33,26.6,68,27,68.33,27.45,68.64Z"/><path class="cls-4" d="M56.57,33.33A22.94,22.94,0,0,0,28.79,69.54,22.94,22.94,0,0,0,56.57,33.33Zm-8,6.62L50.51,38a1.63,1.63,0,1,1,2.3,2.3l-1.94,1.94A1.63,1.63,0,1,1,48.57,39.95ZM39,34.67a1.5,1.5,0,1,1,3,0v2.74a1.5,1.5,0,1,1-3,0V34.67ZM28.83,38a1.63,1.63,0,0,1,2.3,0l1.94,1.94a1.63,1.63,0,0,1-2.3,2.3l-1.94-1.94A1.63,1.63,0,0,1,28.83,38ZM25.49,52a2,2,0,0,1,0-4h2.74a2,2,0,0,1,0,4H25.49Zm7.57,8.05L31.13,62a1.63,1.63,0,1,1-2.3-2.3l1.94-1.94A1.63,1.63,0,1,1,33.06,60.05ZM42,65.33a1.5,1.5,0,1,1-3,0V62.59a1.5,1.5,0,1,1,3,0v2.74Zm-1.18-6.06A9.27,9.27,0,1,1,50.09,50,9.28,9.28,0,0,1,40.82,59.27Zm12,2.72a1.63,1.63,0,0,1-2.3,0l-1.94-1.94a1.63,1.63,0,1,1,2.3-2.3l1.94,1.94A1.63,1.63,0,0,1,52.81,62Zm3.34-10H53.41a2,2,0,0,1,0-4h2.74A2,2,0,0,1,56.15,52Z"/><path class="cls-4" d="M18.63,55.87c-0.11-.43-0.22-0.87-0.31-1.31C18.41,55,18.51,55.44,18.63,55.87Z"/><path class="cls-4" d="M21.51,62.39Q21.24,62,21,61.53,21.24,62,21.51,62.39Z"/><path class="cls-4" d="M19,57.17q-0.16-.48-0.29-1Q18.86,56.69,19,57.17Z"/><path class="cls-4" d="M18.28,54.34q-0.11-.56-0.19-1.12Q18.17,53.79,18.28,54.34Z"/><path class="cls-4" d="M19.52,58.53q-0.19-.48-0.36-1Q19.32,58.05,19.52,58.53Z"/><path class="cls-4" d="M20.79,61.2q-0.27-.47-0.51-1Q20.53,60.72,20.79,61.2Z"/><path class="cls-4" d="M20.17,60q-0.29-.6-0.55-1.21Q19.88,59.43,20.17,60Z"/><path class="cls-5" d="M42.49,44.22a6,6,0,0,1,1.3.55A6,6,0,0,0,42.49,44.22Z"/><path class="cls-5" d="M44,44.87q0.24,0.14.46,0.31Q44.19,45,44,44.87Z"/><path class="cls-5" d="M41.77,44.06l0.53,0.11Z"/><path class="cls-5" d="M36.1,53.73a6.07,6.07,0,0,0,1,1A6.08,6.08,0,0,1,36.1,53.73Z"/><path class="cls-5" d="M45.55,46.28a6.06,6.06,0,0,0-1-1A6.07,6.07,0,0,1,45.55,46.28Z"/><path class="cls-5" d="M40.82,44a6,6,0,0,1,.74,0A6,6,0,0,0,40.82,44Z"/><path class="cls-5" d="M45.64,46.41q0.17,0.23.32,0.48Q45.81,46.64,45.64,46.41Z"/><path class="cls-5" d="M37.71,55.14q-0.25-.15-0.48-0.32Q37.46,55,37.71,55.14Z"/><path class="cls-5" d="M36,53.59q-0.16-.22-0.31-0.46Q35.83,53.37,36,53.59Z"/><path class="cls-4" d="M46,47a6,6,0,0,0-8.23,8.23A6,6,0,0,0,46,47Z"/><path class="cls-5" d="M35,51.47q-0.07-.26-0.11-0.53Q34.92,51.22,35,51.47Z"/><path class="cls-5" d="M35.59,53a6,6,0,0,1-.55-1.3A6,6,0,0,0,35.59,53Z"/><path class="cls-5" d="M34.85,50.74a6,6,0,0,1,0-.74A6,6,0,0,0,34.85,50.74Z"/><path class="cls-6" d="M40.82,59.27A9.27,9.27,0,1,0,31.55,50,9.28,9.28,0,0,0,40.82,59.27Zm6-9.27a6,6,0,1,1-6-6A6,6,0,0,1,46.84,50Z"/><path class="cls-6" d="M40.82,39a1.63,1.63,0,0,0,1.63-1.63V34.67a1.63,1.63,0,1,0-3.25,0v2.74A1.63,1.63,0,0,0,40.82,39Z"/><path class="cls-6" d="M40.82,61a1.63,1.63,0,0,0-1.63,1.63v2.74a1.63,1.63,0,1,0,3.25,0V62.59A1.63,1.63,0,0,0,40.82,61Z"/><path class="cls-6" d="M23.86,50a1.63,1.63,0,0,0,1.63,1.63h2.74a1.63,1.63,0,0,0,0-3.25H25.49A1.63,1.63,0,0,0,23.86,50Z"/><path class="cls-6" d="M51.79,50a1.63,1.63,0,0,0,1.63,1.63h2.74a1.63,1.63,0,0,0,0-3.25H53.41A1.63,1.63,0,0,0,51.79,50Z"/><path class="cls-6" d="M30.77,57.75l-1.94,1.94a1.63,1.63,0,0,0,2.3,2.3l1.94-1.94A1.63,1.63,0,1,0,30.77,57.75Z"/><path class="cls-6" d="M49.72,42.72a1.62,1.62,0,0,0,1.15-.48l1.94-1.94a1.63,1.63,0,1,0-2.3-2.3l-1.94,1.94A1.63,1.63,0,0,0,49.72,42.72Z"/><path class="cls-6" d="M30.77,42.25a1.63,1.63,0,1,0,2.3-2.3L31.13,38a1.63,1.63,0,1,0-2.3,2.3Z"/><path class="cls-6" d="M50.87,57.75a1.63,1.63,0,1,0-2.3,2.3L50.51,62a1.63,1.63,0,1,0,2.3-2.3Z"/><path class="cls-6" d="M73.53,29.13a40.77,40.77,0,0,0-20.2-5.34H40.82a26.21,26.21,0,1,0,0,52.41H53.33a40.77,40.77,0,0,0,20.2-5.34A23.31,23.31,0,0,0,85.39,50,23.31,23.31,0,0,0,73.53,29.13ZM63.77,50a23,23,0,1,1-23-23A23,23,0,0,1,63.77,50ZM67,50A26.22,26.22,0,0,0,53.45,27c10,0,28.69,4.87,28.69,23S63.44,72.92,53.45,73A26.22,26.22,0,0,0,67,50Z"/></svg>