<svg id="Objects" xmlns="http://www.w3.org/2000/svg" viewBox="0 0 100 100"><defs><style>.cls-1{fill:#fff;}.cls-2{fill:#97bd95;}.cls-3{fill:#d88835;}.cls-4{fill:#3d3126;}</style></defs><title>fruit</title><path class="cls-1" d="M57,26V22s-2-2.78-5.81-.69-4.54,11.43-4.54,11.43a10.94,10.94,0,0,0-7.44-.22,15.18,15.18,0,0,0-5.92,3.08S22.65,36,21.33,52,25.08,75.18,34,75.18c0,0,4,5.28,11,1.21,0,0,1.54,2.9,5.94,2.53s5.5-2,5.5-2,5.5,2.2,9.13-1.1c0,0,11.1,1.32,13.63-16.38S66,35.49,66,35.49l-4.73-2.64-2.31-1L52.29,33,53,30.76V27S54,24.87,57,26Z"/><path class="cls-2" d="M49,28.39V35h2V29c0-.53-0.19-3,1.55-4.17A3.1,3.1,0,0,1,55,24.4V23.63a4.58,4.58,0,0,0-1-.08A5,5,0,0,0,49,28.39Z"/><path class="cls-3" d="M60.12,57.54a35.22,35.22,0,0,0-1.49-10.31,35.22,35.22,0,0,1,1.49,10.31h0Z"/><path class="cls-3" d="M56.4,42.13a21.33,21.33,0,0,1,1.68,3.5A21.33,21.33,0,0,0,56.4,42.13Z"/><path class="cls-3" d="M41.39,47.23q0.26-.83.55-1.6Q41.65,46.4,41.39,47.23Z"/><path class="cls-3" d="M58.08,45.63q0.29,0.77.55,1.6Q58.37,46.4,58.08,45.63Z"/><path class="cls-3" d="M41.94,45.63a21.33,21.33,0,0,1,1.68-3.5A21.33,21.33,0,0,0,41.94,45.63Z"/><path class="cls-3" d="M41.39,47.23A35.22,35.22,0,0,0,39.9,57.54h0A35.22,35.22,0,0,1,41.39,47.23Z"/><path class="cls-3" d="M60.07,59.44q0-.94,0-1.9Q60.12,58.5,60.07,59.44Z"/><path class="cls-3" d="M50,41.35c-5.15,0-9.55,8.12-10.06,18.12C40.46,69.48,44.86,77.6,50,77.6s9.55-8.12,10.06-18.13C59.56,49.47,55.16,41.35,50,41.35Z"/><path class="cls-3" d="M40,59.44q0-.94,0-1.9C39.9,58.18,39.92,58.81,40,59.44Z"/><path class="cls-3" d="M22.71,60.77c-0.08-.47-0.14-0.94-0.19-1.41C22.58,59.84,22.64,60.31,22.71,60.77Z"/><path class="cls-3" d="M22.5,59.14q-0.07-.69-0.11-1.38Q22.43,58.45,22.5,59.14Z"/><path class="cls-3" d="M23,62.23q-0.16-.71-0.28-1.45C22.8,61.27,22.89,61.76,23,62.23Z"/><path class="cls-3" d="M22.38,57.52c0-.48,0-1,0-1.46C22.34,56.55,22.36,57,22.38,57.52Z"/><path class="cls-3" d="M26.21,57.06a30.37,30.37,0,0,1,4-15.59,13.23,13.23,0,0,0-3.27,3.59,25.06,25.06,0,0,0-3.53,13.38,27.57,27.57,0,0,0,1.55,9.3,18.88,18.88,0,0,0,1,1.7,11.4,11.4,0,0,0,5.29,4.71q-0.51-.7-1-1.47A30.36,30.36,0,0,1,26.21,57.06Z"/><path class="cls-3" d="M23.36,63.68Q23.16,63,23,62.29,23.16,63,23.36,63.68Z"/><path class="cls-3" d="M24.91,67.74a22.54,22.54,0,0,1-1.53-4A22.47,22.47,0,0,0,24.91,67.74Z"/><path class="cls-3" d="M29.13,58.88c0,0.5.07,1,.12,1.49C29.19,59.88,29.16,59.39,29.13,58.88Z"/><path class="cls-3" d="M29.27,60.65q0.08,0.74.19,1.46Q29.35,61.39,29.27,60.65Z"/><path class="cls-3" d="M30.23,48.52q0.25-.88.56-1.71Q30.48,47.64,30.23,48.52Z"/><path class="cls-3" d="M30,49.4a31.55,31.55,0,0,0-.92,7.66h0A31.55,31.55,0,0,1,30,49.4Z"/><path class="cls-3" d="M29.5,62.31a29,29,0,0,0,.64,2.94A29,29,0,0,1,29.5,62.31Z"/><path class="cls-3" d="M42.24,39.07l0.14-.19Z"/><path class="cls-3" d="M31.16,68.27C31,67.86,30.83,67.43,30.68,67Q30.9,67.65,31.16,68.27Z"/><path class="cls-3" d="M29.08,57.06c0,0.53,0,1.06,0,1.59C29.09,58.13,29.08,57.6,29.08,57.06Z"/><path class="cls-3" d="M30.6,66.77q-0.22-.65-0.41-1.33Q30.38,66.12,30.6,66.77Z"/><path class="cls-3" d="M41.7,39.81l0,0.06H41.49c-2.91,0-5.69,1.94-7.85,5.47A27.46,27.46,0,0,0,30.1,59.45a30.17,30.17,0,0,0,1.71,10.25c-0.21-.41-0.4-0.84-0.58-1.27a20.89,20.89,0,0,0,1.4,2.75c2.15,3.53,4.94,5.47,7.85,5.47a6.61,6.61,0,0,0,2-.32C39.16,72.21,37,65.4,37,57.54,37,50.32,38.83,44,41.7,39.81Z"/><path class="cls-3" d="M70.54,62.11q0.11-.72.19-1.46Q70.65,61.38,70.54,62.11Z"/><path class="cls-3" d="M70.22,63.8c0.11-.49.2-1,0.28-1.49C70.42,62.81,70.33,63.31,70.22,63.8Z"/><path class="cls-3" d="M70.22,63.8c-0.11.49-.23,1-0.36,1.44C70,64.77,70.12,64.29,70.22,63.8Z"/><path class="cls-3" d="M70.92,57.06A31.55,31.55,0,0,0,70,49.4a31.55,31.55,0,0,1,.92,7.66h0Z"/><path class="cls-3" d="M70.76,60.37c0-.49.09-1,0.12-1.49C70.84,59.39,70.81,59.88,70.76,60.37Z"/><path class="cls-3" d="M70.88,58.65c0-.53,0-1.06,0-1.59C70.92,57.6,70.91,58.13,70.88,58.65Z"/><path class="cls-3" d="M69.4,66.77q0.22-.65.41-1.33Q69.62,66.12,69.4,66.77Z"/><path class="cls-3" d="M69.21,46.8q0.3,0.83.56,1.71Q69.52,47.64,69.21,46.8Z"/><path class="cls-3" d="M68.19,69.69c0.2-.41.4-0.84,0.58-1.27C68.59,68.86,68.4,69.28,68.19,69.69Z"/><path class="cls-3" d="M68.84,68.27c0.17-.42.33-0.84,0.48-1.28C69.17,67.43,69,67.85,68.84,68.27Z"/><path class="cls-3" d="M69.9,59.45a27.46,27.46,0,0,0-3.55-14.11c-2.15-3.53-4.94-5.47-7.85-5.47H58.36C61.2,44,63,50.35,63,57.54c0,7.86-2.13,14.68-5.45,18.79a6.62,6.62,0,0,0,2,.31c2.91,0,5.69-1.94,7.85-5.47q0.43-.71.82-1.48A30.17,30.17,0,0,0,69.9,59.45Z"/><path class="cls-3" d="M59.74,37h0.1C59,37,57,37.66,57,38h0C57,37.66,58.85,37,59.74,37Z"/><path class="cls-3" d="M46,35.61v-0.7a11.69,11.69,0,0,0-2.59-.31,9.57,9.57,0,0,0-1.55.12h0A9.83,9.83,0,0,1,45.4,36a1.66,1.66,0,0,0,.6-0.39h0Z"/><path class="cls-3" d="M41.31,34.65h0Z"/><path class="cls-3" d="M57.93,33.48h0Z"/><path class="cls-3" d="M56.76,34.59a10.71,10.71,0,0,0-2.81.3l-0.05.63S54,35.73,54,35.76c0.16,0.09.45,0.13,0.61,0.23a10.16,10.16,0,0,1,3.66-1.29A9.72,9.72,0,0,0,56.76,34.59Z"/><path class="cls-3" d="M75.09,67.74a27.57,27.57,0,0,0,1.55-9.3,25.06,25.06,0,0,0-3.53-13.38,13.23,13.23,0,0,0-3.27-3.59,30.37,30.37,0,0,1,4,15.59,30.36,30.36,0,0,1-4,15.61q-0.48.78-1,1.48a11.4,11.4,0,0,0,5.3-4.71,21.27,21.27,0,0,0,2.49-5.67A22.55,22.55,0,0,1,75.09,67.74Z"/><path class="cls-3" d="M77.62,57.52c0-.48,0-1,0-1.46C77.66,56.55,77.64,57,77.62,57.52Z"/><path class="cls-3" d="M74.13,42.68A24.24,24.24,0,0,1,77.6,54.17a24.24,24.24,0,0,0-3.47-11.49c-2.07-3.23-4.74-5.06-7.54-5.19h0C69.39,37.63,72.06,39.45,74.13,42.68Z"/><path class="cls-3" d="M77.61,57.75q0,0.7-.11,1.38Q77.57,58.45,77.61,57.75Z"/><path class="cls-3" d="M76.64,63.69q0.19-.69.35-1.39Q76.84,63,76.64,63.69Z"/><path class="cls-3" d="M77.29,60.77c0.08-.47.14-0.94,0.19-1.41C77.42,59.84,77.36,60.31,77.29,60.77Z"/><path class="cls-3" d="M77,62.24c0.1-.48.2-1,0.28-1.45Q77.16,61.52,77,62.24Z"/><path class="cls-4" d="M76.55,41.24c-2.65-4.13-6.21-6.43-10.06-6.52-1.2-2.4-4.67-4-8.67-4a13.9,13.9,0,0,0-3.76.51V29s0-.08,0-0.12a2.39,2.39,0,0,1,.34-1.59,2.42,2.42,0,0,1,1.72.51,1.44,1.44,0,0,0,2.13-1.26v-5a1.44,1.44,0,0,0-.76-1.26,7.71,7.71,0,0,0-11.35,6.79v4.07a13.92,13.92,0,0,0-3.69-.49c-4,0-7.46,1.62-8.67,4h0c-3.93,0-7.58,2.32-10.28,6.52a28,28,0,0,0-4,14.93,28,28,0,0,0,4,14.93c2.7,4.21,6.35,6.52,10.28,6.52l0.73,0a10.18,10.18,0,0,0,6,2,9.7,9.7,0,0,0,4.22-1,8.25,8.25,0,0,0,10.62,0,9.69,9.69,0,0,0,4.21,1,10.18,10.18,0,0,0,6-2l0.73,0c3.93,0,7.58-2.32,10.28-6.52a28,28,0,0,0,4-14.93A28,28,0,0,0,76.55,41.24ZM40.47,76.75c-2.91,0-5.69-1.94-7.85-5.47a27.46,27.46,0,0,1-3.55-14.11,27.46,27.46,0,0,1,3.55-14.11c2.15-3.53,4.94-5.47,7.85-5.47a6.76,6.76,0,0,1,2.63.54C39.43,42.14,37,49.3,37,57.65c0,7.86,2.13,14.67,5.44,18.79A6.62,6.62,0,0,1,40.47,76.75ZM33.41,37.6a17.39,17.39,0,0,0-3.24,4,30.36,30.36,0,0,0-4,15.61,30.36,30.36,0,0,0,4,15.61q0.48,0.78,1,1.47a11.4,11.4,0,0,1-5.29-4.71,25.06,25.06,0,0,1-3.53-13.38,25.06,25.06,0,0,1,3.53-13.38C27.94,39.56,30.61,37.73,33.41,37.6Zm12.72-1.88c-0.22.12-.44,0.25-0.66,0.39a9.84,9.84,0,0,0-5-1.39,9.62,9.62,0,0,0-3.34.6,7.67,7.67,0,0,1,5.31-1.74,10.49,10.49,0,0,1,3.69.64v1.5h0ZM39.9,57.65c0-10.87,4.63-20.06,10.11-20.06s10.11,9.19,10.11,20.06S55.49,77.71,50,77.71,39.9,68.52,39.9,57.65ZM49,27.13a4.83,4.83,0,0,1,6.36-4.59v2a3.34,3.34,0,0,0-2.54.42c-1.74,1.13-1.67,3.64-1.64,4.17V34.8a7.75,7.75,0,0,0-2.18,0V27.13Zm13.87,8.19a9.62,9.62,0,0,0-3.34-.6,9.84,9.84,0,0,0-5,1.39l-0.49-.29s0-.06,0-0.09V34.24a9.82,9.82,0,0,1,3.76-.66C61.26,33.65,63,35.27,62.87,35.32ZM63,57.65c0-8.35-2.4-15.52-6.08-19.52a6.76,6.76,0,0,1,2.62-.54c2.91,0,5.69,1.94,7.85,5.47a27.46,27.46,0,0,1,3.55,14.11,27.46,27.46,0,0,1-3.55,14.11c-2.15,3.53-4.94,5.47-7.85,5.47a6.62,6.62,0,0,1-2-.31C60.86,72.32,63,65.5,63,57.65Zm6.84,15.13a30.36,30.36,0,0,0,4-15.61,30.36,30.36,0,0,0-4-15.61,17.39,17.39,0,0,0-3.24-4c2.8,0.13,5.47,2,7.54,5.19a25.07,25.07,0,0,1,3.53,13.38,25.06,25.06,0,0,1-3.53,13.38,11.4,11.4,0,0,1-5.3,4.71Q69.35,73.56,69.83,72.78Z"/></svg>