<svg id="Objects" xmlns="http://www.w3.org/2000/svg" viewBox="0 0 100 100"><defs><style>.cls-1{fill:#fff;}.cls-2{fill:#d88835;}.cls-3{fill:#97bd95;}.cls-4{fill:#3d3126;}</style></defs><title>fruit</title><path class="cls-1" d="M54.66,29.55l4.9-9.31s-1.42-4.59-3.95-1.73a41.29,41.29,0,0,0-3.26,4L52,13.05l-4.13-1.13-0.53,9.85-5.12-4-1.4,1.73,4.92,13s-5.62,1.74-4.83,9.18,2.53,36.85,8.86,45.7c0,0,4.9-4.27,7.12-24.2s1.74-27.36,1.74-27.36L55,32.49Z"/><path class="cls-2" d="M57.68,37.75c0,0.45-.74,6.25-1.29,12.25H51.28c-0.84,0,0,.1,0,0.94s-0.85.75,0,.75l5.39-.25c-0.38,5-.76,9.83-1.43,14.83l-3.94-.19c-0.84,0-1,.53-1,1.37s0.12,0.86,1,.86l3,0.1c-0.91,5.3-2,11.65-3.71,15.53C48.74,78,47.19,68,46.3,61h2.41a1.5,1.5,0,1,0,0-3H46c-0.43-4-.85-12-1.06-14h3.76c0.84,0,1.51.09,1.51-1a1.87,1.87,0,0,0-1.51-2H44.75c0-1-.07-1.44-0.07-1.58,0-1.16,1.24-2.38,3.24-3.12a10.92,10.92,0,0,1,3.91-.62,12.36,12.36,0,0,1,3.91.72A7.3,7.3,0,0,1,57.68,37.75Z"/><path class="cls-2" d="M50.56,83.68l-0.27.73Z"/><path class="cls-1" d="M50,13.85a0.5,0.5,0,0,1,.5.5v-1a0.5,0.5,0,1,0-1,0v1A0.5,0.5,0,0,1,50,13.85Z"/><path class="cls-3" d="M57.69,20.12c-0.07-.07-0.22-0.24-0.58.12-1.76,1.76-2.66,4.28-3.69,6.56a1.26,1.26,0,0,1-1.44.94,1.32,1.32,0,0,1-1-1.49V13.36a0.5,0.5,0,0,0-1,0v12.9a1.76,1.76,0,0,1-1.48,1.49,1.67,1.67,0,0,1-1.82-.94A26.53,26.53,0,0,0,43,20.25a0.4,0.4,0,0,0-.61-0.12l-0.05.05,0,0a26.25,26.25,0,0,1,4.62,10.75,15.54,15.54,0,0,1,6.24,0,26.27,26.27,0,0,1,4.63-10.75l0,0Z"/><path class="cls-4" d="M59.87,17a3.33,3.33,0,0,0-2.58-1,3.48,3.48,0,0,0-2.58,1.4q-0.62.8-1.19,1.66v-5.7a3.52,3.52,0,1,0-7,0v5.7q-0.57-.85-1.19-1.66A3.48,3.48,0,0,0,42.71,16a3.33,3.33,0,0,0-2.58,1,3.8,3.8,0,0,0-.32,4.91A23.31,23.31,0,0,1,44,31.87c-2.53,1.23-4.15,3.24-4.15,5.55v0.05c0.06,1.58,1.47,38.91,8.86,51.92a1.51,1.51,0,0,0,2.63,0c7.39-13,8.81-50.34,8.86-51.92V37.42c0-2.31-1.62-4.32-4.16-5.55a23.32,23.32,0,0,1,4.17-9.93A3.8,3.8,0,0,0,59.87,17ZM56.4,49.35H51.28a1.51,1.51,0,0,0,0,3h4.85c-0.38,4.14-.89,8.75-1.56,13.32H51.3a1.51,1.51,0,0,0,0,3h2.81A80.85,80.85,0,0,1,50,85.14C47.49,79,45.82,69.48,44.74,60.56h4a1.51,1.51,0,0,0,0-3H44.38c-0.55-5-.92-9.73-1.16-13.32h5.47a1.51,1.51,0,1,0,0-3H43c-0.12-2.17-.18-3.55-0.19-3.78,0-1.16,1.24-2.4,3.24-3.13A10.48,10.48,0,0,1,50,33.61a13.43,13.43,0,0,1,3.91.66c2,0.73,3.22,2,3.24,3.13C57.13,37.84,56.94,42.7,56.4,49.35ZM42.31,19.14a0.37,0.37,0,0,1,.58.12,26.35,26.35,0,0,1,3.69,6.56,1.51,1.51,0,0,0,2.93-.55V13.36a0.5,0.5,0,1,1,1,0V25.28a1.51,1.51,0,0,0,1.23,1.49,1.55,1.55,0,0,0,1.69-.94c1-2.28,1.92-4.81,3.69-6.56,0.37-.36.51-0.2,0.58-0.12a0.78,0.78,0,0,1,.07,1,26.27,26.27,0,0,0-4.63,10.75,15.55,15.55,0,0,0-6.24,0,26.26,26.26,0,0,0-4.63-10.75A0.79,0.79,0,0,1,42.31,19.14Z"/></svg>