<svg xmlns="http://www.w3.org/2000/svg" viewBox="0 0 99.17 99.17"><defs><style>.cls-1{isolation:isolate;}.cls-2{fill:#aa7244;}.cls-3{opacity:0.2;mix-blend-mode:soft-light;}.cls-4{fill:none;stroke:#000;stroke-miterlimit:10;stroke-width:2px;}</style></defs><title>aarde</title><g class="cls-1"><g id="Objects"><rect class="cls-2" width="99.17" height="99.17"/><g class="cls-3"><path class="cls-4" d="M7.86,16.16c7,0,7,6.86,13.9,6.86s7-6.86,13.91-6.86S42.62,23,49.58,23s7-6.86,13.91-6.86S70.44,23,77.4,23s7-6.86,13.92-6.86"/><path class="cls-4" d="M7.86,36.16c7,0,7,6.86,13.9,6.86s7-6.86,13.91-6.86S42.62,43,49.58,43s7-6.86,13.91-6.86S70.44,43,77.4,43s7-6.86,13.92-6.86"/><path class="cls-4" d="M7.86,56.16c7,0,7,6.86,13.9,6.86s7-6.86,13.91-6.86S42.62,63,49.58,63s7-6.86,13.91-6.86S70.44,63,77.4,63s7-6.86,13.92-6.86"/><path class="cls-4" d="M7.86,76.16c7,0,7,6.86,13.9,6.86s7-6.86,13.91-6.86S42.62,83,49.58,83s7-6.86,13.91-6.86S70.44,83,77.4,83s7-6.86,13.92-6.86"/></g></g></g></svg>